<svg width="1241" height="735" viewBox="0 0 1241 735" fill="none" xmlns="http://www.w3.org/2000/svg">
<rect width="1241" height="735" fill="#B4D9F4"/>
<path d="M998.5 345L801 584.5L822 590L967 453.5L1066 493.5L1179.5 380.5L1240.5 453.5V219.5L1196.5 142L1064 361.5L998.5 345Z" fill="#39576E"/>
<path d="M712.5 549.5L444 734.5H1240.5V453.5L1179.5 380.5L1066 493.5L967 453.5L822 590L712.5 549.5Z" fill="#4383B2"/>
<path d="M808.5 611L628.5 735H1241V542.11L1193.82 492L1106.03 569.568L1029.46 542.11L917.308 635.809L808.5 611Z" fill="#17507B"/>
<path d="M3 91.5L1241 92" stroke="black"/>
<path d="M427.963 52H424.588L430.733 34.5455H434.636L440.79 52H437.415L432.753 38.125H432.616L427.963 52ZM428.074 45.1562H437.278V47.696H428.074V45.1562ZM443.089 52V34.5455H449.771C451.032 34.5455 452.08 34.7443 452.915 35.142C453.756 35.5341 454.384 36.071 454.799 36.7528C455.219 37.4347 455.43 38.2074 455.43 39.071C455.43 39.7812 455.293 40.3892 455.021 40.8949C454.748 41.3949 454.381 41.8011 453.921 42.1136C453.461 42.4261 452.947 42.6506 452.379 42.7869V42.9574C452.998 42.9915 453.592 43.1818 454.16 43.5284C454.734 43.8693 455.202 44.3523 455.566 44.9773C455.93 45.6023 456.112 46.358 456.112 47.2443C456.112 48.1477 455.893 48.9602 455.455 49.6818C455.018 50.3977 454.359 50.9631 453.478 51.3778C452.597 51.7926 451.489 52 450.154 52H443.089ZM446.251 49.358H449.651C450.799 49.358 451.626 49.1392 452.131 48.7017C452.643 48.2585 452.898 47.6903 452.898 46.9972C452.898 46.4801 452.771 46.0142 452.515 45.5994C452.259 45.179 451.896 44.8494 451.424 44.6108C450.952 44.3665 450.39 44.2443 449.737 44.2443H446.251V49.358ZM446.251 41.9688H449.379C449.924 41.9688 450.415 41.8693 450.853 41.6705C451.29 41.4659 451.634 41.179 451.884 40.8097C452.14 40.4347 452.268 39.9915 452.268 39.4801C452.268 38.804 452.029 38.2472 451.552 37.8097C451.08 37.3722 450.379 37.1534 449.447 37.1534H446.251V41.9688ZM474.459 43.2727C474.459 45.1534 474.107 46.7642 473.402 48.1051C472.703 49.4403 471.749 50.4631 470.538 51.1733C469.334 51.8835 467.967 52.2386 466.439 52.2386C464.911 52.2386 463.541 51.8835 462.331 51.1733C461.126 50.4574 460.172 49.4318 459.467 48.0966C458.768 46.7557 458.419 45.1477 458.419 43.2727C458.419 41.392 458.768 39.7841 459.467 38.4489C460.172 37.108 461.126 36.0824 462.331 35.3722C463.541 34.6619 464.911 34.3068 466.439 34.3068C467.967 34.3068 469.334 34.6619 470.538 35.3722C471.749 36.0824 472.703 37.108 473.402 38.4489C474.107 39.7841 474.459 41.392 474.459 43.2727ZM471.28 43.2727C471.28 41.9489 471.072 40.8324 470.658 39.9233C470.249 39.0085 469.68 38.3182 468.953 37.8523C468.226 37.3807 467.388 37.1449 466.439 37.1449C465.49 37.1449 464.652 37.3807 463.925 37.8523C463.197 38.3182 462.626 39.0085 462.212 39.9233C461.803 40.8324 461.598 41.9489 461.598 43.2727C461.598 44.5966 461.803 45.7159 462.212 46.6307C462.626 47.5398 463.197 48.2301 463.925 48.7017C464.652 49.1676 465.49 49.4006 466.439 49.4006C467.388 49.4006 468.226 49.1676 468.953 48.7017C469.68 48.2301 470.249 47.5398 470.658 46.6307C471.072 45.7159 471.28 44.5966 471.28 43.2727ZM488.451 34.5455H491.613V45.9489C491.613 47.1989 491.317 48.2983 490.727 49.2472C490.141 50.196 489.317 50.9375 488.255 51.4716C487.192 52 485.951 52.2642 484.531 52.2642C483.104 52.2642 481.86 52 480.798 51.4716C479.735 50.9375 478.911 50.196 478.326 49.2472C477.741 48.2983 477.448 47.1989 477.448 45.9489V34.5455H480.61V45.6847C480.61 46.4119 480.769 47.0597 481.087 47.6278C481.411 48.196 481.866 48.642 482.451 48.9659C483.036 49.2841 483.729 49.4432 484.531 49.4432C485.332 49.4432 486.025 49.2841 486.61 48.9659C487.201 48.642 487.656 48.196 487.974 47.6278C488.292 47.0597 488.451 46.4119 488.451 45.6847V34.5455ZM494.283 37.196V34.5455H508.209V37.196H502.814V52H499.678V37.196H494.283ZM527.849 34.5455H531.011V45.9489C531.011 47.1989 530.716 48.2983 530.125 49.2472C529.54 50.196 528.716 50.9375 527.653 51.4716C526.591 52 525.349 52.2642 523.929 52.2642C522.503 52.2642 521.259 52 520.196 51.4716C519.134 50.9375 518.31 50.196 517.724 49.2472C517.139 48.2983 516.847 47.1989 516.847 45.9489V34.5455H520.009V45.6847C520.009 46.4119 520.168 47.0597 520.486 47.6278C520.81 48.196 521.264 48.642 521.849 48.9659C522.435 49.2841 523.128 49.4432 523.929 49.4432C524.73 49.4432 525.423 49.2841 526.009 48.9659C526.599 48.642 527.054 48.196 527.372 47.6278C527.69 47.0597 527.849 46.4119 527.849 45.6847V34.5455ZM543.934 39.3438C543.854 38.5994 543.519 38.0199 542.928 37.6051C542.343 37.1903 541.582 36.983 540.644 36.983C539.985 36.983 539.42 37.0824 538.948 37.2812C538.477 37.4801 538.116 37.75 537.866 38.0909C537.616 38.4318 537.488 38.821 537.482 39.2585C537.482 39.6222 537.565 39.9375 537.729 40.2045C537.9 40.4716 538.13 40.6989 538.42 40.8864C538.71 41.0682 539.031 41.2216 539.383 41.3466C539.735 41.4716 540.09 41.5767 540.448 41.6619L542.085 42.071C542.744 42.2244 543.377 42.4318 543.985 42.6932C544.599 42.9545 545.147 43.2841 545.63 43.6818C546.119 44.0795 546.505 44.5597 546.789 45.1222C547.073 45.6847 547.215 46.3437 547.215 47.0994C547.215 48.1222 546.954 49.0227 546.431 49.8011C545.908 50.5739 545.153 51.179 544.164 51.6165C543.181 52.0483 541.991 52.2642 540.593 52.2642C539.235 52.2642 538.056 52.054 537.056 51.6335C536.062 51.2131 535.283 50.5994 534.721 49.7926C534.164 48.9858 533.863 48.0028 533.817 46.8438H536.928C536.974 47.4517 537.161 47.9574 537.491 48.3608C537.82 48.7642 538.249 49.0653 538.778 49.2642C539.312 49.4631 539.908 49.5625 540.567 49.5625C541.255 49.5625 541.857 49.4602 542.374 49.2557C542.897 49.0455 543.306 48.7557 543.602 48.3864C543.897 48.0114 544.048 47.5739 544.053 47.0739C544.048 46.6193 543.914 46.2443 543.653 45.9489C543.391 45.6477 543.025 45.3977 542.553 45.1989C542.087 44.9943 541.542 44.8125 540.917 44.6534L538.931 44.142C537.494 43.7727 536.357 43.2131 535.522 42.4631C534.692 41.7074 534.278 40.7045 534.278 39.4545C534.278 38.4261 534.556 37.5256 535.113 36.7528C535.675 35.9801 536.44 35.3807 537.406 34.9545C538.371 34.5227 539.465 34.3068 540.687 34.3068C541.925 34.3068 543.011 34.5227 543.942 34.9545C544.88 35.3807 545.616 35.9744 546.15 36.7358C546.684 37.4915 546.96 38.3608 546.977 39.3438H543.934Z" fill="#123C5A"/>
<path d="M678.662 40.4347H675.474C675.384 39.9119 675.216 39.4489 674.972 39.0455C674.727 38.6364 674.423 38.2898 674.06 38.0057C673.696 37.7216 673.281 37.5085 672.815 37.3665C672.355 37.2188 671.858 37.1449 671.324 37.1449C670.375 37.1449 669.534 37.3835 668.801 37.8608C668.068 38.3324 667.494 39.0256 667.08 39.9403C666.665 40.8494 666.457 41.9602 666.457 43.2727C666.457 44.608 666.665 45.733 667.08 46.6477C667.5 47.5568 668.074 48.2443 668.801 48.7102C669.534 49.1705 670.372 49.4006 671.315 49.4006C671.838 49.4006 672.327 49.3324 672.781 49.196C673.241 49.054 673.653 48.8466 674.017 48.5739C674.386 48.3011 674.696 47.9659 674.946 47.5682C675.202 47.1705 675.378 46.7159 675.474 46.2045L678.662 46.2216C678.543 47.0511 678.284 47.8295 677.886 48.5568C677.494 49.2841 676.98 49.9261 676.344 50.483C675.707 51.0341 674.963 51.4659 674.111 51.7784C673.259 52.0852 672.313 52.2386 671.273 52.2386C669.739 52.2386 668.369 51.8835 667.165 51.1733C665.96 50.4631 665.011 49.4375 664.318 48.0966C663.625 46.7557 663.278 45.1477 663.278 43.2727C663.278 41.392 663.628 39.7841 664.327 38.4489C665.026 37.108 665.977 36.0824 667.182 35.3722C668.386 34.6619 669.75 34.3068 671.273 34.3068C672.244 34.3068 673.148 34.4432 673.983 34.7159C674.818 34.9886 675.563 35.3892 676.216 35.9176C676.869 36.4403 677.406 37.0824 677.827 37.8438C678.253 38.5994 678.531 39.4631 678.662 40.4347ZM697.154 43.2727C697.154 45.1534 696.802 46.7642 696.097 48.1051C695.398 49.4403 694.444 50.4631 693.234 51.1733C692.029 51.8835 690.663 52.2386 689.134 52.2386C687.606 52.2386 686.237 51.8835 685.026 51.1733C683.822 50.4574 682.867 49.4318 682.163 48.0966C681.464 46.7557 681.114 45.1477 681.114 43.2727C681.114 41.392 681.464 39.7841 682.163 38.4489C682.867 37.108 683.822 36.0824 685.026 35.3722C686.237 34.6619 687.606 34.3068 689.134 34.3068C690.663 34.3068 692.029 34.6619 693.234 35.3722C694.444 36.0824 695.398 37.108 696.097 38.4489C696.802 39.7841 697.154 41.392 697.154 43.2727ZM693.975 43.2727C693.975 41.9489 693.768 40.8324 693.353 39.9233C692.944 39.0085 692.376 38.3182 691.648 37.8523C690.921 37.3807 690.083 37.1449 689.134 37.1449C688.185 37.1449 687.347 37.3807 686.62 37.8523C685.893 38.3182 685.322 39.0085 684.907 39.9233C684.498 40.8324 684.293 41.9489 684.293 43.2727C684.293 44.5966 684.498 45.7159 684.907 46.6307C685.322 47.5398 685.893 48.2301 686.62 48.7017C687.347 49.1676 688.185 49.4006 689.134 49.4006C690.083 49.4006 690.921 49.1676 691.648 48.7017C692.376 48.2301 692.944 47.5398 693.353 46.6307C693.768 45.7159 693.975 44.5966 693.975 43.2727ZM714.487 34.5455V52H711.675L703.45 40.1108H703.305V52H700.143V34.5455H702.973L711.189 46.4432H711.342V34.5455H714.487ZM717.165 37.196V34.5455H731.092V37.196H725.697V52H722.56V37.196H717.165ZM733.908 52H730.533L736.678 34.5455H740.582L746.735 52H743.36L738.698 38.125H738.562L733.908 52ZM734.019 45.1562H743.224V47.696H734.019V45.1562ZM763.154 40.4347H759.967C759.876 39.9119 759.708 39.4489 759.464 39.0455C759.219 38.6364 758.915 38.2898 758.552 38.0057C758.188 37.7216 757.773 37.5085 757.308 37.3665C756.847 37.2188 756.35 37.1449 755.816 37.1449C754.867 37.1449 754.026 37.3835 753.293 37.8608C752.56 38.3324 751.987 39.0256 751.572 39.9403C751.157 40.8494 750.95 41.9602 750.95 43.2727C750.95 44.608 751.157 45.733 751.572 46.6477C751.992 47.5568 752.566 48.2443 753.293 48.7102C754.026 49.1705 754.864 49.4006 755.808 49.4006C756.33 49.4006 756.819 49.3324 757.273 49.196C757.734 49.054 758.146 48.8466 758.509 48.5739C758.879 48.3011 759.188 47.9659 759.438 47.5682C759.694 47.1705 759.87 46.7159 759.967 46.2045L763.154 46.2216C763.035 47.0511 762.776 47.8295 762.379 48.5568C761.987 49.2841 761.472 49.9261 760.836 50.483C760.2 51.0341 759.455 51.4659 758.603 51.7784C757.751 52.0852 756.805 52.2386 755.765 52.2386C754.231 52.2386 752.862 51.8835 751.657 51.1733C750.452 50.4631 749.504 49.4375 748.81 48.0966C748.117 46.7557 747.771 45.1477 747.771 43.2727C747.771 41.392 748.12 39.7841 748.819 38.4489C749.518 37.108 750.469 36.0824 751.674 35.3722C752.879 34.6619 754.242 34.3068 755.765 34.3068C756.737 34.3068 757.64 34.4432 758.475 34.7159C759.31 34.9886 760.055 35.3892 760.708 35.9176C761.362 36.4403 761.898 37.0824 762.319 37.8438C762.745 38.5994 763.023 39.4631 763.154 40.4347ZM765.283 37.196V34.5455H779.209V37.196H773.814V52H770.678V37.196H765.283ZM791.379 39.3438C791.3 38.5994 790.964 38.0199 790.374 37.6051C789.788 37.1903 789.027 36.983 788.089 36.983C787.43 36.983 786.865 37.0824 786.393 37.2812C785.922 37.4801 785.561 37.75 785.311 38.0909C785.061 38.4318 784.933 38.821 784.928 39.2585C784.928 39.6222 785.01 39.9375 785.175 40.2045C785.345 40.4716 785.575 40.6989 785.865 40.8864C786.155 41.0682 786.476 41.2216 786.828 41.3466C787.18 41.4716 787.536 41.5767 787.893 41.6619L789.53 42.071C790.189 42.2244 790.822 42.4318 791.43 42.6932C792.044 42.9545 792.592 43.2841 793.075 43.6818C793.564 44.0795 793.95 44.5597 794.234 45.1222C794.518 45.6847 794.661 46.3437 794.661 47.0994C794.661 48.1222 794.399 49.0227 793.876 49.8011C793.354 50.5739 792.598 51.179 791.609 51.6165C790.626 52.0483 789.436 52.2642 788.038 52.2642C786.68 52.2642 785.501 52.054 784.501 51.6335C783.507 51.2131 782.729 50.5994 782.166 49.7926C781.609 48.9858 781.308 48.0028 781.263 46.8438H784.374C784.419 47.4517 784.607 47.9574 784.936 48.3608C785.266 48.7642 785.695 49.0653 786.223 49.2642C786.757 49.4631 787.354 49.5625 788.013 49.5625C788.7 49.5625 789.303 49.4602 789.82 49.2557C790.342 49.0455 790.751 48.7557 791.047 48.3864C791.342 48.0114 791.493 47.5739 791.499 47.0739C791.493 46.6193 791.359 46.2443 791.098 45.9489C790.837 45.6477 790.47 45.3977 789.999 45.1989C789.533 44.9943 788.987 44.8125 788.362 44.6534L786.376 44.142C784.939 43.7727 783.803 43.2131 782.967 42.4631C782.138 41.7074 781.723 40.7045 781.723 39.4545C781.723 38.4261 782.001 37.5256 782.558 36.7528C783.121 35.9801 783.885 35.3807 784.851 34.9545C785.817 34.5227 786.911 34.3068 788.132 34.3068C789.371 34.3068 790.456 34.5227 791.388 34.9545C792.325 35.3807 793.061 35.9744 793.595 36.7358C794.129 37.4915 794.405 38.3608 794.422 39.3438H791.379Z" fill="#123C5A"/>
<path d="M914.722 52V34.5455H921.267C922.608 34.5455 923.733 34.7784 924.642 35.2443C925.557 35.7102 926.247 36.3636 926.713 37.2045C927.185 38.0398 927.42 39.0142 927.42 40.1278C927.42 41.2472 927.182 42.2187 926.705 43.0426C926.233 43.8608 925.537 44.4943 924.616 44.9432C923.696 45.3864 922.565 45.608 921.224 45.608H916.562V42.983H920.798C921.582 42.983 922.224 42.875 922.724 42.6591C923.224 42.4375 923.594 42.1165 923.832 41.696C924.077 41.2699 924.199 40.7472 924.199 40.1278C924.199 39.5085 924.077 38.9801 923.832 38.5426C923.588 38.0994 923.216 37.7642 922.716 37.5369C922.216 37.304 921.571 37.1875 920.781 37.1875H917.884V52H914.722ZM923.739 44.0909L928.06 52H924.531L920.287 44.0909H923.739ZM930.331 52V34.5455H941.683V37.196H933.493V41.9347H941.095V44.5852H933.493V49.3494H941.751V52H930.331ZM947.244 34.5455L951.787 48.2841H951.966L956.5 34.5455H959.977L953.824 52H949.92L943.776 34.5455H947.244ZM965.438 34.5455V52H962.276V34.5455H965.438ZM968.862 52V34.5455H980.214V37.196H972.024V41.9347H979.626V44.5852H972.024V49.3494H980.283V52H968.862ZM987.114 52L982.188 34.5455H985.588L988.733 47.3722H988.895L992.253 34.5455H995.347L998.713 47.3807H998.866L1002.01 34.5455H1005.41L1000.49 52H997.366L993.872 39.7528H993.736L990.233 52H987.114ZM1016.97 39.3438C1016.89 38.5994 1016.56 38.0199 1015.97 37.6051C1015.38 37.1903 1014.62 36.983 1013.68 36.983C1013.02 36.983 1012.46 37.0824 1011.99 37.2812C1011.52 37.4801 1011.15 37.75 1010.9 38.0909C1010.65 38.4318 1010.53 38.821 1010.52 39.2585C1010.52 39.6222 1010.6 39.9375 1010.77 40.2045C1010.94 40.4716 1011.17 40.6989 1011.46 40.8864C1011.75 41.0682 1012.07 41.2216 1012.42 41.3466C1012.77 41.4716 1013.13 41.5767 1013.49 41.6619L1015.12 42.071C1015.78 42.2244 1016.42 42.4318 1017.02 42.6932C1017.64 42.9545 1018.19 43.2841 1018.67 43.6818C1019.16 44.0795 1019.54 44.5597 1019.83 45.1222C1020.11 45.6847 1020.25 46.3437 1020.25 47.0994C1020.25 48.1222 1019.99 49.0227 1019.47 49.8011C1018.95 50.5739 1018.19 51.179 1017.2 51.6165C1016.22 52.0483 1015.03 52.2642 1013.63 52.2642C1012.27 52.2642 1011.1 52.054 1010.1 51.6335C1009.1 51.2131 1008.32 50.5994 1007.76 49.7926C1007.2 48.9858 1006.9 48.0028 1006.86 46.8438H1009.97C1010.01 47.4517 1010.2 47.9574 1010.53 48.3608C1010.86 48.7642 1011.29 49.0653 1011.82 49.2642C1012.35 49.4631 1012.95 49.5625 1013.61 49.5625C1014.29 49.5625 1014.9 49.4602 1015.41 49.2557C1015.94 49.0455 1016.35 48.7557 1016.64 48.3864C1016.94 48.0114 1017.09 47.5739 1017.09 47.0739C1017.09 46.6193 1016.95 46.2443 1016.69 45.9489C1016.43 45.6477 1016.06 45.3977 1015.59 45.1989C1015.13 44.9943 1014.58 44.8125 1013.96 44.6534L1011.97 44.142C1010.53 43.7727 1009.4 43.2131 1008.56 42.4631C1007.73 41.7074 1007.32 40.7045 1007.32 39.4545C1007.32 38.4261 1007.6 37.5256 1008.15 36.7528C1008.71 35.9801 1009.48 35.3807 1010.44 34.9545C1011.41 34.5227 1012.5 34.3068 1013.73 34.3068C1014.96 34.3068 1016.05 34.5227 1016.98 34.9545C1017.92 35.3807 1018.65 35.9744 1019.19 36.7358C1019.72 37.4915 1020 38.3608 1020.02 39.3438H1016.97Z" fill="#123C5A"/>
<path d="M128.955 37.196V34.5455H142.881V37.196H137.486V52H134.349V37.196H128.955ZM145.565 52V34.5455H152.111C153.452 34.5455 154.577 34.7784 155.486 35.2443C156.401 35.7102 157.091 36.3636 157.557 37.2045C158.028 38.0398 158.264 39.0142 158.264 40.1278C158.264 41.2472 158.026 42.2187 157.548 43.0426C157.077 43.8608 156.381 44.4943 155.46 44.9432C154.54 45.3864 153.409 45.608 152.068 45.608H147.406V42.983H151.642C152.426 42.983 153.068 42.875 153.568 42.6591C154.068 42.4375 154.438 42.1165 154.676 41.696C154.92 41.2699 155.043 40.7472 155.043 40.1278C155.043 39.5085 154.92 38.9801 154.676 38.5426C154.432 38.0994 154.06 37.7642 153.56 37.5369C153.06 37.304 152.415 37.1875 151.625 37.1875H148.727V52H145.565ZM154.582 44.0909L158.903 52H155.375L151.131 44.0909H154.582ZM164.337 34.5455V52H161.175V34.5455H164.337ZM167.761 52V34.5455H174.306C175.647 34.5455 176.772 34.7955 177.681 35.2955C178.596 35.7955 179.286 36.483 179.752 37.358C180.224 38.2273 180.46 39.2159 180.46 40.3239C180.46 41.4432 180.224 42.4375 179.752 43.3068C179.281 44.1761 178.585 44.8608 177.664 45.3608C176.744 45.8551 175.61 46.1023 174.263 46.1023H169.925V43.5028H173.837C174.621 43.5028 175.263 43.3665 175.763 43.0938C176.263 42.821 176.633 42.446 176.871 41.9688C177.116 41.4915 177.238 40.9432 177.238 40.3239C177.238 39.7045 177.116 39.1591 176.871 38.6875C176.633 38.2159 176.261 37.8494 175.755 37.5881C175.255 37.321 174.61 37.1875 173.82 37.1875H170.923V52H167.761ZM192.692 39.3438C192.612 38.5994 192.277 38.0199 191.686 37.6051C191.101 37.1903 190.339 36.983 189.402 36.983C188.743 36.983 188.178 37.0824 187.706 37.2812C187.234 37.4801 186.874 37.75 186.624 38.0909C186.374 38.4318 186.246 38.821 186.24 39.2585C186.24 39.6222 186.322 39.9375 186.487 40.2045C186.658 40.4716 186.888 40.6989 187.178 40.8864C187.467 41.0682 187.788 41.2216 188.141 41.3466C188.493 41.4716 188.848 41.5767 189.206 41.6619L190.842 42.071C191.501 42.2244 192.135 42.4318 192.743 42.6932C193.357 42.9545 193.905 43.2841 194.388 43.6818C194.876 44.0795 195.263 44.5597 195.547 45.1222C195.831 45.6847 195.973 46.3437 195.973 47.0994C195.973 48.1222 195.712 49.0227 195.189 49.8011C194.666 50.5739 193.911 51.179 192.922 51.6165C191.939 52.0483 190.749 52.2642 189.351 52.2642C187.993 52.2642 186.814 52.054 185.814 51.6335C184.82 51.2131 184.041 50.5994 183.479 49.7926C182.922 48.9858 182.621 48.0028 182.575 46.8438H185.686C185.732 47.4517 185.919 47.9574 186.249 48.3608C186.578 48.7642 187.007 49.0653 187.536 49.2642C188.07 49.4631 188.666 49.5625 189.325 49.5625C190.013 49.5625 190.615 49.4602 191.132 49.2557C191.655 49.0455 192.064 48.7557 192.359 48.3864C192.655 48.0114 192.805 47.5739 192.811 47.0739C192.805 46.6193 192.672 46.2443 192.411 45.9489C192.149 45.6477 191.783 45.3977 191.311 45.1989C190.845 44.9943 190.3 44.8125 189.675 44.6534L187.689 44.142C186.251 43.7727 185.115 43.2131 184.28 42.4631C183.45 41.7074 183.036 40.7045 183.036 39.4545C183.036 38.4261 183.314 37.5256 183.871 36.7528C184.433 35.9801 185.197 35.3807 186.163 34.9545C187.129 34.5227 188.223 34.3068 189.445 34.3068C190.683 34.3068 191.768 34.5227 192.7 34.9545C193.638 35.3807 194.374 35.9744 194.908 36.7358C195.442 37.4915 195.717 38.3608 195.734 39.3438H192.692ZM198.025 37.196V34.5455H211.951V37.196H206.556V52H203.42V37.196H198.025ZM214.636 52V34.5455H225.988V37.196H217.798V41.9347H225.4V44.5852H217.798V49.3494H226.056V52H214.636ZM229.214 52V34.5455H235.759C237.1 34.5455 238.225 34.7784 239.134 35.2443C240.049 35.7102 240.739 36.3636 241.205 37.2045C241.677 38.0398 241.913 39.0142 241.913 40.1278C241.913 41.2472 241.674 42.2187 241.197 43.0426C240.725 43.8608 240.029 44.4943 239.109 44.9432C238.188 45.3864 237.058 45.608 235.717 45.608H231.055V42.983H235.29C236.075 42.983 236.717 42.875 237.217 42.6591C237.717 42.4375 238.086 42.1165 238.325 41.696C238.569 41.2699 238.691 40.7472 238.691 40.1278C238.691 39.5085 238.569 38.9801 238.325 38.5426C238.08 38.0994 237.708 37.7642 237.208 37.5369C236.708 37.304 236.063 37.1875 235.273 37.1875H232.376V52H229.214ZM238.231 44.0909L242.552 52H239.023L234.779 44.0909H238.231Z" fill="#001202"/>
<path d="M141.386 325.727V381H134.693V325.727H141.386ZM171.971 339.545V344.943H150.488V339.545H171.971ZM156.75 329.614H163.119V369.125C163.119 370.924 163.38 372.274 163.902 373.173C164.441 374.055 165.125 374.649 165.953 374.955C166.798 375.242 167.689 375.386 168.625 375.386C169.326 375.386 169.902 375.35 170.352 375.278C170.802 375.188 171.162 375.116 171.431 375.062L172.727 380.784C172.295 380.946 171.692 381.108 170.919 381.27C170.145 381.45 169.164 381.54 167.977 381.54C166.178 381.54 164.414 381.153 162.687 380.379C160.978 379.606 159.556 378.427 158.423 376.844C157.307 375.26 156.75 373.263 156.75 370.852V329.614ZM189.318 325.727V330.585C189.318 332.061 189.048 333.635 188.509 335.308C187.987 336.964 187.213 338.574 186.188 340.139C185.18 341.687 183.956 343.036 182.517 344.188L179.062 341.381C180.196 339.761 181.177 338.079 182.004 336.334C182.85 334.571 183.273 332.69 183.273 330.693V325.727H189.318ZM221.232 348.83L215.511 350.449C215.151 349.495 214.62 348.569 213.918 347.669C213.235 346.751 212.299 345.996 211.112 345.402C209.924 344.808 208.404 344.511 206.55 344.511C204.013 344.511 201.899 345.096 200.208 346.266C198.535 347.417 197.698 348.884 197.698 350.665C197.698 352.248 198.274 353.499 199.425 354.416C200.577 355.334 202.376 356.098 204.823 356.71L210.977 358.222C214.683 359.121 217.445 360.498 219.262 362.351C221.079 364.186 221.988 366.552 221.988 369.449C221.988 371.824 221.304 373.947 219.937 375.818C218.587 377.689 216.698 379.165 214.269 380.244C211.84 381.324 209.015 381.864 205.795 381.864C201.567 381.864 198.067 380.946 195.296 379.111C192.525 377.276 190.771 374.595 190.033 371.068L196.079 369.557C196.655 371.788 197.743 373.461 199.344 374.577C200.964 375.692 203.078 376.25 205.687 376.25C208.656 376.25 211.013 375.62 212.758 374.361C214.521 373.083 215.403 371.554 215.403 369.773C215.403 368.333 214.899 367.128 213.891 366.156C212.884 365.167 211.336 364.429 209.249 363.943L202.34 362.324C198.544 361.424 195.755 360.03 193.974 358.141C192.21 356.233 191.329 353.849 191.329 350.989C191.329 348.65 191.986 346.58 193.299 344.781C194.63 342.982 196.439 341.57 198.724 340.544C201.027 339.518 203.636 339.006 206.55 339.006C210.653 339.006 213.873 339.905 216.212 341.705C218.569 343.504 220.243 345.879 221.232 348.83ZM270.979 339.545V344.943H249.496V339.545H270.979ZM255.757 329.614H262.127V369.125C262.127 370.924 262.388 372.274 262.909 373.173C263.449 374.055 264.133 374.649 264.961 374.955C265.806 375.242 266.697 375.386 267.632 375.386C268.334 375.386 268.91 375.35 269.36 375.278C269.81 375.188 270.169 375.116 270.439 375.062L271.735 380.784C271.303 380.946 270.7 381.108 269.926 381.27C269.153 381.45 268.172 381.54 266.985 381.54C265.185 381.54 263.422 381.153 261.695 380.379C259.986 379.606 258.564 378.427 257.431 376.844C256.315 375.26 255.757 373.263 255.757 370.852V329.614ZM280.56 381V339.545H286.929V381H280.56ZM283.799 332.636C282.557 332.636 281.487 332.214 280.587 331.368C279.705 330.522 279.265 329.506 279.265 328.318C279.265 327.131 279.705 326.114 280.587 325.268C281.487 324.423 282.557 324 283.799 324C285.04 324 286.102 324.423 286.983 325.268C287.883 326.114 288.333 327.131 288.333 328.318C288.333 329.506 287.883 330.522 286.983 331.368C286.102 332.214 285.04 332.636 283.799 332.636ZM298.595 381V339.545H304.749V346.023H305.288C306.152 343.81 307.546 342.091 309.472 340.868C311.397 339.626 313.709 339.006 316.408 339.006C319.143 339.006 321.419 339.626 323.236 340.868C325.071 342.091 326.501 343.81 327.527 346.023H327.959C329.02 343.882 330.613 342.181 332.736 340.922C334.859 339.644 337.405 339.006 340.374 339.006C344.08 339.006 347.112 340.166 349.469 342.487C351.826 344.79 353.004 348.38 353.004 353.256V381H346.635V353.256C346.635 350.197 345.798 348.011 344.125 346.697C342.452 345.384 340.482 344.727 338.214 344.727C335.3 344.727 333.042 345.609 331.44 347.372C329.839 349.117 329.038 351.33 329.038 354.011V381H322.561V352.608C322.561 350.251 321.796 348.353 320.267 346.913C318.738 345.456 316.768 344.727 314.357 344.727C312.701 344.727 311.154 345.168 309.714 346.05C308.293 346.931 307.142 348.155 306.26 349.72C305.396 351.268 304.964 353.058 304.964 355.091V381H298.595ZM382.031 381.864C378.036 381.864 374.591 380.982 371.694 379.219C368.815 377.438 366.593 374.955 365.028 371.77C363.48 368.567 362.707 364.843 362.707 360.597C362.707 356.35 363.48 352.608 365.028 349.369C366.593 346.113 368.77 343.576 371.559 341.759C374.366 339.923 377.64 339.006 381.383 339.006C383.542 339.006 385.674 339.366 387.779 340.085C389.884 340.805 391.8 341.974 393.528 343.594C395.255 345.195 396.631 347.318 397.657 349.963C398.683 352.608 399.195 355.865 399.195 359.733V362.432H367.241V356.926H392.718C392.718 354.587 392.25 352.5 391.315 350.665C390.397 348.83 389.084 347.381 387.374 346.32C385.683 345.258 383.686 344.727 381.383 344.727C378.846 344.727 376.651 345.357 374.798 346.616C372.962 347.858 371.55 349.477 370.56 351.474C369.571 353.472 369.076 355.613 369.076 357.898V361.568C369.076 364.699 369.616 367.353 370.695 369.53C371.793 371.689 373.313 373.335 375.256 374.469C377.2 375.584 379.458 376.142 382.031 376.142C383.704 376.142 385.215 375.908 386.565 375.44C387.932 374.955 389.111 374.235 390.1 373.281C391.09 372.31 391.854 371.104 392.394 369.665L398.548 371.392C397.9 373.479 396.811 375.314 395.282 376.898C393.753 378.463 391.863 379.687 389.614 380.568C387.365 381.432 384.837 381.864 382.031 381.864ZM448.288 339.545V344.943H426.805V339.545H448.288ZM433.066 329.614H439.435V369.125C439.435 370.924 439.696 372.274 440.218 373.173C440.758 374.055 441.442 374.649 442.269 374.955C443.115 375.242 444.005 375.386 444.941 375.386C445.643 375.386 446.219 375.35 446.668 375.278C447.118 375.188 447.478 375.116 447.748 375.062L449.043 380.784C448.612 380.946 448.009 381.108 447.235 381.27C446.461 381.45 445.481 381.54 444.293 381.54C442.494 381.54 440.731 381.153 439.004 380.379C437.294 379.606 435.873 378.427 434.739 376.844C433.624 375.26 433.066 373.263 433.066 370.852V329.614ZM474.264 381.864C470.522 381.864 467.238 380.973 464.413 379.192C461.607 377.411 459.411 374.919 457.828 371.716C456.263 368.513 455.48 364.771 455.48 360.489C455.48 356.17 456.263 352.401 457.828 349.18C459.411 345.96 461.607 343.459 464.413 341.678C467.238 339.896 470.522 339.006 474.264 339.006C478.007 339.006 481.281 339.896 484.088 341.678C486.913 343.459 489.108 345.96 490.673 349.18C492.257 352.401 493.048 356.17 493.048 360.489C493.048 364.771 492.257 368.513 490.673 371.716C489.108 374.919 486.913 377.411 484.088 379.192C481.281 380.973 478.007 381.864 474.264 381.864ZM474.264 376.142C477.107 376.142 479.446 375.413 481.281 373.956C483.116 372.499 484.475 370.582 485.357 368.207C486.238 365.832 486.679 363.259 486.679 360.489C486.679 357.718 486.238 355.136 485.357 352.743C484.475 350.35 483.116 348.416 481.281 346.94C479.446 345.465 477.107 344.727 474.264 344.727C471.421 344.727 469.082 345.465 467.247 346.94C465.412 348.416 464.054 350.35 463.172 352.743C462.29 355.136 461.849 357.718 461.849 360.489C461.849 363.259 462.29 365.832 463.172 368.207C464.054 370.582 465.412 372.499 467.247 373.956C469.082 375.413 471.421 376.142 474.264 376.142ZM542.174 339.545V344.943H520.691V339.545H542.174ZM526.953 329.614H533.322V369.125C533.322 370.924 533.583 372.274 534.105 373.173C534.645 374.055 535.328 374.649 536.156 374.955C537.002 375.242 537.892 375.386 538.828 375.386C539.529 375.386 540.105 375.35 540.555 375.278C541.005 375.188 541.365 375.116 541.635 375.062L542.93 380.784C542.498 380.946 541.895 381.108 541.122 381.27C540.348 381.45 539.368 381.54 538.18 381.54C536.381 381.54 534.618 381.153 532.89 380.379C531.181 379.606 529.76 378.427 528.626 376.844C527.511 375.26 526.953 373.263 526.953 370.852V329.614ZM551.755 381V339.545H557.909V345.807H558.341C559.096 343.756 560.464 342.091 562.443 340.814C564.422 339.536 566.653 338.898 569.136 338.898C569.604 338.898 570.189 338.907 570.89 338.925C571.592 338.943 572.123 338.97 572.483 339.006V345.483C572.267 345.429 571.772 345.348 570.998 345.24C570.243 345.114 569.442 345.051 568.596 345.051C566.581 345.051 564.782 345.474 563.199 346.32C561.633 347.147 560.392 348.299 559.474 349.774C558.574 351.232 558.125 352.896 558.125 354.767V381H551.755ZM592.232 381.972C589.605 381.972 587.221 381.477 585.08 380.487C582.938 379.48 581.238 378.031 579.979 376.142C578.719 374.235 578.089 371.932 578.089 369.233C578.089 366.858 578.557 364.933 579.493 363.457C580.429 361.964 581.679 360.795 583.244 359.949C584.81 359.103 586.537 358.473 588.426 358.06C590.333 357.628 592.25 357.286 594.175 357.034C596.694 356.71 598.736 356.467 600.301 356.305C601.884 356.125 603.036 355.829 603.756 355.415C604.493 355.001 604.862 354.281 604.862 353.256V353.04C604.862 350.377 604.134 348.308 602.676 346.832C601.237 345.357 599.051 344.619 596.118 344.619C593.077 344.619 590.693 345.285 588.966 346.616C587.239 347.948 586.024 349.369 585.322 350.881L579.277 348.722C580.357 346.203 581.796 344.241 583.595 342.838C585.412 341.417 587.392 340.427 589.533 339.869C591.692 339.294 593.815 339.006 595.902 339.006C597.233 339.006 598.763 339.168 600.49 339.491C602.235 339.797 603.918 340.436 605.537 341.408C607.174 342.379 608.533 343.846 609.612 345.807C610.692 347.768 611.232 350.395 611.232 353.688V381H604.862V375.386H604.538C604.107 376.286 603.387 377.249 602.379 378.274C601.372 379.3 600.031 380.172 598.358 380.892C596.685 381.612 594.643 381.972 592.232 381.972ZM593.203 376.25C595.722 376.25 597.845 375.755 599.572 374.766C601.318 373.776 602.631 372.499 603.513 370.933C604.412 369.368 604.862 367.722 604.862 365.994V360.165C604.592 360.489 603.999 360.786 603.081 361.055C602.181 361.307 601.138 361.532 599.95 361.73C598.781 361.91 597.638 362.072 596.523 362.216C595.425 362.342 594.535 362.45 593.851 362.54C592.196 362.756 590.648 363.107 589.209 363.592C587.787 364.06 586.636 364.771 585.754 365.724C584.891 366.66 584.459 367.937 584.459 369.557C584.459 371.77 585.277 373.443 586.915 374.577C588.57 375.692 590.666 376.25 593.203 376.25ZM655.27 339.545L639.941 381H633.463L618.134 339.545H625.043L636.486 372.58H636.918L648.361 339.545H655.27ZM679.574 381.864C675.579 381.864 672.134 380.982 669.237 379.219C666.358 377.438 664.136 374.955 662.571 371.77C661.023 368.567 660.25 364.843 660.25 360.597C660.25 356.35 661.023 352.608 662.571 349.369C664.136 346.113 666.313 343.576 669.102 341.759C671.909 339.923 675.183 339.006 678.926 339.006C681.085 339.006 683.217 339.366 685.322 340.085C687.427 340.805 689.343 341.974 691.071 343.594C692.798 345.195 694.174 347.318 695.2 349.963C696.225 352.608 696.738 355.865 696.738 359.733V362.432H664.784V356.926H690.261C690.261 354.587 689.793 352.5 688.858 350.665C687.94 348.83 686.627 347.381 684.917 346.32C683.226 345.258 681.229 344.727 678.926 344.727C676.389 344.727 674.194 345.357 672.341 346.616C670.505 347.858 669.093 349.477 668.103 351.474C667.114 353.472 666.619 355.613 666.619 357.898V361.568C666.619 364.699 667.159 367.353 668.238 369.53C669.336 371.689 670.856 373.335 672.799 374.469C674.743 375.584 677.001 376.142 679.574 376.142C681.247 376.142 682.758 375.908 684.108 375.44C685.475 374.955 686.654 374.235 687.643 373.281C688.633 372.31 689.397 371.104 689.937 369.665L696.091 371.392C695.443 373.479 694.354 375.314 692.825 376.898C691.296 378.463 689.406 379.687 687.157 380.568C684.908 381.432 682.38 381.864 679.574 381.864ZM712.797 325.727V381H706.427V325.727H712.797Z" fill="black"/>
<path d="M128.795 278.663V276.455H140.401V278.663H135.905V291H133.291V278.663H128.795ZM142.638 291V276.455H148.092C149.21 276.455 150.147 276.649 150.905 277.037C151.667 277.425 152.242 277.97 152.631 278.67C153.024 279.366 153.22 280.179 153.22 281.107C153.22 282.039 153.021 282.849 152.624 283.536C152.231 284.217 151.651 284.745 150.884 285.119C150.116 285.489 149.174 285.673 148.057 285.673H144.172V283.486H147.702C148.355 283.486 148.89 283.396 149.307 283.216C149.723 283.031 150.031 282.764 150.23 282.413C150.434 282.058 150.536 281.623 150.536 281.107C150.536 280.59 150.434 280.15 150.23 279.786C150.027 279.416 149.716 279.137 149.3 278.947C148.883 278.753 148.346 278.656 147.688 278.656H145.273V291H142.638ZM150.152 284.409L153.753 291H150.812L147.276 284.409H150.152ZM158.281 276.455V291H155.646V276.455H158.281ZM161.134 291V276.455H166.588C167.706 276.455 168.643 276.663 169.401 277.08C170.163 277.496 170.739 278.069 171.127 278.798C171.52 279.523 171.716 280.347 171.716 281.27C171.716 282.203 171.52 283.031 171.127 283.756C170.734 284.48 170.154 285.051 169.387 285.467C168.62 285.879 167.675 286.085 166.553 286.085H162.938V283.919H166.198C166.851 283.919 167.386 283.805 167.803 283.578C168.22 283.351 168.527 283.038 168.726 282.641C168.93 282.243 169.032 281.786 169.032 281.27C169.032 280.754 168.93 280.299 168.726 279.906C168.527 279.513 168.217 279.208 167.796 278.99C167.379 278.768 166.842 278.656 166.184 278.656H163.769V291H161.134ZM181.91 280.453C181.844 279.833 181.564 279.35 181.072 279.004C180.584 278.659 179.95 278.486 179.168 278.486C178.619 278.486 178.148 278.569 177.755 278.734C177.362 278.9 177.061 279.125 176.853 279.409C176.645 279.693 176.538 280.018 176.533 280.382C176.533 280.685 176.602 280.948 176.739 281.17C176.881 281.393 177.073 281.582 177.315 281.739C177.556 281.89 177.824 282.018 178.117 282.122C178.411 282.226 178.707 282.314 179.005 282.385L180.369 282.726C180.918 282.854 181.446 283.027 181.952 283.244C182.464 283.462 182.921 283.737 183.323 284.068C183.73 284.4 184.052 284.8 184.289 285.268C184.526 285.737 184.644 286.286 184.644 286.916C184.644 287.768 184.426 288.519 183.991 289.168C183.555 289.812 182.925 290.316 182.102 290.68C181.282 291.04 180.29 291.22 179.126 291.22C177.994 291.22 177.012 291.045 176.178 290.695C175.35 290.344 174.701 289.833 174.232 289.161C173.768 288.488 173.517 287.669 173.479 286.703H176.072C176.11 287.21 176.266 287.631 176.54 287.967C176.815 288.304 177.173 288.554 177.613 288.72C178.058 288.886 178.555 288.969 179.104 288.969C179.677 288.969 180.179 288.884 180.61 288.713C181.046 288.538 181.387 288.296 181.633 287.989C181.879 287.676 182.004 287.312 182.009 286.895C182.004 286.516 181.893 286.204 181.675 285.957C181.458 285.706 181.152 285.498 180.759 285.332C180.371 285.162 179.916 285.01 179.396 284.878L177.741 284.452C176.543 284.144 175.596 283.678 174.9 283.053C174.209 282.423 173.863 281.587 173.863 280.545C173.863 279.688 174.095 278.938 174.559 278.294C175.028 277.65 175.665 277.151 176.469 276.795C177.274 276.436 178.186 276.256 179.204 276.256C180.236 276.256 181.14 276.436 181.917 276.795C182.698 277.151 183.311 277.645 183.756 278.28C184.201 278.91 184.431 279.634 184.445 280.453H181.91ZM186.354 278.663V276.455H197.959V278.663H193.463V291H190.85V278.663H186.354ZM200.196 291V276.455H209.657V278.663H202.831V282.612H209.167V284.821H202.831V288.791H209.713V291H200.196ZM212.345 291V276.455H217.799C218.917 276.455 219.854 276.649 220.612 277.037C221.374 277.425 221.949 277.97 222.338 278.67C222.731 279.366 222.927 280.179 222.927 281.107C222.927 282.039 222.728 282.849 222.331 283.536C221.938 284.217 221.358 284.745 220.591 285.119C219.824 285.489 218.881 285.673 217.764 285.673H213.879V283.486H217.409C218.062 283.486 218.597 283.396 219.014 283.216C219.431 283.031 219.738 282.764 219.937 282.413C220.141 282.058 220.243 281.623 220.243 281.107C220.243 280.59 220.141 280.15 219.937 279.786C219.734 279.416 219.423 279.137 219.007 278.947C218.59 278.753 218.053 278.656 217.395 278.656H214.98V291H212.345ZM219.859 284.409L223.46 291H220.52L216.983 284.409H219.859Z" fill="#123C5A"/>
<rect x="129.5" y="433.5" width="259" height="75" stroke="#123C5A" stroke-width="3"/>
<path d="M251.886 466.159C251.697 465.545 251.436 464.996 251.102 464.511C250.777 464.019 250.383 463.598 249.92 463.25C249.466 462.902 248.943 462.64 248.352 462.466C247.761 462.284 247.117 462.193 246.42 462.193C245.17 462.193 244.057 462.508 243.08 463.136C242.102 463.765 241.333 464.689 240.773 465.909C240.22 467.121 239.943 468.598 239.943 470.341C239.943 472.098 240.22 473.587 240.773 474.807C241.326 476.027 242.095 476.955 243.08 477.591C244.064 478.22 245.208 478.534 246.511 478.534C247.693 478.534 248.716 478.307 249.58 477.852C250.451 477.398 251.121 476.754 251.591 475.92C252.061 475.08 252.295 474.095 252.295 472.966L253.25 473.114H246.932V469.818H256.375V472.614C256.375 474.606 255.951 476.33 255.102 477.784C254.254 479.239 253.087 480.36 251.602 481.148C250.117 481.928 248.413 482.318 246.489 482.318C244.345 482.318 242.462 481.837 240.841 480.875C239.227 479.905 237.966 478.53 237.057 476.75C236.155 474.962 235.705 472.841 235.705 470.386C235.705 468.508 235.97 466.83 236.5 465.352C237.038 463.875 237.788 462.621 238.75 461.591C239.712 460.553 240.841 459.765 242.136 459.227C243.432 458.682 244.841 458.409 246.364 458.409C247.652 458.409 248.852 458.598 249.966 458.977C251.08 459.348 252.068 459.879 252.932 460.568C253.803 461.258 254.519 462.076 255.08 463.023C255.64 463.97 256.008 465.015 256.182 466.159H251.886ZM281.247 470.364C281.247 472.871 280.777 475.019 279.838 476.807C278.906 478.587 277.634 479.951 276.02 480.898C274.414 481.845 272.592 482.318 270.554 482.318C268.516 482.318 266.69 481.845 265.077 480.898C263.471 479.943 262.198 478.576 261.259 476.795C260.327 475.008 259.861 472.864 259.861 470.364C259.861 467.856 260.327 465.712 261.259 463.932C262.198 462.144 263.471 460.777 265.077 459.83C266.69 458.883 268.516 458.409 270.554 458.409C272.592 458.409 274.414 458.883 276.02 459.83C277.634 460.777 278.906 462.144 279.838 463.932C280.777 465.712 281.247 467.856 281.247 470.364ZM277.009 470.364C277.009 468.598 276.732 467.11 276.179 465.898C275.634 464.678 274.876 463.758 273.906 463.136C272.937 462.508 271.819 462.193 270.554 462.193C269.289 462.193 268.171 462.508 267.202 463.136C266.232 463.758 265.471 464.678 264.918 465.898C264.372 467.11 264.099 468.598 264.099 470.364C264.099 472.129 264.372 473.621 264.918 474.841C265.471 476.053 266.232 476.973 267.202 477.602C268.171 478.223 269.289 478.534 270.554 478.534C271.819 478.534 272.937 478.223 273.906 477.602C274.876 476.973 275.634 476.053 276.179 474.841C276.732 473.621 277.009 472.129 277.009 470.364Z" fill="#123C5A"/>
</svg>
