<svg width="1246" height="735" viewBox="0 0 1246 735" fill="none" xmlns="http://www.w3.org/2000/svg">
<rect width="1241" height="735" fill="#FFF9CA"/>
<rect width="1241" height="100" fill="#805252"/>
<path d="M553.773 49.3636C553.773 51.8485 553.318 53.9848 552.409 55.7727C551.5 57.553 550.254 58.9242 548.67 59.8864C547.095 60.8409 545.303 61.3182 543.295 61.3182C541.28 61.3182 539.481 60.8409 537.898 59.8864C536.322 58.9242 535.08 57.5492 534.17 55.7614C533.261 53.9735 532.807 51.8409 532.807 49.3636C532.807 46.8788 533.261 44.7462 534.17 42.9659C535.08 41.178 536.322 39.8068 537.898 38.8523C539.481 37.8902 541.28 37.4091 543.295 37.4091C545.303 37.4091 547.095 37.8902 548.67 38.8523C550.254 39.8068 551.5 41.178 552.409 42.9659C553.318 44.7462 553.773 46.8788 553.773 49.3636ZM550.295 49.3636C550.295 47.4697 549.989 45.875 549.375 44.5795C548.769 43.2765 547.936 42.2917 546.875 41.625C545.822 40.9508 544.629 40.6136 543.295 40.6136C541.955 40.6136 540.758 40.9508 539.705 41.625C538.652 42.2917 537.818 43.2765 537.205 44.5795C536.598 45.875 536.295 47.4697 536.295 49.3636C536.295 51.2576 536.598 52.8561 537.205 54.1591C537.818 55.4545 538.652 56.4394 539.705 57.1136C540.758 57.7803 541.955 58.1136 543.295 58.1136C544.629 58.1136 545.822 57.7803 546.875 57.1136C547.936 56.4394 548.769 55.4545 549.375 54.1591C549.989 52.8561 550.295 51.2576 550.295 49.3636ZM578.176 50.8068V53.75H568.722V50.8068H578.176ZM569.676 43.5455V61H566.347V43.5455H569.676ZM580.551 43.5455V61H577.233V43.5455H580.551ZM590.176 61.3864C589.07 61.3864 588.07 61.1818 587.176 60.7727C586.282 60.3561 585.574 59.7538 585.051 58.9659C584.536 58.178 584.278 57.2121 584.278 56.0682C584.278 55.0833 584.468 54.2727 584.847 53.6364C585.225 53 585.737 52.4962 586.381 52.125C587.025 51.7538 587.744 51.4735 588.54 51.2841C589.335 51.0947 590.146 50.9508 590.972 50.8523C592.017 50.7311 592.866 50.6326 593.517 50.5568C594.169 50.4735 594.642 50.3409 594.938 50.1591C595.233 49.9773 595.381 49.6818 595.381 49.2727V49.1932C595.381 48.2008 595.1 47.4318 594.54 46.8864C593.987 46.3409 593.161 46.0682 592.062 46.0682C590.919 46.0682 590.017 46.322 589.358 46.8295C588.706 47.3295 588.256 47.8864 588.006 48.5L584.812 47.7727C585.191 46.7121 585.744 45.8561 586.472 45.2045C587.206 44.5455 588.051 44.0682 589.006 43.7727C589.96 43.4697 590.964 43.3182 592.017 43.3182C592.714 43.3182 593.453 43.4015 594.233 43.5682C595.021 43.7273 595.756 44.0227 596.438 44.4545C597.127 44.8864 597.691 45.5038 598.131 46.3068C598.57 47.1023 598.79 48.1364 598.79 49.4091V61H595.472V58.6136H595.335C595.116 59.053 594.786 59.4848 594.347 59.9091C593.907 60.3333 593.343 60.6856 592.653 60.9659C591.964 61.2462 591.138 61.3864 590.176 61.3864ZM590.915 58.6591C591.854 58.6591 592.657 58.4735 593.324 58.1023C593.998 57.7311 594.509 57.2462 594.858 56.6477C595.214 56.0417 595.392 55.3939 595.392 54.7045V52.4545C595.271 52.5758 595.036 52.6894 594.688 52.7955C594.347 52.8939 593.956 52.9811 593.517 53.0568C593.078 53.125 592.65 53.1894 592.233 53.25C591.816 53.303 591.468 53.3485 591.188 53.3864C590.528 53.4697 589.926 53.6098 589.381 53.8068C588.843 54.0038 588.411 54.2879 588.085 54.6591C587.767 55.0227 587.608 55.5076 587.608 56.1136C587.608 56.9545 587.919 57.5909 588.54 58.0227C589.161 58.447 589.953 58.6591 590.915 58.6591ZM610.668 61.3523C608.978 61.3523 607.524 60.9697 606.304 60.2045C605.092 59.4318 604.16 58.3674 603.509 57.0114C602.857 55.6553 602.531 54.1023 602.531 52.3523C602.531 50.5795 602.865 49.0152 603.531 47.6591C604.198 46.2955 605.137 45.2311 606.349 44.4659C607.562 43.7008 608.99 43.3182 610.634 43.3182C611.959 43.3182 613.141 43.5644 614.179 44.0568C615.217 44.5417 616.054 45.2235 616.69 46.1023C617.334 46.9811 617.717 48.0076 617.838 49.1818H614.531C614.349 48.3636 613.933 47.6591 613.281 47.0682C612.637 46.4773 611.774 46.1818 610.69 46.1818C609.743 46.1818 608.914 46.4318 608.202 46.9318C607.497 47.4242 606.948 48.1288 606.554 49.0455C606.16 49.9545 605.963 51.0303 605.963 52.2727C605.963 53.5455 606.156 54.6439 606.543 55.5682C606.929 56.4924 607.474 57.2083 608.179 57.7159C608.891 58.2235 609.728 58.4773 610.69 58.4773C611.334 58.4773 611.918 58.3598 612.44 58.125C612.971 57.8826 613.414 57.5379 613.77 57.0909C614.134 56.6439 614.387 56.1061 614.531 55.4773H617.838C617.717 56.6061 617.349 57.6136 616.736 58.5C616.122 59.3864 615.3 60.0833 614.27 60.5909C613.247 61.0985 612.046 61.3523 610.668 61.3523Z" fill="white"/>
<path d="M992.364 61L984.545 50.5682H982.068V61H978.557V37.7273H982.068V47.5568H983.216L992.011 37.7273H996.295L986.989 48.1477L996.648 61H992.364ZM1005.7 61.3523C1004.06 61.3523 1002.63 60.9773 1001.41 60.2273C1000.2 59.4773 999.248 58.428 998.574 57.0795C997.9 55.7311 997.562 54.1553 997.562 52.3523C997.562 50.5417 997.9 48.9583 998.574 47.6023C999.248 46.2462 1000.2 45.1932 1001.41 44.4432C1002.63 43.6932 1004.06 43.3182 1005.7 43.3182C1007.34 43.3182 1008.76 43.6932 1009.98 44.4432C1011.2 45.1932 1012.15 46.2462 1012.82 47.6023C1013.5 48.9583 1013.84 50.5417 1013.84 52.3523C1013.84 54.1553 1013.5 55.7311 1012.82 57.0795C1012.15 58.428 1011.2 59.4773 1009.98 60.2273C1008.76 60.9773 1007.34 61.3523 1005.7 61.3523ZM1005.71 58.5C1006.77 58.5 1007.65 58.2197 1008.35 57.6591C1009.04 57.0985 1009.56 56.3523 1009.89 55.4205C1010.23 54.4886 1010.4 53.4621 1010.4 52.3409C1010.4 51.2273 1010.23 50.2045 1009.89 49.2727C1009.56 48.3333 1009.04 47.5795 1008.35 47.0114C1007.65 46.4432 1006.77 46.1591 1005.71 46.1591C1004.64 46.1591 1003.76 46.4432 1003.05 47.0114C1002.35 47.5795 1001.84 48.3333 1001.49 49.2727C1001.16 50.2045 1000.99 51.2273 1000.99 52.3409C1000.99 53.4621 1001.16 54.4886 1001.49 55.4205C1001.84 56.3523 1002.35 57.0985 1003.05 57.6591C1003.76 58.2197 1004.64 58.5 1005.71 58.5ZM1029.46 50.8068V53.75H1020V50.8068H1029.46ZM1020.96 43.5455V61H1017.63V43.5455H1020.96ZM1031.83 43.5455V61H1028.51V43.5455H1031.83ZM1034.21 46.4773V43.5455H1048.94V46.4773H1043.25V61H1039.93V46.4773H1034.21ZM1056.8 61.3864C1055.7 61.3864 1054.7 61.1818 1053.8 60.7727C1052.91 60.3561 1052.2 59.7538 1051.68 58.9659C1051.16 58.178 1050.9 57.2121 1050.9 56.0682C1050.9 55.0833 1051.09 54.2727 1051.47 53.6364C1051.85 53 1052.36 52.4962 1053.01 52.125C1053.65 51.7538 1054.37 51.4735 1055.16 51.2841C1055.96 51.0947 1056.77 50.9508 1057.6 50.8523C1058.64 50.7311 1059.49 50.6326 1060.14 50.5568C1060.79 50.4735 1061.27 50.3409 1061.56 50.1591C1061.86 49.9773 1062.01 49.6818 1062.01 49.2727V49.1932C1062.01 48.2008 1061.73 47.4318 1061.16 46.8864C1060.61 46.3409 1059.79 46.0682 1058.69 46.0682C1057.54 46.0682 1056.64 46.322 1055.98 46.8295C1055.33 47.3295 1054.88 47.8864 1054.63 48.5L1051.44 47.7727C1051.82 46.7121 1052.37 45.8561 1053.1 45.2045C1053.83 44.5455 1054.68 44.0682 1055.63 43.7727C1056.59 43.4697 1057.59 43.3182 1058.64 43.3182C1059.34 43.3182 1060.08 43.4015 1060.86 43.5682C1061.65 43.7273 1062.38 44.0227 1063.06 44.4545C1063.75 44.8864 1064.32 45.5038 1064.76 46.3068C1065.2 47.1023 1065.41 48.1364 1065.41 49.4091V61H1062.1V58.6136H1061.96C1061.74 59.053 1061.41 59.4848 1060.97 59.9091C1060.53 60.3333 1059.97 60.6856 1059.28 60.9659C1058.59 61.2462 1057.76 61.3864 1056.8 61.3864ZM1057.54 58.6591C1058.48 58.6591 1059.28 58.4735 1059.95 58.1023C1060.62 57.7311 1061.13 57.2462 1061.48 56.6477C1061.84 56.0417 1062.02 55.3939 1062.02 54.7045V52.4545C1061.9 52.5758 1061.66 52.6894 1061.31 52.7955C1060.97 52.8939 1060.58 52.9811 1060.14 53.0568C1059.7 53.125 1059.27 53.1894 1058.86 53.25C1058.44 53.303 1058.09 53.3485 1057.81 53.3864C1057.15 53.4697 1056.55 53.6098 1056.01 53.8068C1055.47 54.0038 1055.04 54.2879 1054.71 54.6591C1054.39 55.0227 1054.23 55.5076 1054.23 56.1136C1054.23 56.9545 1054.54 57.5909 1055.16 58.0227C1055.79 58.447 1056.58 58.6591 1057.54 58.6591ZM1069.94 61V43.5455H1073.34V50.8636H1074.97L1080.74 43.5455H1084.94L1078.18 52.0341L1085.02 61H1080.8L1075.54 54.0227H1073.34V61H1069.94ZM1086.68 46.4773V43.5455H1101.41V46.4773H1095.72V61H1092.4V46.4773H1086.68ZM1107.56 49.5455H1112.63C1114.76 49.5455 1116.41 50.0758 1117.56 51.1364C1118.71 52.197 1119.29 53.5644 1119.29 55.2386C1119.29 56.3295 1119.03 57.3106 1118.51 58.1818C1118 59.053 1117.25 59.7424 1116.25 60.25C1115.26 60.75 1114.05 61 1112.63 61H1105V43.5455H1108.33V58.0682H1112.63C1113.61 58.0682 1114.41 57.8144 1115.04 57.3068C1115.67 56.7917 1115.98 56.1364 1115.98 55.3409C1115.98 54.5 1115.67 53.8144 1115.04 53.2841C1114.41 52.7462 1113.61 52.4773 1112.63 52.4773H1107.56V49.5455ZM1121.76 61V43.5455H1125.16V61H1121.76Z" fill="white"/>
<path d="M835.773 49.3636C835.773 51.8485 835.318 53.9848 834.409 55.7727C833.5 57.553 832.254 58.9242 830.67 59.8864C829.095 60.8409 827.303 61.3182 825.295 61.3182C823.28 61.3182 821.481 60.8409 819.898 59.8864C818.322 58.9242 817.08 57.5492 816.17 55.7614C815.261 53.9735 814.807 51.8409 814.807 49.3636C814.807 46.8788 815.261 44.7462 816.17 42.9659C817.08 41.178 818.322 39.8068 819.898 38.8523C821.481 37.8902 823.28 37.4091 825.295 37.4091C827.303 37.4091 829.095 37.8902 830.67 38.8523C832.254 39.8068 833.5 41.178 834.409 42.9659C835.318 44.7462 835.773 46.8788 835.773 49.3636ZM832.295 49.3636C832.295 47.4697 831.989 45.875 831.375 44.5795C830.769 43.2765 829.936 42.2917 828.875 41.625C827.822 40.9508 826.629 40.6136 825.295 40.6136C823.955 40.6136 822.758 40.9508 821.705 41.625C820.652 42.2917 819.818 43.2765 819.205 44.5795C818.598 45.875 818.295 47.4697 818.295 49.3636C818.295 51.2576 818.598 52.8561 819.205 54.1591C819.818 55.4545 820.652 56.4394 821.705 57.1136C822.758 57.7803 823.955 58.1136 825.295 58.1136C826.629 58.1136 827.822 57.7803 828.875 57.1136C829.936 56.4394 830.769 55.4545 831.375 54.1591C831.989 52.8561 832.295 51.2576 832.295 49.3636ZM838.901 46.4773V43.5455H853.628V46.4773H847.935V61H844.616V46.4773H838.901ZM856.188 56.3864H859.665C859.71 57.0985 860.032 57.6477 860.631 58.0341C861.237 58.4205 862.021 58.6136 862.983 58.6136C863.96 58.6136 864.794 58.4053 865.483 57.9886C866.172 57.5644 866.517 56.9091 866.517 56.0227C866.517 55.4924 866.384 55.0303 866.119 54.6364C865.862 54.2348 865.494 53.9242 865.017 53.7045C864.547 53.4848 863.991 53.375 863.347 53.375H860.506V50.7045H863.347C864.309 50.7045 865.028 50.4848 865.506 50.0455C865.983 49.6061 866.222 49.0568 866.222 48.3977C866.222 47.6856 865.964 47.1136 865.449 46.6818C864.941 46.2424 864.233 46.0227 863.324 46.0227C862.4 46.0227 861.631 46.2311 861.017 46.6477C860.403 47.0568 860.081 47.5871 860.051 48.2386H856.619C856.642 47.2614 856.938 46.4053 857.506 45.6705C858.081 44.928 858.854 44.3523 859.824 43.9432C860.801 43.5265 861.911 43.3182 863.153 43.3182C864.449 43.3182 865.57 43.5265 866.517 43.9432C867.464 44.3598 868.195 44.9356 868.71 45.6705C869.233 46.4053 869.494 47.25 869.494 48.2045C869.494 49.1667 869.206 49.9545 868.631 50.5682C868.062 51.1742 867.32 51.6098 866.403 51.875V52.0568C867.078 52.1023 867.676 52.3068 868.199 52.6705C868.722 53.0341 869.131 53.5152 869.426 54.1136C869.722 54.7121 869.869 55.3902 869.869 56.1477C869.869 57.2159 869.574 58.1402 868.983 58.9205C868.4 59.7008 867.589 60.303 866.551 60.7273C865.521 61.1439 864.343 61.3523 863.017 61.3523C861.729 61.3523 860.574 61.1515 859.551 60.75C858.536 60.3409 857.729 59.7652 857.131 59.0227C856.54 58.2803 856.225 57.4015 856.188 56.3864ZM875.935 49.5455H881.003C883.139 49.5455 884.783 50.0758 885.935 51.1364C887.086 52.197 887.662 53.5644 887.662 55.2386C887.662 56.3295 887.404 57.3106 886.889 58.1818C886.374 59.053 885.62 59.7424 884.628 60.25C883.635 60.75 882.427 61 881.003 61H873.378V43.5455H876.707V58.0682H881.003C881.98 58.0682 882.783 57.8144 883.412 57.3068C884.041 56.7917 884.355 56.1364 884.355 55.3409C884.355 54.5 884.041 53.8144 883.412 53.2841C882.783 52.7462 881.98 52.4773 881.003 52.4773H875.935V49.5455ZM890.139 61V43.5455H893.537V61H890.139ZM898.097 61V43.5455H905.335C907.305 43.5455 908.866 43.9659 910.017 44.8068C911.169 45.6402 911.744 46.7727 911.744 48.2045C911.744 49.2273 911.419 50.0379 910.767 50.6364C910.116 51.2348 909.252 51.6364 908.176 51.8409C908.956 51.9318 909.672 52.1667 910.324 52.5455C910.975 52.9167 911.498 53.4167 911.892 54.0455C912.294 54.6742 912.494 55.4242 912.494 56.2955C912.494 57.2197 912.256 58.0379 911.778 58.75C911.301 59.4545 910.608 60.0076 909.699 60.4091C908.797 60.803 907.71 61 906.438 61H898.097ZM901.29 58.1591H906.438C907.278 58.1591 907.938 57.9583 908.415 57.5568C908.892 57.1553 909.131 56.6098 909.131 55.9205C909.131 55.1098 908.892 54.4735 908.415 54.0114C907.938 53.5417 907.278 53.3068 906.438 53.3068H901.29V58.1591ZM901.29 50.8182H905.369C906.006 50.8182 906.551 50.7273 907.006 50.5455C907.468 50.3636 907.82 50.1061 908.062 49.7727C908.312 49.4318 908.438 49.0303 908.438 48.5682C908.438 47.8939 908.161 47.3674 907.608 46.9886C907.055 46.6098 906.297 46.4205 905.335 46.4205H901.29V50.8182ZM918.778 49.5455H923.847C925.983 49.5455 927.627 50.0758 928.778 51.1364C929.93 52.197 930.506 53.5644 930.506 55.2386C930.506 56.3295 930.248 57.3106 929.733 58.1818C929.218 59.053 928.464 59.7424 927.472 60.25C926.479 60.75 925.271 61 923.847 61H916.222V43.5455H919.551V58.0682H923.847C924.824 58.0682 925.627 57.8144 926.256 57.3068C926.884 56.7917 927.199 56.1364 927.199 55.3409C927.199 54.5 926.884 53.8144 926.256 53.2841C925.627 52.7462 924.824 52.4773 923.847 52.4773H918.778V49.5455ZM932.983 61V43.5455H936.381V61H932.983Z" fill="white"/>
<path d="M658.409 40.75V37.7273H676.42V40.75H669.159V61H665.659V40.75H658.409ZM684.949 61.3523C683.313 61.3523 681.884 60.9773 680.665 60.2273C679.445 59.4773 678.498 58.428 677.824 57.0795C677.15 55.7311 676.812 54.1553 676.812 52.3523C676.812 50.5417 677.15 48.9583 677.824 47.6023C678.498 46.2462 679.445 45.1932 680.665 44.4432C681.884 43.6932 683.313 43.3182 684.949 43.3182C686.585 43.3182 688.013 43.6932 689.233 44.4432C690.453 45.1932 691.4 46.2462 692.074 47.6023C692.748 48.9583 693.085 50.5417 693.085 52.3523C693.085 54.1553 692.748 55.7311 692.074 57.0795C691.4 58.428 690.453 59.4773 689.233 60.2273C688.013 60.9773 686.585 61.3523 684.949 61.3523ZM684.96 58.5C686.021 58.5 686.9 58.2197 687.597 57.6591C688.294 57.0985 688.809 56.3523 689.142 55.4205C689.483 54.4886 689.653 53.4621 689.653 52.3409C689.653 51.2273 689.483 50.2045 689.142 49.2727C688.809 48.3333 688.294 47.5795 687.597 47.0114C686.9 46.4432 686.021 46.1591 684.96 46.1591C683.892 46.1591 683.006 46.4432 682.301 47.0114C681.604 47.5795 681.085 48.3333 680.744 49.2727C680.411 50.2045 680.244 51.2273 680.244 52.3409C680.244 53.4621 680.411 54.4886 680.744 55.4205C681.085 56.3523 681.604 57.0985 682.301 57.6591C683.006 58.2197 683.892 58.5 684.96 58.5ZM696.878 61V43.5455H704.116C706.086 43.5455 707.647 43.9659 708.798 44.8068C709.95 45.6402 710.526 46.7727 710.526 48.2045C710.526 49.2273 710.2 50.0379 709.548 50.6364C708.897 51.2348 708.033 51.6364 706.957 51.8409C707.738 51.9318 708.454 52.1667 709.105 52.5455C709.757 52.9167 710.279 53.4167 710.673 54.0455C711.075 54.6742 711.276 55.4242 711.276 56.2955C711.276 57.2197 711.037 58.0379 710.56 58.75C710.082 59.4545 709.389 60.0076 708.48 60.4091C707.579 60.803 706.491 61 705.219 61H696.878ZM700.071 58.1591H705.219C706.06 58.1591 706.719 57.9583 707.196 57.5568C707.673 57.1553 707.912 56.6098 707.912 55.9205C707.912 55.1098 707.673 54.4735 707.196 54.0114C706.719 53.5417 706.06 53.3068 705.219 53.3068H700.071V58.1591ZM700.071 50.8182H704.151C704.787 50.8182 705.332 50.7273 705.787 50.5455C706.249 50.3636 706.601 50.1061 706.844 49.7727C707.094 49.4318 707.219 49.0303 707.219 48.5682C707.219 47.8939 706.942 47.3674 706.389 46.9886C705.836 46.6098 705.079 46.4205 704.116 46.4205H700.071V50.8182ZM720.082 61.3864C718.976 61.3864 717.976 61.1818 717.082 60.7727C716.188 60.3561 715.48 59.7538 714.957 58.9659C714.442 58.178 714.185 57.2121 714.185 56.0682C714.185 55.0833 714.374 54.2727 714.753 53.6364C715.132 53 715.643 52.4962 716.287 52.125C716.931 51.7538 717.651 51.4735 718.446 51.2841C719.241 51.0947 720.052 50.9508 720.878 50.8523C721.923 50.7311 722.772 50.6326 723.423 50.5568C724.075 50.4735 724.548 50.3409 724.844 50.1591C725.139 49.9773 725.287 49.6818 725.287 49.2727V49.1932C725.287 48.2008 725.007 47.4318 724.446 46.8864C723.893 46.3409 723.067 46.0682 721.969 46.0682C720.825 46.0682 719.923 46.322 719.264 46.8295C718.613 47.3295 718.162 47.8864 717.912 48.5L714.719 47.7727C715.098 46.7121 715.651 45.8561 716.378 45.2045C717.113 44.5455 717.957 44.0682 718.912 43.7727C719.866 43.4697 720.87 43.3182 721.923 43.3182C722.62 43.3182 723.359 43.4015 724.139 43.5682C724.927 43.7273 725.662 44.0227 726.344 44.4545C727.033 44.8864 727.598 45.5038 728.037 46.3068C728.476 47.1023 728.696 48.1364 728.696 49.4091V61H725.378V58.6136H725.241C725.022 59.053 724.692 59.4848 724.253 59.9091C723.813 60.3333 723.249 60.6856 722.56 60.9659C721.87 61.2462 721.045 61.3864 720.082 61.3864ZM720.821 58.6591C721.76 58.6591 722.563 58.4735 723.23 58.1023C723.904 57.7311 724.416 57.2462 724.764 56.6477C725.12 56.0417 725.298 55.3939 725.298 54.7045V52.4545C725.177 52.5758 724.942 52.6894 724.594 52.7955C724.253 52.8939 723.863 52.9811 723.423 53.0568C722.984 53.125 722.556 53.1894 722.139 53.25C721.723 53.303 721.374 53.3485 721.094 53.3864C720.435 53.4697 719.832 53.6098 719.287 53.8068C718.749 54.0038 718.317 54.2879 717.991 54.6591C717.673 55.0227 717.514 55.5076 717.514 56.1136C717.514 56.9545 717.825 57.5909 718.446 58.0227C719.067 58.447 719.859 58.6591 720.821 58.6591ZM733.222 67.5455V43.5455H736.54V46.375H736.824C737.021 46.0114 737.305 45.5909 737.676 45.1136C738.047 44.6364 738.563 44.2197 739.222 43.8636C739.881 43.5 740.752 43.3182 741.835 43.3182C743.244 43.3182 744.502 43.6742 745.608 44.3864C746.714 45.0985 747.581 46.125 748.21 47.4659C748.847 48.8068 749.165 50.4205 749.165 52.3068C749.165 54.1932 748.85 55.8106 748.222 57.1591C747.593 58.5 746.729 59.5341 745.631 60.2614C744.532 60.9811 743.278 61.3409 741.869 61.3409C740.809 61.3409 739.941 61.1629 739.267 60.8068C738.6 60.4508 738.078 60.0341 737.699 59.5568C737.32 59.0795 737.028 58.6553 736.824 58.2841H736.619V67.5455H733.222ZM736.551 52.2727C736.551 53.5 736.729 54.5758 737.085 55.5C737.441 56.4242 737.956 57.1477 738.631 57.6705C739.305 58.1856 740.131 58.4432 741.108 58.4432C742.123 58.4432 742.972 58.1742 743.653 57.6364C744.335 57.0909 744.85 56.3523 745.199 55.4205C745.555 54.4886 745.733 53.4394 745.733 52.2727C745.733 51.1212 745.559 50.0871 745.21 49.1705C744.869 48.2538 744.354 47.5303 743.665 47C742.983 46.4697 742.131 46.2045 741.108 46.2045C740.123 46.2045 739.29 46.4583 738.608 46.9659C737.934 47.4735 737.422 48.1818 737.074 49.0909C736.725 50 736.551 51.0606 736.551 52.2727ZM755.528 49.5455H760.597C762.733 49.5455 764.377 50.0758 765.528 51.1364C766.68 52.197 767.256 53.5644 767.256 55.2386C767.256 56.3295 766.998 57.3106 766.483 58.1818C765.968 59.053 765.214 59.7424 764.222 60.25C763.229 60.75 762.021 61 760.597 61H752.972V43.5455H756.301V58.0682H760.597C761.574 58.0682 762.377 57.8144 763.006 57.3068C763.634 56.7917 763.949 56.1364 763.949 55.3409C763.949 54.5 763.634 53.8144 763.006 53.2841C762.377 52.7462 761.574 52.4773 760.597 52.4773H755.528V49.5455ZM769.733 61V43.5455H773.131V61H769.733Z" fill="white"/>
<path d="M347.224 375H342.997C342.747 373.784 342.31 372.716 341.685 371.795C341.071 370.875 340.321 370.102 339.435 369.477C338.56 368.841 337.588 368.364 336.52 368.045C335.452 367.727 334.338 367.568 333.179 367.568C331.065 367.568 329.151 368.102 327.435 369.17C325.73 370.239 324.372 371.812 323.361 373.892C322.361 375.972 321.861 378.523 321.861 381.545C321.861 384.568 322.361 387.119 323.361 389.199C324.372 391.278 325.73 392.852 327.435 393.92C329.151 394.989 331.065 395.523 333.179 395.523C334.338 395.523 335.452 395.364 336.52 395.045C337.588 394.727 338.56 394.256 339.435 393.631C340.321 392.994 341.071 392.216 341.685 391.295C342.31 390.364 342.747 389.295 342.997 388.091H347.224C346.906 389.875 346.327 391.472 345.486 392.881C344.645 394.29 343.599 395.489 342.349 396.477C341.099 397.455 339.696 398.199 338.139 398.71C336.594 399.222 334.94 399.477 333.179 399.477C330.202 399.477 327.554 398.75 325.236 397.295C322.918 395.841 321.094 393.773 319.764 391.091C318.435 388.409 317.77 385.227 317.77 381.545C317.77 377.864 318.435 374.682 319.764 372C321.094 369.318 322.918 367.25 325.236 365.795C327.554 364.341 330.202 363.614 333.179 363.614C334.94 363.614 336.594 363.869 338.139 364.381C339.696 364.892 341.099 365.642 342.349 366.631C343.599 367.608 344.645 368.801 345.486 370.21C346.327 371.608 346.906 373.205 347.224 375ZM361.214 399.614C359.555 399.614 358.05 399.301 356.697 398.676C355.345 398.04 354.271 397.125 353.476 395.932C352.68 394.727 352.283 393.273 352.283 391.568C352.283 390.068 352.578 388.852 353.169 387.92C353.76 386.977 354.55 386.239 355.538 385.705C356.527 385.17 357.618 384.773 358.811 384.511C360.016 384.239 361.226 384.023 362.442 383.864C364.033 383.659 365.322 383.506 366.311 383.403C367.311 383.29 368.038 383.102 368.493 382.841C368.959 382.58 369.192 382.125 369.192 381.477V381.341C369.192 379.659 368.732 378.352 367.811 377.42C366.902 376.489 365.521 376.023 363.669 376.023C361.749 376.023 360.243 376.443 359.152 377.284C358.061 378.125 357.294 379.023 356.851 379.977L353.033 378.614C353.714 377.023 354.624 375.784 355.76 374.898C356.908 374 358.158 373.375 359.51 373.023C360.874 372.659 362.214 372.477 363.533 372.477C364.374 372.477 365.339 372.58 366.43 372.784C367.533 372.977 368.595 373.381 369.618 373.994C370.652 374.608 371.51 375.534 372.192 376.773C372.874 378.011 373.214 379.67 373.214 381.75V399H369.192V395.455H368.987C368.714 396.023 368.26 396.631 367.624 397.278C366.987 397.926 366.141 398.477 365.084 398.932C364.027 399.386 362.737 399.614 361.214 399.614ZM361.828 396C363.419 396 364.76 395.688 365.851 395.062C366.953 394.438 367.783 393.631 368.339 392.642C368.908 391.653 369.192 390.614 369.192 389.523V385.841C369.021 386.045 368.646 386.233 368.067 386.403C367.499 386.562 366.839 386.705 366.089 386.83C365.351 386.943 364.629 387.045 363.925 387.136C363.232 387.216 362.669 387.284 362.237 387.341C361.192 387.477 360.214 387.699 359.305 388.006C358.408 388.301 357.68 388.75 357.124 389.352C356.578 389.943 356.305 390.75 356.305 391.773C356.305 393.17 356.822 394.227 357.857 394.943C358.902 395.648 360.226 396 361.828 396ZM394.875 393.545L404.011 372.818H407.83L396.511 399H393.239L382.125 372.818H385.875L394.875 393.545ZM384.58 372.818V399H380.557V372.818H384.58ZM405.17 399V372.818H409.193V399H405.17ZM420.034 382.295H427.534C430.602 382.295 432.949 383.074 434.574 384.631C436.199 386.187 437.011 388.159 437.011 390.545C437.011 392.114 436.648 393.54 435.92 394.824C435.193 396.097 434.125 397.114 432.716 397.875C431.307 398.625 429.58 399 427.534 399H416.557V372.818H420.58V395.25H427.534C429.125 395.25 430.432 394.83 431.455 393.989C432.477 393.148 432.989 392.068 432.989 390.75C432.989 389.364 432.477 388.233 431.455 387.358C430.432 386.483 429.125 386.045 427.534 386.045H420.034V382.295ZM441.17 399V372.818H445.193V399H441.17ZM463.534 399.545C461.011 399.545 458.835 398.989 457.006 397.875C455.188 396.75 453.784 395.182 452.795 393.17C451.818 391.148 451.33 388.795 451.33 386.114C451.33 383.432 451.818 381.068 452.795 379.023C453.784 376.966 455.159 375.364 456.92 374.216C458.693 373.057 460.761 372.477 463.125 372.477C464.489 372.477 465.835 372.705 467.165 373.159C468.494 373.614 469.705 374.352 470.795 375.375C471.886 376.386 472.756 377.727 473.403 379.398C474.051 381.068 474.375 383.125 474.375 385.568V387.273H454.193V383.795H470.284C470.284 382.318 469.989 381 469.398 379.841C468.818 378.682 467.989 377.767 466.909 377.097C465.841 376.426 464.58 376.091 463.125 376.091C461.523 376.091 460.136 376.489 458.966 377.284C457.807 378.068 456.915 379.091 456.29 380.352C455.665 381.614 455.352 382.966 455.352 384.409V386.727C455.352 388.705 455.693 390.381 456.375 391.756C457.068 393.119 458.028 394.159 459.256 394.875C460.483 395.58 461.909 395.932 463.534 395.932C464.591 395.932 465.545 395.784 466.398 395.489C467.261 395.182 468.006 394.727 468.631 394.125C469.256 393.511 469.739 392.75 470.08 391.841L473.966 392.932C473.557 394.25 472.869 395.409 471.903 396.409C470.938 397.398 469.744 398.17 468.324 398.727C466.903 399.273 465.307 399.545 463.534 399.545ZM493.994 399V372.818H498.017V384.205H500.676L510.085 372.818H515.267L504.699 385.432L515.403 399H510.222L501.631 387.955H498.017V399H493.994ZM517.457 399V395.25H518.412C519.196 395.25 519.849 395.097 520.372 394.79C520.895 394.472 521.315 393.92 521.634 393.136C521.963 392.341 522.213 391.239 522.384 389.83C522.565 388.409 522.696 386.602 522.776 384.409L523.253 372.818H540.707V399H536.685V376.568H527.071L526.662 385.909C526.571 388.057 526.378 389.949 526.082 391.585C525.798 393.21 525.361 394.574 524.77 395.676C524.19 396.778 523.418 397.608 522.452 398.165C521.486 398.722 520.276 399 518.821 399H517.457ZM555.793 399.614C554.134 399.614 552.628 399.301 551.276 398.676C549.923 398.04 548.849 397.125 548.054 395.932C547.259 394.727 546.861 393.273 546.861 391.568C546.861 390.068 547.156 388.852 547.747 387.92C548.338 386.977 549.128 386.239 550.116 385.705C551.105 385.17 552.196 384.773 553.389 384.511C554.594 384.239 555.804 384.023 557.02 383.864C558.611 383.659 559.901 383.506 560.889 383.403C561.889 383.29 562.616 383.102 563.071 382.841C563.537 382.58 563.77 382.125 563.77 381.477V381.341C563.77 379.659 563.31 378.352 562.389 377.42C561.48 376.489 560.099 376.023 558.247 376.023C556.327 376.023 554.821 376.443 553.73 377.284C552.639 378.125 551.872 379.023 551.429 379.977L547.611 378.614C548.293 377.023 549.202 375.784 550.338 374.898C551.486 374 552.736 373.375 554.088 373.023C555.452 372.659 556.793 372.477 558.111 372.477C558.952 372.477 559.918 372.58 561.009 372.784C562.111 372.977 563.173 373.381 564.196 373.994C565.23 374.608 566.088 375.534 566.77 376.773C567.452 378.011 567.793 379.67 567.793 381.75V399H563.77V395.455H563.565C563.293 396.023 562.838 396.631 562.202 397.278C561.565 397.926 560.719 398.477 559.662 398.932C558.605 399.386 557.315 399.614 555.793 399.614ZM556.406 396C557.997 396 559.338 395.688 560.429 395.062C561.531 394.438 562.361 393.631 562.918 392.642C563.486 391.653 563.77 390.614 563.77 389.523V385.841C563.599 386.045 563.224 386.233 562.645 386.403C562.077 386.562 561.418 386.705 560.668 386.83C559.929 386.943 559.207 387.045 558.503 387.136C557.81 387.216 557.247 387.284 556.815 387.341C555.77 387.477 554.793 387.699 553.884 388.006C552.986 388.301 552.259 388.75 551.702 389.352C551.156 389.943 550.884 390.75 550.884 391.773C550.884 393.17 551.401 394.227 552.435 394.943C553.48 395.648 554.804 396 556.406 396ZM585.771 399.545C583.317 399.545 581.203 398.966 579.43 397.807C577.658 396.648 576.294 395.051 575.339 393.017C574.385 390.983 573.908 388.659 573.908 386.045C573.908 383.386 574.396 381.04 575.374 379.006C576.362 376.96 577.737 375.364 579.499 374.216C581.271 373.057 583.339 372.477 585.703 372.477C587.544 372.477 589.203 372.818 590.68 373.5C592.158 374.182 593.368 375.136 594.311 376.364C595.254 377.591 595.839 379.023 596.067 380.659H592.044C591.737 379.466 591.055 378.409 589.999 377.489C588.953 376.557 587.544 376.091 585.771 376.091C584.203 376.091 582.828 376.5 581.646 377.318C580.476 378.125 579.561 379.267 578.902 380.744C578.254 382.21 577.93 383.932 577.93 385.909C577.93 387.932 578.249 389.693 578.885 391.193C579.533 392.693 580.442 393.858 581.612 394.688C582.794 395.517 584.18 395.932 585.771 395.932C586.817 395.932 587.766 395.75 588.618 395.386C589.47 395.023 590.192 394.5 590.783 393.818C591.374 393.136 591.794 392.318 592.044 391.364H596.067C595.839 392.909 595.277 394.301 594.379 395.54C593.493 396.767 592.317 397.744 590.851 398.472C589.396 399.188 587.703 399.545 585.771 399.545ZM612.584 399.545C610.129 399.545 608.016 398.966 606.243 397.807C604.47 396.648 603.107 395.051 602.152 393.017C601.197 390.983 600.72 388.659 600.72 386.045C600.72 383.386 601.209 381.04 602.186 379.006C603.175 376.96 604.55 375.364 606.311 374.216C608.084 373.057 610.152 372.477 612.516 372.477C614.357 372.477 616.016 372.818 617.493 373.5C618.97 374.182 620.18 375.136 621.124 376.364C622.067 377.591 622.652 379.023 622.879 380.659H618.857C618.55 379.466 617.868 378.409 616.811 377.489C615.766 376.557 614.357 376.091 612.584 376.091C611.016 376.091 609.641 376.5 608.459 377.318C607.288 378.125 606.374 379.267 605.714 380.744C605.067 382.21 604.743 383.932 604.743 385.909C604.743 387.932 605.061 389.693 605.697 391.193C606.345 392.693 607.254 393.858 608.425 394.688C609.607 395.517 610.993 395.932 612.584 395.932C613.629 395.932 614.578 395.75 615.43 395.386C616.283 395.023 617.004 394.5 617.595 393.818C618.186 393.136 618.607 392.318 618.857 391.364H622.879C622.652 392.909 622.089 394.301 621.192 395.54C620.305 396.767 619.129 397.744 617.663 398.472C616.209 399.188 614.516 399.545 612.584 399.545ZM646.283 384.068V387.818H631.828V384.068H646.283ZM632.783 372.818V399H628.76V372.818H632.783ZM649.351 372.818V399H645.328V372.818H649.351ZM660.175 382.295H667.675C670.743 382.295 673.089 383.074 674.714 384.631C676.339 386.187 677.152 388.159 677.152 390.545C677.152 392.114 676.788 393.54 676.061 394.824C675.334 396.097 674.266 397.114 672.857 397.875C671.447 398.625 669.72 399 667.675 399H656.697V372.818H660.72V395.25H667.675C669.266 395.25 670.572 394.83 671.595 393.989C672.618 393.148 673.129 392.068 673.129 390.75C673.129 389.364 672.618 388.233 671.595 387.358C670.572 386.483 669.266 386.045 667.675 386.045H660.175V382.295ZM681.311 399V372.818H685.334V399H681.311ZM703.675 399.545C701.152 399.545 698.976 398.989 697.146 397.875C695.328 396.75 693.925 395.182 692.936 393.17C691.959 391.148 691.47 388.795 691.47 386.114C691.47 383.432 691.959 381.068 692.936 379.023C693.925 376.966 695.3 375.364 697.061 374.216C698.834 373.057 700.902 372.477 703.266 372.477C704.629 372.477 705.976 372.705 707.305 373.159C708.635 373.614 709.845 374.352 710.936 375.375C712.027 376.386 712.896 377.727 713.544 379.398C714.192 381.068 714.516 383.125 714.516 385.568V387.273H694.334V383.795H710.425C710.425 382.318 710.129 381 709.538 379.841C708.959 378.682 708.129 377.767 707.05 377.097C705.982 376.426 704.72 376.091 703.266 376.091C701.663 376.091 700.277 376.489 699.107 377.284C697.947 378.068 697.055 379.091 696.43 380.352C695.805 381.614 695.493 382.966 695.493 384.409V386.727C695.493 388.705 695.834 390.381 696.516 391.756C697.209 393.119 698.169 394.159 699.396 394.875C700.624 395.58 702.05 395.932 703.675 395.932C704.732 395.932 705.686 395.784 706.538 395.489C707.402 395.182 708.146 394.727 708.771 394.125C709.396 393.511 709.879 392.75 710.22 391.841L714.107 392.932C713.697 394.25 713.01 395.409 712.044 396.409C711.078 397.398 709.885 398.17 708.464 398.727C707.044 399.273 705.447 399.545 703.675 399.545ZM732.499 392.318H736.794C736.885 393.5 737.419 394.398 738.396 395.011C739.385 395.625 740.669 395.932 742.249 395.932C743.862 395.932 745.243 395.602 746.391 394.943C747.538 394.273 748.112 393.193 748.112 391.705C748.112 390.83 747.896 390.068 747.464 389.42C747.033 388.761 746.425 388.25 745.641 387.886C744.857 387.523 743.93 387.341 742.862 387.341H738.362V383.727H742.862C744.464 383.727 745.646 383.364 746.408 382.636C747.18 381.909 747.567 381 747.567 379.909C747.567 378.739 747.152 377.801 746.322 377.097C745.493 376.381 744.317 376.023 742.794 376.023C741.26 376.023 739.982 376.369 738.959 377.062C737.936 377.744 737.396 378.625 737.339 379.705H733.112C733.158 378.295 733.589 377.051 734.408 375.972C735.226 374.881 736.339 374.028 737.749 373.415C739.158 372.79 740.771 372.477 742.589 372.477C744.43 372.477 746.027 372.801 747.379 373.449C748.743 374.085 749.794 374.955 750.533 376.057C751.283 377.148 751.658 378.386 751.658 379.773C751.658 381.25 751.243 382.443 750.413 383.352C749.584 384.261 748.544 384.909 747.294 385.295V385.568C748.283 385.636 749.141 385.955 749.868 386.523C750.607 387.08 751.18 387.812 751.589 388.722C751.999 389.619 752.203 390.614 752.203 391.705C752.203 393.295 751.777 394.682 750.925 395.864C750.072 397.034 748.902 397.943 747.413 398.591C745.925 399.227 744.226 399.545 742.317 399.545C740.464 399.545 738.805 399.244 737.339 398.642C735.874 398.028 734.709 397.182 733.845 396.102C732.993 395.011 732.544 393.75 732.499 392.318ZM768.831 399.545C766.308 399.545 764.132 398.989 762.303 397.875C760.484 396.75 759.081 395.182 758.092 393.17C757.115 391.148 756.626 388.795 756.626 386.114C756.626 383.432 757.115 381.068 758.092 379.023C759.081 376.966 760.456 375.364 762.217 374.216C763.99 373.057 766.058 372.477 768.422 372.477C769.786 372.477 771.132 372.705 772.462 373.159C773.791 373.614 775.001 374.352 776.092 375.375C777.183 376.386 778.053 377.727 778.7 379.398C779.348 381.068 779.672 383.125 779.672 385.568V387.273H759.49V383.795H775.581C775.581 382.318 775.286 381 774.695 379.841C774.115 378.682 773.286 377.767 772.206 377.097C771.138 376.426 769.876 376.091 768.422 376.091C766.82 376.091 765.433 376.489 764.263 377.284C763.104 378.068 762.212 379.091 761.587 380.352C760.962 381.614 760.649 382.966 760.649 384.409V386.727C760.649 388.705 760.99 390.381 761.672 391.756C762.365 393.119 763.325 394.159 764.553 394.875C765.78 395.58 767.206 395.932 768.831 395.932C769.888 395.932 770.842 395.784 771.695 395.489C772.558 395.182 773.303 394.727 773.928 394.125C774.553 393.511 775.036 392.75 775.376 391.841L779.263 392.932C778.854 394.25 778.166 395.409 777.2 396.409C776.234 397.398 775.041 398.17 773.621 398.727C772.2 399.273 770.604 399.545 768.831 399.545ZM796.428 407.932V364.091H800.45V407.932H796.428ZM796.428 399.545C794.655 399.545 793.041 399.227 791.587 398.591C790.132 397.943 788.882 397.028 787.837 395.847C786.791 394.653 785.984 393.227 785.416 391.568C784.848 389.909 784.564 388.068 784.564 386.045C784.564 384 784.848 382.148 785.416 380.489C785.984 378.818 786.791 377.386 787.837 376.193C788.882 375 790.132 374.085 791.587 373.449C793.041 372.801 794.655 372.477 796.428 372.477H797.655V399.545H796.428ZM796.428 395.932H797.109V376.091H796.428C795.087 376.091 793.922 376.364 792.933 376.909C791.945 377.443 791.126 378.176 790.479 379.108C789.842 380.028 789.365 381.085 789.047 382.278C788.74 383.472 788.587 384.727 788.587 386.045C788.587 387.795 788.865 389.42 789.422 390.92C789.979 392.42 790.837 393.631 791.996 394.551C793.155 395.472 794.632 395.932 796.428 395.932ZM800.45 399.545H799.223V372.477H800.45C802.223 372.477 803.837 372.801 805.291 373.449C806.746 374.085 807.996 375 809.041 376.193C810.087 377.386 810.893 378.818 811.462 380.489C812.03 382.148 812.314 384 812.314 386.045C812.314 388.068 812.03 389.909 811.462 391.568C810.893 393.227 810.087 394.653 809.041 395.847C807.996 397.028 806.746 397.943 805.291 398.591C803.837 399.227 802.223 399.545 800.45 399.545ZM800.45 395.932C801.803 395.932 802.967 395.67 803.945 395.148C804.933 394.614 805.746 393.886 806.382 392.966C807.03 392.034 807.507 390.977 807.814 389.795C808.132 388.602 808.291 387.352 808.291 386.045C808.291 384.295 808.013 382.665 807.456 381.153C806.899 379.642 806.041 378.42 804.882 377.489C803.723 376.557 802.246 376.091 800.45 376.091H799.768V395.932H800.45ZM822.486 393.068L835.099 372.818H839.736V399H835.713V378.75L823.168 399H818.463V372.818H822.486V393.068ZM847.104 408.818V372.818H850.99V376.977H851.467C851.763 376.523 852.172 375.943 852.695 375.239C853.229 374.523 853.99 373.886 854.979 373.33C855.979 372.761 857.331 372.477 859.036 372.477C861.24 372.477 863.183 373.028 864.865 374.131C866.547 375.233 867.859 376.795 868.803 378.818C869.746 380.841 870.217 383.227 870.217 385.977C870.217 388.75 869.746 391.153 868.803 393.188C867.859 395.21 866.553 396.778 864.882 397.892C863.212 398.994 861.286 399.545 859.104 399.545C857.422 399.545 856.075 399.267 855.064 398.71C854.053 398.142 853.274 397.5 852.729 396.784C852.183 396.057 851.763 395.455 851.467 394.977H851.126V408.818H847.104ZM851.058 385.909C851.058 387.886 851.348 389.631 851.928 391.142C852.507 392.642 853.354 393.818 854.467 394.67C855.581 395.511 856.945 395.932 858.558 395.932C860.24 395.932 861.643 395.489 862.768 394.602C863.905 393.705 864.757 392.5 865.325 390.989C865.905 389.466 866.195 387.773 866.195 385.909C866.195 384.068 865.911 382.409 865.342 380.932C864.786 379.443 863.939 378.267 862.803 377.403C861.678 376.528 860.263 376.091 858.558 376.091C856.922 376.091 855.547 376.506 854.433 377.335C853.32 378.153 852.479 379.301 851.911 380.778C851.342 382.244 851.058 383.955 851.058 385.909ZM876.354 399V372.818H880.376V384.205H883.036L892.445 372.818H897.626L887.058 385.432L897.763 399H892.581L883.99 387.955H880.376V399H876.354ZM906.158 393.068L918.771 372.818H923.408V399H919.385V378.75L906.839 399H902.135V372.818H906.158V393.068ZM536.862 457V430.818H547.566C550.384 430.818 552.623 431.455 554.282 432.727C555.941 434 556.771 435.682 556.771 437.773C556.771 439.364 556.299 440.597 555.356 441.472C554.413 442.335 553.202 442.92 551.725 443.227C552.691 443.364 553.629 443.705 554.538 444.25C555.458 444.795 556.219 445.545 556.822 446.5C557.424 447.443 557.725 448.602 557.725 449.977C557.725 451.318 557.384 452.517 556.702 453.574C556.021 454.631 555.043 455.466 553.771 456.08C552.498 456.693 550.975 457 549.202 457H536.862ZM540.68 453.318H549.202C550.589 453.318 551.674 452.989 552.458 452.33C553.242 451.67 553.634 450.773 553.634 449.636C553.634 448.284 553.242 447.222 552.458 446.449C551.674 445.665 550.589 445.273 549.202 445.273H540.68V453.318ZM540.68 441.795H547.566C548.646 441.795 549.572 441.648 550.344 441.352C551.117 441.045 551.708 440.614 552.117 440.057C552.538 439.489 552.748 438.818 552.748 438.045C552.748 436.943 552.288 436.08 551.367 435.455C550.447 434.818 549.18 434.5 547.566 434.5H540.68V441.795ZM591.633 451.545L600.769 430.818H604.587L593.269 457H589.996L578.883 430.818H582.633L591.633 451.545ZM581.337 430.818V457H577.315V430.818H581.337ZM601.928 457V430.818H605.951V457H601.928ZM617.337 451.068L629.951 430.818H634.587V457H630.565V436.75L618.019 457H613.315V430.818H617.337V451.068ZM641.955 466.818V430.818H645.842V434.977H646.319C646.614 434.523 647.023 433.943 647.546 433.239C648.08 432.523 648.842 431.886 649.83 431.33C650.83 430.761 652.183 430.477 653.887 430.477C656.092 430.477 658.035 431.028 659.717 432.131C661.398 433.233 662.711 434.795 663.654 436.818C664.597 438.841 665.069 441.227 665.069 443.977C665.069 446.75 664.597 449.153 663.654 451.188C662.711 453.21 661.404 454.778 659.734 455.892C658.063 456.994 656.137 457.545 653.955 457.545C652.273 457.545 650.927 457.267 649.915 456.71C648.904 456.142 648.126 455.5 647.58 454.784C647.035 454.057 646.614 453.455 646.319 452.977H645.978V466.818H641.955ZM645.91 443.909C645.91 445.886 646.2 447.631 646.779 449.142C647.359 450.642 648.205 451.818 649.319 452.67C650.433 453.511 651.796 453.932 653.41 453.932C655.092 453.932 656.495 453.489 657.62 452.602C658.756 451.705 659.609 450.5 660.177 448.989C660.756 447.466 661.046 445.773 661.046 443.909C661.046 442.068 660.762 440.409 660.194 438.932C659.637 437.443 658.79 436.267 657.654 435.403C656.529 434.528 655.114 434.091 653.41 434.091C651.773 434.091 650.398 434.506 649.285 435.335C648.171 436.153 647.33 437.301 646.762 438.778C646.194 440.244 645.91 441.955 645.91 443.909ZM682.183 457.545C679.66 457.545 677.484 456.989 675.654 455.875C673.836 454.75 672.433 453.182 671.444 451.17C670.467 449.148 669.978 446.795 669.978 444.114C669.978 441.432 670.467 439.068 671.444 437.023C672.433 434.966 673.808 433.364 675.569 432.216C677.342 431.057 679.41 430.477 681.773 430.477C683.137 430.477 684.484 430.705 685.813 431.159C687.143 431.614 688.353 432.352 689.444 433.375C690.535 434.386 691.404 435.727 692.052 437.398C692.7 439.068 693.023 441.125 693.023 443.568V445.273H672.842V441.795H688.933C688.933 440.318 688.637 439 688.046 437.841C687.467 436.682 686.637 435.767 685.558 435.097C684.489 434.426 683.228 434.091 681.773 434.091C680.171 434.091 678.785 434.489 677.614 435.284C676.455 436.068 675.563 437.091 674.938 438.352C674.313 439.614 674.001 440.966 674.001 442.409V444.727C674.001 446.705 674.342 448.381 675.023 449.756C675.717 451.119 676.677 452.159 677.904 452.875C679.131 453.58 680.558 453.932 682.183 453.932C683.239 453.932 684.194 453.784 685.046 453.489C685.91 453.182 686.654 452.727 687.279 452.125C687.904 451.511 688.387 450.75 688.728 449.841L692.614 450.932C692.205 452.25 691.518 453.409 690.552 454.409C689.586 455.398 688.393 456.17 686.972 456.727C685.552 457.273 683.955 457.545 682.183 457.545ZM704.461 422.091L704.12 447.182H700.165L699.825 422.091H704.461ZM702.143 457.273C701.302 457.273 700.58 456.972 699.978 456.369C699.376 455.767 699.075 455.045 699.075 454.205C699.075 453.364 699.376 452.642 699.978 452.04C700.58 451.437 701.302 451.136 702.143 451.136C702.984 451.136 703.705 451.437 704.308 452.04C704.91 452.642 705.211 453.364 705.211 454.205C705.211 454.761 705.069 455.273 704.785 455.739C704.512 456.205 704.143 456.58 703.677 456.864C703.222 457.136 702.711 457.273 702.143 457.273Z" fill="#381111"/>
<path d="M524.835 297.312H517.369C517.233 296.347 516.955 295.489 516.534 294.739C516.114 293.977 515.574 293.33 514.915 292.795C514.256 292.261 513.494 291.852 512.631 291.568C511.778 291.284 510.852 291.142 509.852 291.142C508.045 291.142 506.472 291.591 505.131 292.489C503.79 293.375 502.75 294.67 502.011 296.375C501.273 298.068 500.903 300.125 500.903 302.545C500.903 305.034 501.273 307.125 502.011 308.818C502.761 310.511 503.807 311.79 505.148 312.653C506.489 313.517 508.04 313.949 509.801 313.949C510.79 313.949 511.705 313.818 512.545 313.557C513.398 313.295 514.153 312.915 514.812 312.415C515.472 311.903 516.017 311.284 516.449 310.557C516.892 309.83 517.199 309 517.369 308.068L524.835 308.102C524.642 309.705 524.159 311.25 523.386 312.739C522.625 314.216 521.597 315.54 520.301 316.71C519.017 317.869 517.483 318.79 515.699 319.472C513.926 320.142 511.92 320.477 509.682 320.477C506.568 320.477 503.784 319.773 501.33 318.364C498.886 316.955 496.955 314.915 495.534 312.244C494.125 309.574 493.42 306.341 493.42 302.545C493.42 298.739 494.136 295.5 495.568 292.83C497 290.159 498.943 288.125 501.398 286.727C503.852 285.318 506.614 284.614 509.682 284.614C511.705 284.614 513.58 284.898 515.307 285.466C517.045 286.034 518.585 286.864 519.926 287.955C521.267 289.034 522.358 290.358 523.199 291.926C524.051 293.494 524.597 295.29 524.835 297.312ZM537.457 320.494C535.787 320.494 534.298 320.205 532.991 319.625C531.685 319.034 530.651 318.165 529.889 317.017C529.139 315.858 528.764 314.415 528.764 312.688C528.764 311.233 529.031 310.011 529.565 309.023C530.099 308.034 530.827 307.239 531.747 306.636C532.668 306.034 533.713 305.58 534.884 305.273C536.065 304.966 537.304 304.75 538.599 304.625C540.122 304.466 541.349 304.318 542.281 304.182C543.213 304.034 543.889 303.818 544.31 303.534C544.73 303.25 544.94 302.83 544.94 302.273V302.17C544.94 301.091 544.599 300.256 543.918 299.665C543.247 299.074 542.293 298.778 541.054 298.778C539.747 298.778 538.707 299.068 537.935 299.648C537.162 300.216 536.651 300.932 536.401 301.795L529.685 301.25C530.026 299.659 530.696 298.284 531.696 297.125C532.696 295.955 533.986 295.057 535.565 294.432C537.156 293.795 538.997 293.477 541.088 293.477C542.543 293.477 543.935 293.648 545.264 293.989C546.605 294.33 547.793 294.858 548.827 295.574C549.872 296.29 550.696 297.21 551.298 298.335C551.901 299.449 552.202 300.784 552.202 302.341V320H545.315V316.369H545.111C544.69 317.188 544.128 317.909 543.423 318.534C542.719 319.148 541.872 319.631 540.884 319.983C539.895 320.324 538.753 320.494 537.457 320.494ZM539.537 315.483C540.605 315.483 541.548 315.273 542.366 314.852C543.185 314.42 543.827 313.841 544.293 313.114C544.759 312.386 544.991 311.562 544.991 310.642V307.864C544.764 308.011 544.452 308.148 544.054 308.273C543.668 308.386 543.23 308.494 542.741 308.597C542.253 308.687 541.764 308.773 541.276 308.852C540.787 308.92 540.344 308.983 539.946 309.04C539.094 309.165 538.349 309.364 537.713 309.636C537.077 309.909 536.582 310.278 536.23 310.744C535.878 311.199 535.702 311.767 535.702 312.449C535.702 313.438 536.06 314.193 536.776 314.716C537.503 315.227 538.423 315.483 539.537 315.483ZM565.097 304.864V320H557.835V293.818H564.756V298.438H565.062C565.642 296.915 566.614 295.71 567.977 294.824C569.341 293.926 570.994 293.477 572.938 293.477C574.756 293.477 576.341 293.875 577.693 294.67C579.045 295.466 580.097 296.602 580.847 298.08C581.597 299.545 581.972 301.295 581.972 303.33V320H574.71V304.625C574.722 303.023 574.313 301.773 573.483 300.875C572.653 299.966 571.511 299.511 570.057 299.511C569.08 299.511 568.216 299.722 567.466 300.142C566.727 300.562 566.148 301.176 565.727 301.983C565.318 302.778 565.108 303.739 565.097 304.864ZM597.342 320.426C595.354 320.426 593.553 319.915 591.939 318.892C590.337 317.858 589.064 316.341 588.121 314.341C587.189 312.33 586.723 309.864 586.723 306.943C586.723 303.943 587.206 301.449 588.172 299.46C589.138 297.46 590.422 295.966 592.024 294.977C593.638 293.977 595.405 293.477 597.325 293.477C598.791 293.477 600.013 293.727 600.99 294.227C601.979 294.716 602.774 295.33 603.376 296.068C603.99 296.795 604.456 297.511 604.774 298.216H604.996V285.091H612.24V320H605.081V315.807H604.774C604.433 316.534 603.95 317.256 603.325 317.972C602.712 318.676 601.911 319.261 600.922 319.727C599.945 320.193 598.751 320.426 597.342 320.426ZM599.643 314.648C600.814 314.648 601.803 314.33 602.609 313.693C603.428 313.045 604.053 312.142 604.484 310.983C604.928 309.824 605.149 308.466 605.149 306.909C605.149 305.352 604.933 304 604.501 302.852C604.07 301.705 603.445 300.818 602.626 300.193C601.808 299.568 600.814 299.256 599.643 299.256C598.45 299.256 597.445 299.58 596.626 300.227C595.808 300.875 595.189 301.773 594.768 302.92C594.348 304.068 594.138 305.398 594.138 306.909C594.138 308.432 594.348 309.778 594.768 310.949C595.2 312.108 595.82 313.017 596.626 313.676C597.445 314.324 598.45 314.648 599.643 314.648ZM622.693 329.818C621.773 329.818 620.909 329.744 620.102 329.597C619.307 329.46 618.648 329.284 618.125 329.068L619.761 323.648C620.614 323.909 621.381 324.051 622.062 324.074C622.756 324.097 623.352 323.938 623.852 323.597C624.364 323.256 624.778 322.676 625.097 321.858L625.523 320.75L616.131 293.818H623.767L629.188 313.045H629.46L634.932 293.818H642.619L632.443 322.83C631.955 324.239 631.29 325.466 630.449 326.511C629.619 327.568 628.568 328.381 627.295 328.949C626.023 329.528 624.489 329.818 622.693 329.818Z" fill="#F48F2A"/>
<path d="M646.472 320V285.091H653.852V299.494H668.835V285.091H676.199V320H668.835V305.58H653.852V320H646.472ZM698.938 308.852V293.818H706.199V320H699.227V315.244H698.955C698.364 316.778 697.381 318.011 696.006 318.943C694.642 319.875 692.977 320.341 691.011 320.341C689.261 320.341 687.722 319.943 686.392 319.148C685.063 318.352 684.023 317.222 683.273 315.756C682.534 314.29 682.159 312.534 682.148 310.489V293.818H689.409V309.193C689.42 310.739 689.835 311.96 690.653 312.858C691.472 313.756 692.568 314.205 693.943 314.205C694.818 314.205 695.636 314.006 696.398 313.608C697.159 313.199 697.773 312.597 698.239 311.801C698.716 311.006 698.949 310.023 698.938 308.852ZM723.803 330.364C721.45 330.364 719.433 330.04 717.751 329.392C716.081 328.756 714.751 327.886 713.763 326.784C712.774 325.682 712.132 324.443 711.837 323.068L718.553 322.165C718.757 322.688 719.081 323.176 719.524 323.631C719.967 324.085 720.553 324.449 721.28 324.722C722.018 325.006 722.916 325.148 723.973 325.148C725.553 325.148 726.854 324.761 727.876 323.989C728.911 323.227 729.428 321.949 729.428 320.153V315.364H729.121C728.803 316.091 728.325 316.778 727.689 317.426C727.053 318.074 726.234 318.602 725.234 319.011C724.234 319.42 723.041 319.625 721.655 319.625C719.689 319.625 717.899 319.17 716.286 318.261C714.683 317.341 713.405 315.937 712.45 314.051C711.507 312.153 711.036 309.756 711.036 306.858C711.036 303.892 711.518 301.415 712.484 299.426C713.45 297.437 714.734 295.949 716.337 294.96C717.95 293.972 719.717 293.477 721.638 293.477C723.104 293.477 724.331 293.727 725.32 294.227C726.308 294.716 727.104 295.33 727.706 296.068C728.32 296.795 728.791 297.511 729.121 298.216H729.393V293.818H736.604V320.256C736.604 322.483 736.058 324.347 734.967 325.847C733.876 327.347 732.365 328.472 730.433 329.222C728.513 329.983 726.303 330.364 723.803 330.364ZM723.956 314.17C725.126 314.17 726.115 313.881 726.922 313.301C727.74 312.71 728.365 311.869 728.797 310.778C729.24 309.676 729.462 308.358 729.462 306.824C729.462 305.29 729.246 303.96 728.814 302.835C728.382 301.699 727.757 300.818 726.939 300.193C726.121 299.568 725.126 299.256 723.956 299.256C722.763 299.256 721.757 299.58 720.939 300.227C720.121 300.864 719.501 301.75 719.081 302.886C718.661 304.023 718.45 305.335 718.45 306.824C718.45 308.335 718.661 309.642 719.081 310.744C719.513 311.835 720.132 312.682 720.939 313.284C721.757 313.875 722.763 314.17 723.956 314.17Z" fill="#C03C3C"/>
<rect x="443" y="507" width="333" height="76" rx="38" fill="#C03C3C"/>
<path d="M565.409 558L556.614 546.264H553.827V558H549.876V531.818H553.827V542.876H555.118L565.013 531.818H569.832L559.362 543.541L570.229 558H565.409ZM574.556 565.364C573.985 565.364 573.465 565.317 572.996 565.223C572.528 565.138 572.178 565.044 571.948 564.942L572.869 561.81C573.567 561.997 574.19 562.078 574.735 562.053C575.281 562.027 575.762 561.822 576.18 561.439C576.606 561.055 576.981 560.429 577.305 559.56L577.778 558.256L570.593 538.364H574.684L579.657 553.602H579.862L584.835 538.364H588.938L580.846 560.621C580.471 561.643 579.994 562.509 579.414 563.216C578.835 563.932 578.144 564.469 577.343 564.827C576.542 565.185 575.613 565.364 574.556 565.364ZM592.531 558V538.364H608.549V558H604.803V541.662H596.251V558H592.531ZM617.405 552.643L626.06 538.364H630.176V558H626.431V543.707L617.814 558H613.659V538.364H617.405V552.643ZM632.88 541.662V538.364H649.449V541.662H643.044V558H639.311V541.662H632.88ZM656.368 545.114H662.07C664.473 545.114 666.322 545.71 667.618 546.903C668.913 548.097 669.561 549.635 669.561 551.518C669.561 552.746 669.271 553.849 668.692 554.83C668.112 555.81 667.264 556.585 666.148 557.156C665.031 557.719 663.672 558 662.07 558H653.491V538.364H657.237V554.702H662.07C663.169 554.702 664.072 554.416 664.78 553.845C665.487 553.266 665.841 552.528 665.841 551.634C665.841 550.687 665.487 549.916 664.78 549.32C664.072 548.714 663.169 548.412 662.07 548.412H656.368V545.114Z" fill="#F6BB81"/>
<rect x="1134.4" y="504" width="146" height="175.89" rx="28" transform="rotate(40.1458 1134.4 504)" fill="#E58D8D"/>
<path d="M1226.97 611.857C1223.08 616.468 1193.44 603.882 1170.39 584.438C1147.34 564.993 1135.34 543.969 1139.23 539.358C1143.12 534.748 1167.46 547.376 1190.51 566.82C1213.57 586.264 1230.86 607.247 1226.97 611.857Z" fill="#C47878"/>
<path d="M1138.42 539.427C1139.41 545.904 1151.44 567.813 1172.08 585.11C1192.71 602.407 1216.82 610.618 1225.86 613.176" stroke="#8C5454" stroke-width="2" stroke-linecap="round"/>
<path d="M1082.45 595.985L1041.31 644.757L1040.2 646.075" stroke="#8C5454" stroke-width="2" stroke-linecap="round"/>
<path d="M1071.41 619.765L1048.81 646.568" stroke="#8C5454" stroke-width="2" stroke-linecap="round"/>
<rect x="937" y="144.273" width="86.835" height="104.612" rx="28" transform="rotate(-15.5464 937 144.273)" fill="#F59C3E"/>
<path d="M1015.59 133.409C1016.56 136.865 1000.44 147.207 983.155 152.015C965.875 156.822 951.525 155.666 950.563 152.21C949.602 148.754 963.965 141.03 981.246 136.222C998.527 131.415 1014.63 129.953 1015.59 133.409Z" fill="#D7842C"/>
<path d="M950.325 152.631C953.838 154.319 968.637 155.749 984.052 151.41C999.467 147.072 1011.58 137.978 1015.87 134.397" stroke="#A26728" stroke-width="2" stroke-linecap="round"/>
<path d="M959.347 199.091L969.518 235.65L969.793 236.638" stroke="#A26728" stroke-width="2" stroke-linecap="round"/>
<path d="M967.331 212.484L972.92 232.575" stroke="#A26728" stroke-width="2" stroke-linecap="round"/>
<rect x="1107.99" y="214" width="119.998" height="144.564" rx="28" transform="rotate(19.3873 1107.99 214)" fill="#E58D8D"/>
<path d="M1205.63 263.885C1203.98 268.561 1177.53 267.522 1154.15 259.294C1130.77 251.065 1115.43 238.401 1117.07 233.725C1118.72 229.048 1141.1 231.664 1164.49 239.892C1187.87 248.12 1207.27 259.208 1205.63 263.885Z" fill="#C47878"/>
<path d="M1116.47 234.013C1119.12 238.705 1134.75 252.035 1155.65 259.318C1176.54 266.601 1197.47 265.887 1205.15 265.222" stroke="#8C5454" stroke-width="2" stroke-linecap="round"/>
<path d="M1089.93 293.787L1072.52 343.254L1072.05 344.591" stroke="#8C5454" stroke-width="2" stroke-linecap="round"/>
<path d="M1088.37 315.278L1078.81 342.462" stroke="#8C5454" stroke-width="2" stroke-linecap="round"/>
<rect x="194.268" y="545" width="113.106" height="136.261" rx="28" transform="rotate(18.0712 194.268 545)" fill="#E58D8D"/>
<path d="M287.352 589.893C285.903 594.335 260.96 593.929 238.75 586.681C216.539 579.434 201.807 567.832 203.256 563.39C204.706 558.948 225.856 560.928 248.067 568.175C270.278 575.422 288.802 585.451 287.352 589.893Z" fill="#C47878"/>
<path d="M202.695 563.675C205.288 568.039 220.309 580.262 240.158 586.672C260.007 593.083 279.708 591.957 286.938 591.163" stroke="#8C5454" stroke-width="2" stroke-linecap="round"/>
<path d="M178.976 620.576L163.644 667.566L163.229 668.836" stroke="#8C5454" stroke-width="2" stroke-linecap="round"/>
<path d="M177.978 640.86L169.552 666.683" stroke="#8C5454" stroke-width="2" stroke-linecap="round"/>
<rect x="235.24" y="266.472" width="90.7764" height="109.361" rx="28" transform="rotate(26.3603 235.24 266.472)" fill="#E58D8D"/>
<path d="M303.371 313.977C301.706 317.337 281.944 314.128 265.143 305.802C248.342 297.476 237.984 286.558 239.649 283.197C241.314 279.837 257.883 283.857 274.684 292.183C291.485 300.508 305.037 310.616 303.371 313.977Z" fill="#C47878"/>
<path d="M241.639 284.473C243.194 288.238 253.709 299.684 268.731 307.072C283.753 314.46 299.53 315.845 305.364 316.051" stroke="#8C5454" stroke-width="2" stroke-linecap="round"/>
<path d="M221.772 312.473L204.158 348.018L203.682 348.978" stroke="#8C5454" stroke-width="2" stroke-linecap="round"/>
<path d="M218.633 328.467L208.953 348" stroke="#8C5454" stroke-width="2" stroke-linecap="round"/>
<rect x="91.0875" y="104.955" width="121.09" height="145.88" rx="28" transform="rotate(21.0957 91.0875 104.955)" fill="#F59C3E"/>
<path d="M188.068 158.209C186.268 162.877 159.625 161.033 136.288 152.03C112.952 143.027 97.8575 129.791 99.6581 125.124C101.459 120.457 123.959 123.768 147.295 132.771C170.631 141.774 189.869 153.542 188.068 158.209Z" fill="#D7842C"/>
<path d="M99.0417 125.397C101.568 130.209 116.936 144.125 137.794 152.1C158.653 160.075 179.779 159.984 187.554 159.544" stroke="#A26728" stroke-width="2" stroke-linecap="round"/>
<path d="M70.4697 184.89L51.4233 234.261L50.9085 235.595" stroke="#A26728" stroke-width="2" stroke-linecap="round"/>
<path d="M68.2572 206.519L57.7902 233.651" stroke="#A26728" stroke-width="2" stroke-linecap="round"/>
<rect x="29.6823" y="394.703" width="139.981" height="168.639" rx="28" transform="rotate(-16.7023 29.6823 394.703)" fill="#F59C3E"/>
<path d="M155.999 374.637C157.661 380.176 132.018 397.369 104.323 405.679C76.6278 413.989 53.4624 412.593 51.8004 407.054C50.1384 401.515 73.0369 388.599 100.732 380.289C128.427 371.978 154.337 369.098 155.999 374.637Z" fill="#D7842C"/>
<path d="M51.4308 407.74C57.1468 410.346 81.0447 412.169 105.748 404.676C130.451 397.182 149.684 382.131 156.474 376.221" stroke="#A26728" stroke-width="2" stroke-linecap="round"/>
<path d="M67.4821 482.327L85.0631 540.919L85.5383 542.502" stroke="#A26728" stroke-width="2" stroke-linecap="round"/>
<path d="M80.7854 503.652L90.4471 535.851" stroke="#A26728" stroke-width="2" stroke-linecap="round"/>
<rect x="950" y="399.009" width="134.278" height="161.768" rx="28" transform="rotate(-11.1687 950 399.009)" fill="#F59C3E"/>
<path d="M1072.46 391.535C1073.54 396.978 1047.46 411.02 1020.25 416.393C993.039 421.765 971.05 418.29 969.976 412.848C968.901 407.405 991.959 397.191 1019.17 391.819C1046.38 386.446 1071.39 386.093 1072.46 391.535Z" fill="#D7842C"/>
<path d="M969.559 413.469C974.776 416.485 997.424 420.437 1021.7 415.567C1045.98 410.698 1065.74 398.106 1072.77 393.091" stroke="#A26728" stroke-width="2" stroke-linecap="round"/>
<path d="M977.985 486.168L989.352 543.737L989.659 545.293" stroke="#A26728" stroke-width="2" stroke-linecap="round"/>
<path d="M988.715 507.759L994.961 539.396" stroke="#A26728" stroke-width="2" stroke-linecap="round"/>
<path d="M205.835 38.3125H198.369C198.233 37.3466 197.955 36.4886 197.534 35.7386C197.114 34.9773 196.574 34.3295 195.915 33.7955C195.256 33.2614 194.494 32.8523 193.631 32.5682C192.778 32.2841 191.852 32.142 190.852 32.142C189.045 32.142 187.472 32.5909 186.131 33.4886C184.79 34.375 183.75 35.6705 183.011 37.375C182.273 39.0682 181.903 41.125 181.903 43.5455C181.903 46.0341 182.273 48.125 183.011 49.8182C183.761 51.5114 184.807 52.7898 186.148 53.6534C187.489 54.517 189.04 54.9489 190.801 54.9489C191.79 54.9489 192.705 54.8182 193.545 54.5568C194.398 54.2955 195.153 53.9148 195.812 53.4148C196.472 52.9034 197.017 52.2841 197.449 51.5568C197.892 50.8295 198.199 50 198.369 49.0682L205.835 49.1023C205.642 50.7045 205.159 52.25 204.386 53.7386C203.625 55.2159 202.597 56.5398 201.301 57.7102C200.017 58.8693 198.483 59.7898 196.699 60.4716C194.926 61.142 192.92 61.4773 190.682 61.4773C187.568 61.4773 184.784 60.7727 182.33 59.3636C179.886 57.9545 177.955 55.9148 176.534 53.2443C175.125 50.5739 174.42 47.3409 174.42 43.5455C174.42 39.7386 175.136 36.5 176.568 33.8295C178 31.1591 179.943 29.125 182.398 27.7273C184.852 26.3182 187.614 25.6136 190.682 25.6136C192.705 25.6136 194.58 25.8977 196.307 26.4659C198.045 27.0341 199.585 27.8636 200.926 28.9545C202.267 30.0341 203.358 31.358 204.199 32.9261C205.051 34.4943 205.597 36.2898 205.835 38.3125ZM218.457 61.4943C216.787 61.4943 215.298 61.2045 213.991 60.625C212.685 60.0341 211.651 59.1648 210.889 58.017C210.139 56.858 209.764 55.4148 209.764 53.6875C209.764 52.233 210.031 51.0114 210.565 50.0227C211.099 49.0341 211.827 48.2386 212.747 47.6364C213.668 47.0341 214.713 46.5795 215.884 46.2727C217.065 45.9659 218.304 45.75 219.599 45.625C221.122 45.4659 222.349 45.3182 223.281 45.1818C224.213 45.0341 224.889 44.8182 225.31 44.5341C225.73 44.25 225.94 43.8295 225.94 43.2727V43.1705C225.94 42.0909 225.599 41.2557 224.918 40.6648C224.247 40.0739 223.293 39.7784 222.054 39.7784C220.747 39.7784 219.707 40.0682 218.935 40.6477C218.162 41.2159 217.651 41.9318 217.401 42.7955L210.685 42.25C211.026 40.6591 211.696 39.2841 212.696 38.125C213.696 36.9545 214.986 36.0568 216.565 35.4318C218.156 34.7955 219.997 34.4773 222.088 34.4773C223.543 34.4773 224.935 34.6477 226.264 34.9886C227.605 35.3295 228.793 35.858 229.827 36.5739C230.872 37.2898 231.696 38.2102 232.298 39.3352C232.901 40.4489 233.202 41.7841 233.202 43.3409V61H226.315V57.3693H226.111C225.69 58.1875 225.128 58.9091 224.423 59.5341C223.719 60.1477 222.872 60.6307 221.884 60.983C220.895 61.3239 219.753 61.4943 218.457 61.4943ZM220.537 56.483C221.605 56.483 222.548 56.2727 223.366 55.8523C224.185 55.4205 224.827 54.8409 225.293 54.1136C225.759 53.3864 225.991 52.5625 225.991 51.642V48.8636C225.764 49.0114 225.452 49.1477 225.054 49.2727C224.668 49.3864 224.23 49.4943 223.741 49.5966C223.253 49.6875 222.764 49.7727 222.276 49.8523C221.787 49.9205 221.344 49.983 220.946 50.0398C220.094 50.1648 219.349 50.3636 218.713 50.6364C218.077 50.9091 217.582 51.2784 217.23 51.7443C216.878 52.1989 216.702 52.767 216.702 53.4489C216.702 54.4375 217.06 55.1932 217.776 55.7159C218.503 56.2273 219.423 56.483 220.537 56.483ZM246.097 45.8636V61H238.835V34.8182H245.756V39.4375H246.062C246.642 37.9148 247.614 36.7102 248.977 35.8239C250.341 34.9261 251.994 34.4773 253.938 34.4773C255.756 34.4773 257.341 34.875 258.693 35.6705C260.045 36.4659 261.097 37.6023 261.847 39.0795C262.597 40.5455 262.972 42.2955 262.972 44.3295V61H255.71V45.625C255.722 44.0227 255.313 42.7727 254.483 41.875C253.653 40.9659 252.511 40.5114 251.057 40.5114C250.08 40.5114 249.216 40.7216 248.466 41.142C247.727 41.5625 247.148 42.1761 246.727 42.983C246.318 43.7784 246.108 44.7386 246.097 45.8636ZM278.342 61.4261C276.354 61.4261 274.553 60.9148 272.939 59.892C271.337 58.858 270.064 57.3409 269.121 55.3409C268.189 53.3295 267.723 50.8636 267.723 47.9432C267.723 44.9432 268.206 42.4489 269.172 40.4602C270.138 38.4602 271.422 36.9659 273.024 35.9773C274.638 34.9773 276.405 34.4773 278.325 34.4773C279.791 34.4773 281.013 34.7273 281.99 35.2273C282.979 35.7159 283.774 36.3295 284.376 37.0682C284.99 37.7955 285.456 38.5114 285.774 39.2159H285.996V26.0909H293.24V61H286.081V56.8068H285.774C285.433 57.5341 284.95 58.2557 284.325 58.9716C283.712 59.6761 282.911 60.2614 281.922 60.7273C280.945 61.1932 279.751 61.4261 278.342 61.4261ZM280.643 55.6477C281.814 55.6477 282.803 55.3295 283.609 54.6932C284.428 54.0455 285.053 53.142 285.484 51.983C285.928 50.8239 286.149 49.4659 286.149 47.9091C286.149 46.3523 285.933 45 285.501 43.8523C285.07 42.7045 284.445 41.8182 283.626 41.1932C282.808 40.5682 281.814 40.2557 280.643 40.2557C279.45 40.2557 278.445 40.5795 277.626 41.2273C276.808 41.875 276.189 42.7727 275.768 43.9205C275.348 45.0682 275.138 46.3977 275.138 47.9091C275.138 49.4318 275.348 50.7784 275.768 51.9489C276.2 53.108 276.82 54.017 277.626 54.6761C278.445 55.3239 279.45 55.6477 280.643 55.6477ZM303.693 70.8182C302.773 70.8182 301.909 70.7443 301.102 70.5966C300.307 70.4602 299.648 70.2841 299.125 70.0682L300.761 64.6477C301.614 64.9091 302.381 65.0511 303.062 65.0739C303.756 65.0966 304.352 64.9375 304.852 64.5966C305.364 64.2557 305.778 63.6761 306.097 62.858L306.523 61.75L297.131 34.8182H304.767L310.188 54.0455H310.46L315.932 34.8182H323.619L313.443 63.8295C312.955 65.2386 312.29 66.4659 311.449 67.5114C310.619 68.5682 309.568 69.3807 308.295 69.9489C307.023 70.5284 305.489 70.8182 303.693 70.8182Z" fill="#F6BB81"/>
<path d="M327.472 61V26.0909H334.852V40.4943H349.835V26.0909H357.199V61H349.835V46.5795H334.852V61H327.472ZM379.938 49.8523V34.8182H387.199V61H380.227V56.2443H379.955C379.364 57.7784 378.381 59.0114 377.006 59.9432C375.642 60.875 373.977 61.3409 372.011 61.3409C370.261 61.3409 368.722 60.9432 367.392 60.1477C366.063 59.3523 365.023 58.2216 364.273 56.7557C363.534 55.2898 363.159 53.5341 363.148 51.4886V34.8182H370.409V50.1932C370.42 51.7386 370.835 52.9602 371.653 53.858C372.472 54.7557 373.568 55.2045 374.943 55.2045C375.818 55.2045 376.636 55.0057 377.398 54.608C378.159 54.1989 378.773 53.5966 379.239 52.8011C379.716 52.0057 379.949 51.0227 379.938 49.8523ZM404.803 71.3636C402.45 71.3636 400.433 71.0398 398.751 70.392C397.081 69.7557 395.751 68.8864 394.763 67.7841C393.774 66.6818 393.132 65.4432 392.837 64.0682L399.553 63.1648C399.757 63.6875 400.081 64.1761 400.524 64.6307C400.967 65.0852 401.553 65.4489 402.28 65.7216C403.018 66.0057 403.916 66.1477 404.973 66.1477C406.553 66.1477 407.854 65.7614 408.876 64.9886C409.911 64.2273 410.428 62.9489 410.428 61.1534V56.3636H410.121C409.803 57.0909 409.325 57.7784 408.689 58.4261C408.053 59.0739 407.234 59.6023 406.234 60.0114C405.234 60.4205 404.041 60.625 402.655 60.625C400.689 60.625 398.899 60.1705 397.286 59.2614C395.683 58.3409 394.405 56.9375 393.45 55.0511C392.507 53.1534 392.036 50.7557 392.036 47.858C392.036 44.892 392.518 42.4148 393.484 40.4261C394.45 38.4375 395.734 36.9489 397.337 35.9602C398.95 34.9716 400.717 34.4773 402.638 34.4773C404.104 34.4773 405.331 34.7273 406.32 35.2273C407.308 35.7159 408.104 36.3295 408.706 37.0682C409.32 37.7955 409.791 38.5114 410.121 39.2159H410.393V34.8182H417.604V61.2557C417.604 63.483 417.058 65.3466 415.967 66.8466C414.876 68.3466 413.365 69.4716 411.433 70.2216C409.513 70.983 407.303 71.3636 404.803 71.3636ZM404.956 55.1705C406.126 55.1705 407.115 54.8807 407.922 54.3011C408.74 53.7102 409.365 52.8693 409.797 51.7784C410.24 50.6761 410.462 49.358 410.462 47.8239C410.462 46.2898 410.246 44.9602 409.814 43.8352C409.382 42.6989 408.757 41.8182 407.939 41.1932C407.121 40.5682 406.126 40.2557 404.956 40.2557C403.763 40.2557 402.757 40.5795 401.939 41.2273C401.121 41.8636 400.501 42.75 400.081 43.8864C399.661 45.0227 399.45 46.3352 399.45 47.8239C399.45 49.3352 399.661 50.642 400.081 51.7443C400.513 52.8352 401.132 53.6818 401.939 54.2841C402.757 54.875 403.763 55.1705 404.956 55.1705Z" fill="#F47575"/>
</svg>
