<svg width="1245" height="736" viewBox="0 0 1245 736" fill="none" xmlns="http://www.w3.org/2000/svg">
<rect x="0.5" y="0.5" width="1240" height="734" fill="#EBE9FF" stroke="#1707CB"/>
<path d="M71.5 735.5V446" stroke="#1707CB" stroke-width="3"/>
<path d="M72.5 594.5H131V239" stroke="#1707CB" stroke-width="3"/>
<path d="M130.5 292H71.5V104.5H26.5V0" stroke="#1707CB" stroke-width="3"/>
<path d="M131 404.5H184V332" stroke="#1707CB" stroke-width="3"/>
<path d="M70 680H32.5V611.5" stroke="#1707CB" stroke-width="3"/>
<path d="M71 483.5H27.5V380" stroke="#1707CB" stroke-width="3"/>
<path d="M71.5 175.5H111.5V51.5" stroke="#1707CB" stroke-width="3"/>
<circle cx="32" cy="607" r="4" transform="rotate(90 32 607)" fill="#B2B0C8" stroke="#10058A" stroke-width="2"/>
<circle cx="112" cy="48" r="4" transform="rotate(90 112 48)" fill="#B2B0C8" stroke="#10058A" stroke-width="2"/>
<circle cx="184" cy="329" r="4" transform="rotate(90 184 329)" fill="#B2B0C8" stroke="#10058A" stroke-width="2"/>
<circle cx="28" cy="377" r="4" transform="rotate(90 28 377)" fill="#B2B0C8" stroke="#10058A" stroke-width="2"/>
<circle cx="72" cy="443" r="4" transform="rotate(90 72 443)" fill="#B2B0C8" stroke="#10058A" stroke-width="2"/>
<circle cx="131" cy="235" r="4" transform="rotate(90 131 235)" fill="#B2B0C8" stroke="#10058A" stroke-width="2"/>
<path d="M630.233 42.7273C630.233 44.2803 629.949 45.6155 629.381 46.733C628.813 47.8456 628.034 48.7027 627.044 49.304C626.059 49.9006 624.939 50.1989 623.685 50.1989C622.425 50.1989 621.301 49.9006 620.311 49.304C619.326 48.7027 618.55 47.8433 617.982 46.7259C617.413 45.6084 617.129 44.2756 617.129 42.7273C617.129 41.1742 617.413 39.8414 617.982 38.7287C618.55 37.6113 619.326 36.7543 620.311 36.1577C621.301 35.5563 622.425 35.2557 623.685 35.2557C624.939 35.2557 626.059 35.5563 627.044 36.1577C628.034 36.7543 628.813 37.6113 629.381 38.7287C629.949 39.8414 630.233 41.1742 630.233 42.7273ZM628.06 42.7273C628.06 41.5436 627.868 40.5469 627.484 39.7372C627.106 38.9228 626.585 38.3073 625.922 37.8906C625.264 37.4692 624.518 37.2585 623.685 37.2585C622.847 37.2585 622.098 37.4692 621.44 37.8906C620.782 38.3073 620.261 38.9228 619.878 39.7372C619.499 40.5469 619.31 41.5436 619.31 42.7273C619.31 43.911 619.499 44.91 619.878 45.7244C620.261 46.5341 620.782 47.1496 621.44 47.571C622.098 47.9877 622.847 48.196 623.685 48.196C624.518 48.196 625.264 47.9877 625.922 47.571C626.585 47.1496 627.106 46.5341 627.484 45.7244C627.868 44.91 628.06 43.911 628.06 42.7273ZM638.092 50V39.0909H640.215V43.6648H641.238L644.839 39.0909H647.467L643.241 44.3963L647.516 50H644.881L641.593 45.6392H640.215V50H638.092ZM653.312 50.2202C652.289 50.2202 651.397 49.9858 650.634 49.517C649.872 49.0483 649.28 48.3925 648.859 47.5497C648.437 46.7069 648.227 45.7221 648.227 44.5952C648.227 43.4635 648.437 42.474 648.859 41.6264C649.28 40.7789 649.872 40.1207 650.634 39.652C651.397 39.1832 652.289 38.9489 653.312 38.9489C654.335 38.9489 655.227 39.1832 655.989 39.652C656.752 40.1207 657.344 40.7789 657.765 41.6264C658.186 42.474 658.397 43.4635 658.397 44.5952C658.397 45.7221 658.186 46.7069 657.765 47.5497C657.344 48.3925 656.752 49.0483 655.989 49.517C655.227 49.9858 654.335 50.2202 653.312 50.2202ZM653.319 48.4375C653.982 48.4375 654.531 48.2623 654.967 47.9119C655.402 47.5616 655.724 47.0952 655.933 46.5128C656.146 45.9304 656.252 45.2888 656.252 44.5881C656.252 43.892 656.146 43.2528 655.933 42.6705C655.724 42.0833 655.402 41.6122 654.967 41.2571C654.531 40.902 653.982 40.7244 653.319 40.7244C652.651 40.7244 652.097 40.902 651.657 41.2571C651.221 41.6122 650.897 42.0833 650.684 42.6705C650.476 43.2528 650.371 43.892 650.371 44.5881C650.371 45.2888 650.476 45.9304 650.684 46.5128C650.897 47.0952 651.221 47.5616 651.657 47.9119C652.097 48.2623 652.651 48.4375 653.319 48.4375ZM666.89 47.3722L670.412 39.0909H672.245L667.678 50H666.101L661.627 39.0909H663.438L666.89 47.3722ZM662.848 39.0909V50H660.767V39.0909H662.848ZM670.988 50V39.0909H673.054V50H670.988ZM675.885 50V39.0909H684.784V50H682.703V40.9233H677.951V50H675.885ZM690.798 50.2415C690.106 50.2415 689.481 50.1136 688.923 49.858C688.364 49.5975 687.921 49.2211 687.594 48.7287C687.272 48.2363 687.112 47.6326 687.112 46.9176C687.112 46.3021 687.23 45.7955 687.467 45.3977C687.703 45 688.023 44.6851 688.425 44.4531C688.828 44.2211 689.278 44.0459 689.775 43.9276C690.272 43.8092 690.779 43.7192 691.295 43.6577C691.948 43.5819 692.478 43.5204 692.886 43.473C693.293 43.4209 693.589 43.3381 693.773 43.2244C693.958 43.1108 694.05 42.9261 694.05 42.6705V42.6207C694.05 42.0005 693.875 41.5199 693.525 41.179C693.179 40.8381 692.663 40.6676 691.977 40.6676C691.262 40.6676 690.698 40.8262 690.286 41.1435C689.879 41.456 689.597 41.804 689.441 42.1875L687.445 41.733C687.682 41.0701 688.028 40.535 688.482 40.1278C688.942 39.7159 689.469 39.4176 690.066 39.233C690.663 39.0436 691.29 38.9489 691.948 38.9489C692.384 38.9489 692.845 39.0009 693.333 39.1051C693.826 39.2045 694.285 39.3892 694.711 39.6591C695.142 39.929 695.495 40.3149 695.769 40.8168C696.044 41.3139 696.181 41.9602 696.181 42.7557V50H694.107V48.5085H694.022C693.885 48.7831 693.679 49.053 693.404 49.3182C693.129 49.5833 692.777 49.8035 692.346 49.9787C691.915 50.1539 691.399 50.2415 690.798 50.2415ZM691.259 48.5369C691.846 48.5369 692.348 48.4209 692.765 48.1889C693.186 47.9569 693.506 47.6539 693.724 47.2798C693.946 46.901 694.058 46.4962 694.058 46.0653V44.6591C693.982 44.7348 693.835 44.8059 693.617 44.8722C693.404 44.9337 693.16 44.9882 692.886 45.0355C692.611 45.0781 692.344 45.1184 692.083 45.1562C691.823 45.1894 691.605 45.2178 691.43 45.2415C691.018 45.2936 690.641 45.3812 690.3 45.5043C689.964 45.6274 689.694 45.8049 689.491 46.0369C689.292 46.2642 689.192 46.5672 689.192 46.946C689.192 47.4716 689.387 47.8693 689.775 48.1392C690.163 48.4044 690.658 48.5369 691.259 48.5369ZM706.403 43.6293V45.4688H700.494V43.6293H706.403ZM701.091 39.0909V50H699.01V39.0909H701.091ZM707.887 39.0909V50H705.814V39.0909H707.887ZM712.809 47.0241L717.618 39.0909H719.904V50H717.824V42.0597L713.037 50H710.728V39.0909H712.809V47.0241ZM724.841 47.0241L729.649 39.0909H731.936V50H729.855V42.0597L725.068 50H722.76V39.0909H724.841V47.0241Z" fill="black"/>
<path d="M809.628 50.1989V48.267H810.501C810.866 48.267 811.167 48.2055 811.403 48.0824C811.645 47.9593 811.841 47.7936 811.993 47.5852C812.149 47.3722 812.279 47.1402 812.384 46.8892L812.589 46.3707L807.476 35.4545H809.805L813.619 43.8636L817.014 35.4545H819.315L814.287 47.4787C814.074 47.9616 813.828 48.4091 813.548 48.821C813.274 49.233 812.907 49.5668 812.447 49.8224C811.988 50.0734 811.38 50.1989 810.622 50.1989H809.628ZM824.019 50.2202C822.963 50.2202 822.054 49.9811 821.292 49.5028C820.534 49.0199 819.952 48.3546 819.544 47.5071C819.137 46.6596 818.934 45.6889 818.934 44.5952C818.934 43.4872 819.142 42.5095 819.559 41.6619C819.975 40.8097 820.562 40.1444 821.32 39.6662C822.078 39.188 822.97 38.9489 823.998 38.9489C824.826 38.9489 825.565 39.1027 826.213 39.4105C826.862 39.7135 827.385 40.1397 827.783 40.6889C828.185 41.2382 828.425 41.8797 828.5 42.6136H826.434C826.32 42.1023 826.06 41.6619 825.652 41.2926C825.25 40.9233 824.71 40.7386 824.033 40.7386C823.441 40.7386 822.923 40.8949 822.478 41.2074C822.037 41.5152 821.694 41.9555 821.448 42.5284C821.202 43.0966 821.078 43.7689 821.078 44.5455C821.078 45.3409 821.199 46.0275 821.441 46.6051C821.682 47.1828 822.023 47.6302 822.463 47.9474C822.908 48.2647 823.432 48.4233 824.033 48.4233C824.435 48.4233 824.8 48.3499 825.127 48.2031C825.458 48.0516 825.735 47.8362 825.958 47.5568C826.185 47.2775 826.344 46.9413 826.434 46.5483H828.5C828.425 47.2538 828.195 47.8835 827.811 48.4375C827.428 48.9915 826.914 49.4271 826.27 49.7443C825.631 50.0616 824.881 50.2202 824.019 50.2202ZM829.912 50L829.905 48.1605H830.295C830.598 48.1605 830.852 48.0966 831.055 47.9688C831.264 47.8362 831.434 47.6136 831.567 47.3011C831.699 46.9886 831.801 46.5578 831.872 46.0085C831.943 45.4545 831.995 44.7585 832.028 43.9205L832.22 39.0909H839.834V50H837.753V40.9233H834.188L834.017 44.6307C833.974 45.5303 833.882 46.3163 833.74 46.9886C833.603 47.661 833.402 48.2221 833.136 48.6719C832.871 49.117 832.53 49.4508 832.114 49.6733C831.697 49.8911 831.19 50 830.594 50H829.912ZM843.618 54.0909C843.3 54.0909 843.011 54.0649 842.751 54.0128C842.491 53.9654 842.297 53.9134 842.169 53.8565L842.68 52.1165C843.068 52.2206 843.414 52.2656 843.717 52.2514C844.02 52.2372 844.288 52.1236 844.52 51.9105C844.756 51.6974 844.965 51.3494 845.145 50.8665L845.407 50.142L841.416 39.0909H843.689L846.451 47.5568H846.565L849.328 39.0909H851.608L847.112 51.456C846.904 52.0241 846.638 52.5047 846.316 52.8977C845.994 53.2955 845.611 53.5938 845.166 53.7926C844.721 53.9915 844.205 54.0909 843.618 54.0909ZM860.578 39.0909V40.9233H855.699V50H853.603V39.0909H860.578ZM864.903 47.0241L869.711 39.0909H871.998V50H869.917V42.0597L865.13 50H862.822V39.0909H864.903V47.0241Z" fill="black"/>
<path d="M961.233 42.7273C961.233 44.2803 960.949 45.6155 960.381 46.733C959.813 47.8456 959.034 48.7027 958.044 49.304C957.059 49.9006 955.939 50.1989 954.685 50.1989C953.425 50.1989 952.301 49.9006 951.311 49.304C950.326 48.7027 949.55 47.8433 948.982 46.7259C948.413 45.6084 948.129 44.2756 948.129 42.7273C948.129 41.1742 948.413 39.8414 948.982 38.7287C949.55 37.6113 950.326 36.7543 951.311 36.1577C952.301 35.5563 953.425 35.2557 954.685 35.2557C955.939 35.2557 957.059 35.5563 958.044 36.1577C959.034 36.7543 959.813 37.6113 960.381 38.7287C960.949 39.8414 961.233 41.1742 961.233 42.7273ZM959.06 42.7273C959.06 41.5436 958.868 40.5469 958.484 39.7372C958.106 38.9228 957.585 38.3073 956.922 37.8906C956.264 37.4692 955.518 37.2585 954.685 37.2585C953.847 37.2585 953.098 37.4692 952.44 37.8906C951.782 38.3073 951.261 38.9228 950.878 39.7372C950.499 40.5469 950.31 41.5436 950.31 42.7273C950.31 43.911 950.499 44.91 950.878 45.7244C951.261 46.5341 951.782 47.1496 952.44 47.571C953.098 47.9877 953.847 48.196 954.685 48.196C955.518 48.196 956.264 47.9877 956.922 47.571C957.585 47.1496 958.106 46.5341 958.484 45.7244C958.868 44.91 959.06 43.911 959.06 42.7273ZM963.188 40.9233V39.0909H972.392V40.9233H968.834V50H966.76V40.9233H963.188ZM973.992 47.1165H976.165C976.194 47.5616 976.395 47.9048 976.769 48.1463C977.148 48.3878 977.638 48.5085 978.239 48.5085C978.85 48.5085 979.371 48.3783 979.802 48.1179C980.233 47.8527 980.448 47.4432 980.448 46.8892C980.448 46.5578 980.365 46.2689 980.2 46.0227C980.039 45.7718 979.809 45.5777 979.511 45.4403C979.217 45.303 978.869 45.2344 978.467 45.2344H976.691V43.5653H978.467C979.068 43.5653 979.518 43.428 979.816 43.1534C980.114 42.8788 980.263 42.5355 980.263 42.1236C980.263 41.6785 980.103 41.321 979.781 41.0511C979.463 40.7765 979.021 40.6392 978.452 40.6392C977.875 40.6392 977.394 40.7694 977.011 41.0298C976.627 41.2855 976.426 41.617 976.407 42.0241H974.262C974.276 41.4134 974.461 40.8783 974.816 40.419C975.176 39.955 975.659 39.5952 976.265 39.3395C976.876 39.0791 977.569 38.9489 978.346 38.9489C979.156 38.9489 979.856 39.0791 980.448 39.3395C981.04 39.5999 981.497 39.9598 981.819 40.419C982.146 40.8783 982.309 41.4062 982.309 42.0028C982.309 42.6042 982.129 43.0966 981.769 43.4801C981.414 43.8589 980.95 44.1312 980.377 44.2969V44.4105C980.799 44.4389 981.173 44.5668 981.499 44.794C981.826 45.0213 982.082 45.322 982.266 45.696C982.451 46.0701 982.543 46.4938 982.543 46.9673C982.543 47.6349 982.359 48.2126 981.989 48.7003C981.625 49.188 981.118 49.5644 980.469 49.8295C979.826 50.09 979.089 50.2202 978.261 50.2202C977.456 50.2202 976.734 50.0947 976.094 49.8438C975.46 49.5881 974.956 49.2282 974.582 48.7642C974.212 48.3002 974.016 47.7509 973.992 47.1165ZM986.334 42.8409H989.502C990.837 42.8409 991.864 43.1723 992.584 43.8352C993.304 44.4981 993.664 45.3527 993.664 46.3991C993.664 47.081 993.503 47.6941 993.181 48.2386C992.859 48.7831 992.388 49.214 991.767 49.5312C991.147 49.8438 990.392 50 989.502 50H984.736V39.0909H986.817V48.1676H989.502C990.113 48.1676 990.614 48.009 991.007 47.6918C991.4 47.3698 991.597 46.9602 991.597 46.4631C991.597 45.9375 991.4 45.509 991.007 45.1776C990.614 44.8414 990.113 44.6733 989.502 44.6733H986.334V42.8409ZM995.212 50V39.0909H997.336V50H995.212ZM1000.19 50V39.0909H1004.71C1005.94 39.0909 1006.92 39.3537 1007.64 39.8793C1008.36 40.4001 1008.72 41.108 1008.72 42.0028C1008.72 42.642 1008.51 43.1487 1008.1 43.5227C1007.7 43.8968 1007.16 44.1477 1006.49 44.2756C1006.97 44.3324 1007.42 44.4792 1007.83 44.7159C1008.23 44.9479 1008.56 45.2604 1008.81 45.6534C1009.06 46.0464 1009.18 46.5152 1009.18 47.0597C1009.18 47.6373 1009.03 48.1487 1008.74 48.5938C1008.44 49.0341 1008 49.3797 1007.44 49.6307C1006.87 49.8769 1006.19 50 1005.4 50H1000.19ZM1002.18 48.2244H1005.4C1005.92 48.2244 1006.34 48.099 1006.63 47.848C1006.93 47.5971 1007.08 47.2562 1007.08 46.8253C1007.08 46.3187 1006.93 45.9209 1006.63 45.6321C1006.34 45.3385 1005.92 45.1918 1005.4 45.1918H1002.18V48.2244ZM1002.18 43.6364H1004.73C1005.13 43.6364 1005.47 43.5795 1005.75 43.4659C1006.04 43.3523 1006.26 43.1913 1006.41 42.983C1006.57 42.7699 1006.65 42.5189 1006.65 42.2301C1006.65 41.8087 1006.48 41.4796 1006.13 41.2429C1005.78 41.0062 1005.31 40.8878 1004.71 40.8878H1002.18V43.6364ZM1013.11 42.8409H1016.28C1017.61 42.8409 1018.64 43.1723 1019.36 43.8352C1020.08 44.4981 1020.44 45.3527 1020.44 46.3991C1020.44 47.081 1020.28 47.6941 1019.96 48.2386C1019.64 48.7831 1019.17 49.214 1018.54 49.5312C1017.92 49.8438 1017.17 50 1016.28 50H1011.51V39.0909H1013.59V48.1676H1016.28C1016.89 48.1676 1017.39 48.009 1017.78 47.6918C1018.18 47.3698 1018.37 46.9602 1018.37 46.4631C1018.37 45.9375 1018.18 45.509 1017.78 45.1776C1017.39 44.8414 1016.89 44.6733 1016.28 44.6733H1013.11V42.8409ZM1021.99 50V39.0909H1024.11V50H1021.99Z" fill="#120883"/>
<path d="M1109.23 50L1104.34 43.4801H1102.79V50H1100.6V35.4545H1102.79V41.598H1103.51L1109.01 35.4545H1111.68L1105.87 41.9673L1111.9 50H1109.23ZM1117.56 50.2202C1116.54 50.2202 1115.65 49.9858 1114.88 49.517C1114.12 49.0483 1113.53 48.3925 1113.11 47.5497C1112.69 46.7069 1112.48 45.7221 1112.48 44.5952C1112.48 43.4635 1112.69 42.474 1113.11 41.6264C1113.53 40.7789 1114.12 40.1207 1114.88 39.652C1115.65 39.1832 1116.54 38.9489 1117.56 38.9489C1118.58 38.9489 1119.48 39.1832 1120.24 39.652C1121 40.1207 1121.59 40.7789 1122.01 41.6264C1122.44 42.474 1122.65 43.4635 1122.65 44.5952C1122.65 45.7221 1122.44 46.7069 1122.01 47.5497C1121.59 48.3925 1121 49.0483 1120.24 49.517C1119.48 49.9858 1118.58 50.2202 1117.56 50.2202ZM1117.57 48.4375C1118.23 48.4375 1118.78 48.2623 1119.22 47.9119C1119.65 47.5616 1119.97 47.0952 1120.18 46.5128C1120.4 45.9304 1120.5 45.2888 1120.5 44.5881C1120.5 43.892 1120.4 43.2528 1120.18 42.6705C1119.97 42.0833 1119.65 41.6122 1119.22 41.2571C1118.78 40.902 1118.23 40.7244 1117.57 40.7244C1116.9 40.7244 1116.35 40.902 1115.91 41.2571C1115.47 41.6122 1115.15 42.0833 1114.93 42.6705C1114.73 43.2528 1114.62 43.892 1114.62 44.5881C1114.62 45.2888 1114.73 45.9304 1114.93 46.5128C1115.15 47.0952 1115.47 47.5616 1115.91 47.9119C1116.35 48.2623 1116.9 48.4375 1117.57 48.4375ZM1132.41 43.6293V45.4688H1126.5V43.6293H1132.41ZM1127.1 39.0909V50H1125.02V39.0909H1127.1ZM1133.9 39.0909V50H1131.82V39.0909H1133.9ZM1135.38 40.9233V39.0909H1144.59V40.9233H1141.03V50H1138.96V40.9233H1135.38ZM1149.5 50.2415C1148.81 50.2415 1148.18 50.1136 1147.63 49.858C1147.07 49.5975 1146.62 49.2211 1146.3 48.7287C1145.98 48.2363 1145.81 47.6326 1145.81 46.9176C1145.81 46.3021 1145.93 45.7955 1146.17 45.3977C1146.41 45 1146.73 44.6851 1147.13 44.4531C1147.53 44.2211 1147.98 44.0459 1148.48 43.9276C1148.98 43.8092 1149.48 43.7192 1150 43.6577C1150.65 43.5819 1151.18 43.5204 1151.59 43.473C1152 43.4209 1152.29 43.3381 1152.48 43.2244C1152.66 43.1108 1152.75 42.9261 1152.75 42.6705V42.6207C1152.75 42.0005 1152.58 41.5199 1152.23 41.179C1151.88 40.8381 1151.37 40.6676 1150.68 40.6676C1149.96 40.6676 1149.4 40.8262 1148.99 41.1435C1148.58 41.456 1148.3 41.804 1148.14 42.1875L1146.15 41.733C1146.39 41.0701 1146.73 40.535 1147.19 40.1278C1147.64 39.7159 1148.17 39.4176 1148.77 39.233C1149.37 39.0436 1149.99 38.9489 1150.65 38.9489C1151.09 38.9489 1151.55 39.0009 1152.04 39.1051C1152.53 39.2045 1152.99 39.3892 1153.41 39.6591C1153.84 39.929 1154.2 40.3149 1154.47 40.8168C1154.75 41.3139 1154.88 41.9602 1154.88 42.7557V50H1152.81V48.5085H1152.73C1152.59 48.7831 1152.38 49.053 1152.11 49.3182C1151.83 49.5833 1151.48 49.8035 1151.05 49.9787C1150.62 50.1539 1150.1 50.2415 1149.5 50.2415ZM1149.96 48.5369C1150.55 48.5369 1151.05 48.4209 1151.47 48.1889C1151.89 47.9569 1152.21 47.6539 1152.43 47.2798C1152.65 46.901 1152.76 46.4962 1152.76 46.0653V44.6591C1152.68 44.7348 1152.54 44.8059 1152.32 44.8722C1152.11 44.9337 1151.86 44.9882 1151.59 45.0355C1151.31 45.0781 1151.05 45.1184 1150.79 45.1562C1150.53 45.1894 1150.31 45.2178 1150.13 45.2415C1149.72 45.2936 1149.34 45.3812 1149 45.5043C1148.67 45.6274 1148.4 45.8049 1148.19 46.0369C1148 46.2642 1147.9 46.5672 1147.9 46.946C1147.9 47.4716 1148.09 47.8693 1148.48 48.1392C1148.87 48.4044 1149.36 48.5369 1149.96 48.5369ZM1157.71 50V39.0909H1159.84V43.6648H1160.86L1164.46 39.0909H1167.09L1162.86 44.3963L1167.14 50H1164.5L1161.21 45.6392H1159.84V50H1157.71ZM1168.18 40.9233V39.0909H1177.38V40.9233H1173.82V50H1171.75V40.9233H1168.18ZM1181.22 42.8409H1184.39C1185.73 42.8409 1186.76 43.1723 1187.47 43.8352C1188.19 44.4981 1188.55 45.3527 1188.55 46.3991C1188.55 47.081 1188.39 47.6941 1188.07 48.2386C1187.75 48.7831 1187.28 49.214 1186.66 49.5312C1186.04 49.8438 1185.28 50 1184.39 50H1179.63V39.0909H1181.71V48.1676H1184.39C1185 48.1676 1185.51 48.009 1185.9 47.6918C1186.29 47.3698 1186.49 46.9602 1186.49 46.4631C1186.49 45.9375 1186.29 45.509 1185.9 45.1776C1185.51 44.8414 1185 44.6733 1184.39 44.6733H1181.22V42.8409ZM1190.1 50V39.0909H1192.23V50H1190.1Z" fill="black"/>
<path d="M1244.5 80.5H437" stroke="#1707CB" stroke-width="3"/>
<rect x="262.5" y="201.5" width="699" height="388" fill="#CFCBFF" stroke="#1707CB" stroke-width="3"/>
<path d="M477.705 294.176V288.091H506.375V294.176H495.688V323H488.392V294.176H477.705ZM519.095 323.511C516.402 323.511 514.084 322.966 512.141 321.875C510.209 320.773 508.72 319.216 507.675 317.205C506.629 315.182 506.107 312.79 506.107 310.028C506.107 307.335 506.629 304.972 507.675 302.938C508.72 300.903 510.192 299.318 512.089 298.182C513.999 297.045 516.237 296.477 518.805 296.477C520.533 296.477 522.141 296.756 523.629 297.312C525.129 297.858 526.436 298.682 527.55 299.784C528.675 300.886 529.55 302.273 530.175 303.943C530.8 305.602 531.112 307.545 531.112 309.773V311.767H509.004V307.267H524.277C524.277 306.222 524.05 305.295 523.595 304.489C523.141 303.682 522.51 303.051 521.703 302.597C520.908 302.131 519.982 301.898 518.925 301.898C517.822 301.898 516.845 302.153 515.993 302.665C515.152 303.165 514.493 303.841 514.016 304.693C513.538 305.534 513.294 306.472 513.283 307.506V311.784C513.283 313.08 513.521 314.199 513.999 315.142C514.487 316.085 515.175 316.812 516.061 317.324C516.947 317.835 517.999 318.091 519.214 318.091C520.021 318.091 520.76 317.977 521.43 317.75C522.101 317.523 522.675 317.182 523.152 316.727C523.629 316.273 523.993 315.716 524.243 315.057L530.959 315.5C530.618 317.114 529.919 318.523 528.862 319.727C527.817 320.92 526.464 321.852 524.805 322.523C523.158 323.182 521.254 323.511 519.095 323.511ZM541.45 296.818L546.257 305.972L551.183 296.818H558.632L551.047 309.909L558.837 323H551.422L546.257 313.949L541.178 323H533.678L541.45 309.909L533.95 296.818H541.45ZM581.166 307.011V312.722H567.496V307.011H581.166ZM569.882 296.818V323H562.945V296.818H569.882ZM585.717 296.818V323H578.831V296.818H585.717ZM603.18 323.511C600.533 323.511 598.243 322.949 596.311 321.824C594.391 320.687 592.908 319.108 591.862 317.085C590.817 315.051 590.294 312.693 590.294 310.011C590.294 307.307 590.817 304.943 591.862 302.92C592.908 300.886 594.391 299.307 596.311 298.182C598.243 297.045 600.533 296.477 603.18 296.477C605.828 296.477 608.112 297.045 610.033 298.182C611.964 299.307 613.453 300.886 614.499 302.92C615.544 304.943 616.067 307.307 616.067 310.011C616.067 312.693 615.544 315.051 614.499 317.085C613.453 319.108 611.964 320.687 610.033 321.824C608.112 322.949 605.828 323.511 603.18 323.511ZM603.214 317.886C604.419 317.886 605.425 317.545 606.232 316.864C607.038 316.17 607.646 315.227 608.055 314.034C608.476 312.841 608.686 311.483 608.686 309.96C608.686 308.438 608.476 307.08 608.055 305.886C607.646 304.693 607.038 303.75 606.232 303.057C605.425 302.364 604.419 302.017 603.214 302.017C601.999 302.017 600.976 302.364 600.146 303.057C599.328 303.75 598.709 304.693 598.288 305.886C597.879 307.08 597.675 308.438 597.675 309.96C597.675 311.483 597.879 312.841 598.288 314.034C598.709 315.227 599.328 316.17 600.146 316.864C600.976 317.545 601.999 317.886 603.214 317.886Z" fill="#120883"/>
<path d="M651.726 300.312H644.26C644.124 299.347 643.845 298.489 643.425 297.739C643.004 296.977 642.464 296.33 641.805 295.795C641.146 295.261 640.385 294.852 639.521 294.568C638.669 294.284 637.743 294.142 636.743 294.142C634.936 294.142 633.362 294.591 632.021 295.489C630.68 296.375 629.641 297.67 628.902 299.375C628.163 301.068 627.794 303.125 627.794 305.545C627.794 308.034 628.163 310.125 628.902 311.818C629.652 313.511 630.697 314.79 632.038 315.653C633.379 316.517 634.93 316.949 636.692 316.949C637.68 316.949 638.595 316.818 639.436 316.557C640.288 316.295 641.044 315.915 641.703 315.415C642.362 314.903 642.908 314.284 643.339 313.557C643.783 312.83 644.089 312 644.26 311.068L651.726 311.102C651.533 312.705 651.05 314.25 650.277 315.739C649.516 317.216 648.487 318.54 647.192 319.71C645.908 320.869 644.374 321.79 642.589 322.472C640.817 323.142 638.811 323.477 636.572 323.477C633.459 323.477 630.675 322.773 628.22 321.364C625.777 319.955 623.845 317.915 622.425 315.244C621.016 312.574 620.311 309.341 620.311 305.545C620.311 301.739 621.027 298.5 622.459 295.83C623.891 293.159 625.834 291.125 628.288 289.727C630.743 288.318 633.504 287.614 636.572 287.614C638.595 287.614 640.47 287.898 642.197 288.466C643.936 289.034 645.476 289.864 646.817 290.955C648.158 292.034 649.249 293.358 650.089 294.926C650.942 296.494 651.487 298.29 651.726 300.312ZM668.712 323.511C666.064 323.511 663.774 322.949 661.842 321.824C659.922 320.687 658.439 319.108 657.393 317.085C656.348 315.051 655.825 312.693 655.825 310.011C655.825 307.307 656.348 304.943 657.393 302.92C658.439 300.886 659.922 299.307 661.842 298.182C663.774 297.045 666.064 296.477 668.712 296.477C671.359 296.477 673.643 297.045 675.564 298.182C677.496 299.307 678.984 300.886 680.03 302.92C681.075 304.943 681.598 307.307 681.598 310.011C681.598 312.693 681.075 315.051 680.03 317.085C678.984 319.108 677.496 320.687 675.564 321.824C673.643 322.949 671.359 323.511 668.712 323.511ZM668.746 317.886C669.95 317.886 670.956 317.545 671.763 316.864C672.57 316.17 673.178 315.227 673.587 314.034C674.007 312.841 674.217 311.483 674.217 309.96C674.217 308.438 674.007 307.08 673.587 305.886C673.178 304.693 672.57 303.75 671.763 303.057C670.956 302.364 669.95 302.017 668.746 302.017C667.53 302.017 666.507 302.364 665.678 303.057C664.859 303.75 664.24 304.693 663.82 305.886C663.411 307.08 663.206 308.438 663.206 309.96C663.206 311.483 663.411 312.841 663.82 314.034C664.24 315.227 664.859 316.17 665.678 316.864C666.507 317.545 667.53 317.886 668.746 317.886ZM698.848 331.898V288.091H706.092V331.898H698.848ZM698.848 323.511C696.837 323.511 695.001 323.188 693.342 322.54C691.683 321.881 690.251 320.955 689.047 319.761C687.842 318.557 686.911 317.131 686.251 315.483C685.592 313.824 685.263 312 685.263 310.011C685.263 308 685.592 306.17 686.251 304.523C686.911 302.864 687.842 301.437 689.047 300.244C690.251 299.04 691.683 298.114 693.342 297.466C695.001 296.807 696.837 296.477 698.848 296.477H700.195V323.511H698.848ZM698.848 317.852H699.649V302.136H698.848C697.871 302.136 697.001 302.341 696.24 302.75C695.479 303.159 694.837 303.722 694.314 304.438C693.791 305.142 693.393 305.972 693.121 306.926C692.859 307.881 692.729 308.909 692.729 310.011C692.729 311.466 692.967 312.79 693.445 313.983C693.922 315.165 694.621 316.108 695.541 316.812C696.462 317.506 697.564 317.852 698.848 317.852ZM706.092 323.511H704.746V296.477H706.092C708.104 296.477 709.939 296.807 711.598 297.466C713.257 298.114 714.689 299.04 715.893 300.244C717.098 301.437 718.03 302.864 718.689 304.523C719.348 306.17 719.678 308 719.678 310.011C719.678 312 719.348 313.824 718.689 315.483C718.03 317.131 717.098 318.557 715.893 319.761C714.689 320.955 713.257 321.881 711.598 322.54C709.939 323.188 708.104 323.511 706.092 323.511ZM706.092 317.852C707.07 317.852 707.939 317.653 708.7 317.256C709.462 316.847 710.104 316.284 710.626 315.568C711.149 314.852 711.547 314.023 711.82 313.08C712.092 312.125 712.229 311.102 712.229 310.011C712.229 308.545 711.984 307.222 711.496 306.04C711.018 304.847 710.325 303.898 709.416 303.193C708.507 302.489 707.399 302.136 706.092 302.136H705.291V317.852H706.092ZM721.893 302.528V296.818H745.621V302.528H737.183V323H730.263V302.528H721.893Z" fill="#050227"/>
<path d="M394.17 389V362.818H403.017C405.071 362.818 406.75 363.189 408.054 363.93C409.366 364.663 410.338 365.656 410.969 366.909C411.599 368.162 411.915 369.56 411.915 371.102C411.915 372.645 411.599 374.047 410.969 375.308C410.347 376.57 409.384 377.575 408.08 378.325C406.776 379.067 405.105 379.438 403.068 379.438H396.727V376.625H402.966C404.372 376.625 405.501 376.382 406.354 375.896C407.206 375.411 407.824 374.754 408.207 373.928C408.599 373.092 408.795 372.151 408.795 371.102C408.795 370.054 408.599 369.116 408.207 368.29C407.824 367.463 407.202 366.815 406.341 366.347C405.48 365.869 404.338 365.631 402.915 365.631H397.341V389H394.17ZM422.391 389.46C421.147 389.46 420.018 389.226 419.004 388.757C417.989 388.28 417.184 387.594 416.587 386.699C415.991 385.795 415.692 384.705 415.692 383.426C415.692 382.301 415.914 381.389 416.357 380.69C416.8 379.983 417.393 379.429 418.134 379.028C418.876 378.628 419.694 378.33 420.589 378.134C421.492 377.929 422.4 377.767 423.312 377.648C424.505 377.494 425.472 377.379 426.214 377.303C426.964 377.217 427.509 377.077 427.85 376.881C428.2 376.685 428.374 376.344 428.374 375.858V375.756C428.374 374.494 428.029 373.514 427.339 372.815C426.657 372.116 425.621 371.767 424.232 371.767C422.792 371.767 421.663 372.082 420.844 372.713C420.026 373.344 419.451 374.017 419.119 374.733L416.255 373.71C416.766 372.517 417.448 371.588 418.3 370.923C419.161 370.25 420.099 369.781 421.113 369.517C422.136 369.244 423.141 369.108 424.13 369.108C424.761 369.108 425.485 369.185 426.303 369.338C427.13 369.483 427.927 369.786 428.694 370.246C429.469 370.706 430.113 371.401 430.624 372.33C431.136 373.259 431.391 374.503 431.391 376.062V389H428.374V386.341H428.221C428.016 386.767 427.675 387.223 427.198 387.709C426.721 388.195 426.086 388.608 425.293 388.949C424.501 389.29 423.533 389.46 422.391 389.46ZM422.852 386.75C424.045 386.75 425.05 386.516 425.869 386.047C426.695 385.578 427.317 384.973 427.735 384.232C428.161 383.49 428.374 382.71 428.374 381.892V379.131C428.246 379.284 427.965 379.425 427.531 379.553C427.104 379.672 426.61 379.778 426.048 379.872C425.494 379.957 424.952 380.034 424.424 380.102C423.904 380.162 423.482 380.213 423.158 380.256C422.374 380.358 421.641 380.524 420.96 380.754C420.286 380.976 419.741 381.312 419.323 381.764C418.914 382.207 418.71 382.812 418.71 383.58C418.71 384.628 419.097 385.42 419.873 385.957C420.657 386.486 421.65 386.75 422.852 386.75ZM435.671 383.989H438.892C438.961 384.875 439.361 385.548 440.094 386.009C440.836 386.469 441.799 386.699 442.983 386.699C444.194 386.699 445.229 386.452 446.09 385.957C446.951 385.455 447.381 384.645 447.381 383.528C447.381 382.872 447.219 382.301 446.895 381.815C446.571 381.321 446.115 380.937 445.527 380.665C444.939 380.392 444.245 380.256 443.444 380.256H440.069V377.545H443.444C444.645 377.545 445.532 377.273 446.103 376.727C446.682 376.182 446.972 375.5 446.972 374.682C446.972 373.804 446.661 373.101 446.039 372.572C445.417 372.036 444.534 371.767 443.392 371.767C442.242 371.767 441.283 372.027 440.516 372.547C439.749 373.058 439.344 373.719 439.301 374.528H436.131C436.165 373.472 436.489 372.538 437.103 371.729C437.716 370.911 438.551 370.271 439.608 369.811C440.665 369.342 441.875 369.108 443.239 369.108C444.62 369.108 445.817 369.351 446.831 369.837C447.854 370.314 448.642 370.966 449.196 371.793C449.759 372.611 450.04 373.54 450.04 374.58C450.04 375.688 449.729 376.582 449.107 377.264C448.485 377.946 447.705 378.432 446.767 378.722V378.926C447.509 378.977 448.152 379.216 448.698 379.642C449.252 380.06 449.682 380.609 449.989 381.291C450.296 381.964 450.449 382.71 450.449 383.528C450.449 384.722 450.13 385.761 449.49 386.648C448.851 387.526 447.973 388.207 446.857 388.693C445.74 389.17 444.466 389.409 443.034 389.409C441.645 389.409 440.401 389.183 439.301 388.732C438.202 388.271 437.328 387.636 436.681 386.827C436.042 386.009 435.705 385.062 435.671 383.989ZM454.687 396.364V369.364H457.602V372.483H457.96C458.181 372.142 458.488 371.707 458.88 371.179C459.281 370.642 459.852 370.165 460.593 369.747C461.343 369.321 462.358 369.108 463.636 369.108C465.289 369.108 466.747 369.521 468.008 370.348C469.27 371.175 470.254 372.347 470.961 373.864C471.669 375.381 472.022 377.17 472.022 379.233C472.022 381.312 471.669 383.115 470.961 384.641C470.254 386.158 469.274 387.334 468.021 388.169C466.768 388.996 465.324 389.409 463.687 389.409C462.426 389.409 461.416 389.2 460.657 388.783C459.899 388.357 459.315 387.875 458.906 387.338C458.497 386.793 458.181 386.341 457.96 385.983H457.704V396.364H454.687ZM457.653 379.182C457.653 380.665 457.87 381.973 458.305 383.107C458.74 384.232 459.375 385.114 460.21 385.753C461.045 386.384 462.068 386.699 463.278 386.699C464.539 386.699 465.592 386.366 466.436 385.702C467.288 385.028 467.927 384.125 468.353 382.991C468.788 381.849 469.005 380.58 469.005 379.182C469.005 377.801 468.792 376.557 468.366 375.449C467.949 374.332 467.314 373.45 466.461 372.803C465.618 372.146 464.556 371.818 463.278 371.818C462.051 371.818 461.02 372.129 460.184 372.751C459.349 373.365 458.718 374.226 458.292 375.334C457.866 376.433 457.653 377.716 457.653 379.182ZM482.403 389.46C481.159 389.46 480.029 389.226 479.015 388.757C478.001 388.28 477.196 387.594 476.599 386.699C476.002 385.795 475.704 384.705 475.704 383.426C475.704 382.301 475.926 381.389 476.369 380.69C476.812 379.983 477.404 379.429 478.146 379.028C478.887 378.628 479.706 378.33 480.6 378.134C481.504 377.929 482.412 377.767 483.324 377.648C484.517 377.494 485.484 377.379 486.225 377.303C486.975 377.217 487.521 377.077 487.862 376.881C488.211 376.685 488.386 376.344 488.386 375.858V375.756C488.386 374.494 488.041 373.514 487.35 372.815C486.669 372.116 485.633 371.767 484.244 371.767C482.804 371.767 481.674 372.082 480.856 372.713C480.038 373.344 479.463 374.017 479.13 374.733L476.267 373.71C476.778 372.517 477.46 371.588 478.312 370.923C479.173 370.25 480.11 369.781 481.125 369.517C482.147 369.244 483.153 369.108 484.142 369.108C484.772 369.108 485.497 369.185 486.315 369.338C487.142 369.483 487.939 369.786 488.706 370.246C489.481 370.706 490.125 371.401 490.636 372.33C491.147 373.259 491.403 374.503 491.403 376.062V389H488.386V386.341H488.233C488.028 386.767 487.687 387.223 487.21 387.709C486.733 388.195 486.098 388.608 485.305 388.949C484.512 389.29 483.545 389.46 482.403 389.46ZM482.863 386.75C484.056 386.75 485.062 386.516 485.88 386.047C486.707 385.578 487.329 384.973 487.747 384.232C488.173 383.49 488.386 382.71 488.386 381.892V379.131C488.258 379.284 487.977 379.425 487.542 379.553C487.116 379.672 486.622 379.778 486.059 379.872C485.505 379.957 484.964 380.034 484.436 380.102C483.916 380.162 483.494 380.213 483.17 380.256C482.386 380.358 481.653 380.524 480.971 380.754C480.298 380.976 479.752 381.312 479.335 381.764C478.926 382.207 478.721 382.812 478.721 383.58C478.721 384.628 479.109 385.42 479.885 385.957C480.669 386.486 481.662 386.75 482.863 386.75ZM511.484 362L513.018 363.841C512.421 364.42 511.731 364.825 510.947 365.055C510.163 365.286 509.276 365.426 508.288 365.477C507.299 365.528 506.2 365.58 504.989 365.631C503.626 365.682 502.496 366.014 501.602 366.628C500.707 367.241 500.016 368.128 499.531 369.287C499.045 370.446 498.734 371.869 498.597 373.557H498.853C499.518 372.33 500.438 371.426 501.614 370.847C502.79 370.267 504.052 369.977 505.398 369.977C506.933 369.977 508.313 370.335 509.54 371.051C510.768 371.767 511.739 372.828 512.455 374.234C513.171 375.641 513.529 377.375 513.529 379.438C513.529 381.491 513.163 383.264 512.43 384.756C511.705 386.247 510.687 387.398 509.374 388.207C508.07 389.009 506.54 389.409 504.785 389.409C503.029 389.409 501.491 388.996 500.17 388.169C498.849 387.334 497.822 386.098 497.089 384.462C496.356 382.817 495.989 380.784 495.989 378.364V376.267C495.989 371.895 496.731 368.58 498.214 366.321C499.705 364.062 501.947 362.895 504.938 362.818C505.995 362.784 506.937 362.776 507.763 362.793C508.59 362.81 509.31 362.771 509.924 362.678C510.538 362.584 511.058 362.358 511.484 362ZM504.785 386.699C505.969 386.699 506.988 386.401 507.84 385.804C508.701 385.207 509.362 384.368 509.822 383.286C510.282 382.195 510.512 380.912 510.512 379.438C510.512 378.006 510.278 376.787 509.809 375.781C509.349 374.776 508.688 374.009 507.827 373.48C506.967 372.952 505.935 372.688 504.734 372.688C503.856 372.688 503.067 372.837 502.369 373.135C501.67 373.433 501.073 373.872 500.579 374.452C500.085 375.031 499.701 375.739 499.428 376.574C499.164 377.409 499.023 378.364 499.006 379.438C499.006 381.636 499.522 383.396 500.553 384.717C501.585 386.038 502.995 386.699 504.785 386.699ZM526.121 389.409C524.349 389.409 522.793 388.987 521.455 388.143C520.126 387.3 519.086 386.119 518.336 384.602C517.594 383.085 517.224 381.312 517.224 379.284C517.224 377.239 517.594 375.453 518.336 373.928C519.086 372.402 520.126 371.217 521.455 370.374C522.793 369.53 524.349 369.108 526.121 369.108C527.894 369.108 529.445 369.53 530.775 370.374C532.113 371.217 533.153 372.402 533.894 373.928C534.644 375.453 535.019 377.239 535.019 379.284C535.019 381.312 534.644 383.085 533.894 384.602C533.153 386.119 532.113 387.3 530.775 388.143C529.445 388.987 527.894 389.409 526.121 389.409ZM526.121 386.699C527.468 386.699 528.576 386.354 529.445 385.663C530.315 384.973 530.958 384.065 531.376 382.94C531.793 381.815 532.002 380.597 532.002 379.284C532.002 377.972 531.793 376.749 531.376 375.615C530.958 374.482 530.315 373.565 529.445 372.866C528.576 372.168 527.468 371.818 526.121 371.818C524.775 371.818 523.667 372.168 522.798 372.866C521.928 373.565 521.285 374.482 520.867 375.615C520.45 376.749 520.241 377.972 520.241 379.284C520.241 380.597 520.45 381.815 520.867 382.94C521.285 384.065 521.928 384.973 522.798 385.663C523.667 386.354 524.775 386.699 526.121 386.699ZM537.058 372.176V369.364H553.013V372.176H546.57V389H543.553V372.176H537.058ZM557.414 389V369.364H560.431V377.903H562.425L569.482 369.364H573.368L565.442 378.824L573.471 389H569.584L563.141 380.716H560.431V389H557.414ZM582.528 389.46C581.284 389.46 580.154 389.226 579.14 388.757C578.126 388.28 577.321 387.594 576.724 386.699C576.127 385.795 575.829 384.705 575.829 383.426C575.829 382.301 576.051 381.389 576.494 380.69C576.937 379.983 577.529 379.429 578.271 379.028C579.012 378.628 579.831 378.33 580.725 378.134C581.629 377.929 582.537 377.767 583.449 377.648C584.642 377.494 585.609 377.379 586.35 377.303C587.1 377.217 587.646 377.077 587.987 376.881C588.336 376.685 588.511 376.344 588.511 375.858V375.756C588.511 374.494 588.166 373.514 587.475 372.815C586.794 372.116 585.758 371.767 584.369 371.767C582.929 371.767 581.799 372.082 580.981 372.713C580.163 373.344 579.588 374.017 579.255 374.733L576.392 373.71C576.903 372.517 577.585 371.588 578.437 370.923C579.298 370.25 580.235 369.781 581.25 369.517C582.272 369.244 583.278 369.108 584.267 369.108C584.897 369.108 585.622 369.185 586.44 369.338C587.267 369.483 588.064 369.786 588.831 370.246C589.606 370.706 590.25 371.401 590.761 372.33C591.272 373.259 591.528 374.503 591.528 376.062V389H588.511V386.341H588.358C588.153 386.767 587.812 387.223 587.335 387.709C586.858 388.195 586.223 388.608 585.43 388.949C584.637 389.29 583.67 389.46 582.528 389.46ZM582.988 386.75C584.181 386.75 585.187 386.516 586.005 386.047C586.832 385.578 587.454 384.973 587.872 384.232C588.298 383.49 588.511 382.71 588.511 381.892V379.131C588.383 379.284 588.102 379.425 587.667 379.553C587.241 379.672 586.747 379.778 586.184 379.872C585.63 379.957 585.089 380.034 584.561 380.102C584.041 380.162 583.619 380.213 583.295 380.256C582.511 380.358 581.778 380.524 581.096 380.754C580.423 380.976 579.877 381.312 579.46 381.764C579.051 382.207 578.846 382.812 578.846 383.58C578.846 384.628 579.234 385.42 580.01 385.957C580.794 386.486 581.787 386.75 582.988 386.75ZM607.16 389V369.364H610.177V377.903H612.171L619.228 369.364H623.114L615.188 378.824L623.217 389H619.33L612.887 380.716H610.177V389H607.16ZM632.274 389.46C631.03 389.46 629.901 389.226 628.886 388.757C627.872 388.28 627.067 387.594 626.47 386.699C625.874 385.795 625.575 384.705 625.575 383.426C625.575 382.301 625.797 381.389 626.24 380.69C626.683 379.983 627.276 379.429 628.017 379.028C628.759 378.628 629.577 378.33 630.472 378.134C631.375 377.929 632.283 377.767 633.195 377.648C634.388 377.494 635.355 377.379 636.097 377.303C636.847 377.217 637.392 377.077 637.733 376.881C638.082 376.685 638.257 376.344 638.257 375.858V375.756C638.257 374.494 637.912 373.514 637.222 372.815C636.54 372.116 635.504 371.767 634.115 371.767C632.675 371.767 631.545 372.082 630.727 372.713C629.909 373.344 629.334 374.017 629.001 374.733L626.138 373.71C626.649 372.517 627.331 371.588 628.183 370.923C629.044 370.25 629.982 369.781 630.996 369.517C632.018 369.244 633.024 369.108 634.013 369.108C634.643 369.108 635.368 369.185 636.186 369.338C637.013 369.483 637.81 369.786 638.577 370.246C639.352 370.706 639.996 371.401 640.507 372.33C641.018 373.259 641.274 374.503 641.274 376.062V389H638.257V386.341H638.104C637.899 386.767 637.558 387.223 637.081 387.709C636.604 388.195 635.969 388.608 635.176 388.949C634.384 389.29 633.416 389.46 632.274 389.46ZM632.734 386.75C633.928 386.75 634.933 386.516 635.751 386.047C636.578 385.578 637.2 384.973 637.618 384.232C638.044 383.49 638.257 382.71 638.257 381.892V379.131C638.129 379.284 637.848 379.425 637.413 379.553C636.987 379.672 636.493 379.778 635.93 379.872C635.376 379.957 634.835 380.034 634.307 380.102C633.787 380.162 633.365 380.213 633.041 380.256C632.257 380.358 631.524 380.524 630.842 380.754C630.169 380.976 629.624 381.312 629.206 381.764C628.797 382.207 628.592 382.812 628.592 383.58C628.592 384.628 628.98 385.42 629.756 385.957C630.54 386.486 631.533 386.75 632.734 386.75ZM646.781 389V369.364H649.798V377.903H651.792L658.849 369.364H662.735L654.809 378.824L662.838 389H658.951L652.508 380.716H649.798V389H646.781ZM673.286 389.409C671.513 389.409 669.957 388.987 668.619 388.143C667.29 387.3 666.25 386.119 665.5 384.602C664.759 383.085 664.388 381.312 664.388 379.284C664.388 377.239 664.759 375.453 665.5 373.928C666.25 372.402 667.29 371.217 668.619 370.374C669.957 369.53 671.513 369.108 673.286 369.108C675.058 369.108 676.609 369.53 677.939 370.374C679.277 371.217 680.317 372.402 681.058 373.928C681.808 375.453 682.183 377.239 682.183 379.284C682.183 381.312 681.808 383.085 681.058 384.602C680.317 386.119 679.277 387.3 677.939 388.143C676.609 388.987 675.058 389.409 673.286 389.409ZM673.286 386.699C674.632 386.699 675.74 386.354 676.609 385.663C677.479 384.973 678.122 384.065 678.54 382.94C678.957 381.815 679.166 380.597 679.166 379.284C679.166 377.972 678.957 376.749 678.54 375.615C678.122 374.482 677.479 373.565 676.609 372.866C675.74 372.168 674.632 371.818 673.286 371.818C671.939 371.818 670.831 372.168 669.962 372.866C669.092 373.565 668.449 374.482 668.031 375.615C667.614 376.749 667.405 377.972 667.405 379.284C667.405 380.597 667.614 381.815 668.031 382.94C668.449 384.065 669.092 384.973 669.962 385.663C670.831 386.354 671.939 386.699 673.286 386.699ZM698.908 369.364V372.176H689.806V389H686.789V369.364H698.908ZM710.27 389.409C708.497 389.409 706.942 388.987 705.604 388.143C704.274 387.3 703.234 386.119 702.484 384.602C701.743 383.085 701.372 381.312 701.372 379.284C701.372 377.239 701.743 375.453 702.484 373.928C703.234 372.402 704.274 371.217 705.604 370.374C706.942 369.53 708.497 369.108 710.27 369.108C712.043 369.108 713.594 369.53 714.923 370.374C716.261 371.217 717.301 372.402 718.043 373.928C718.793 375.453 719.168 377.239 719.168 379.284C719.168 381.312 718.793 383.085 718.043 384.602C717.301 386.119 716.261 387.3 714.923 388.143C713.594 388.987 712.043 389.409 710.27 389.409ZM710.27 386.699C711.616 386.699 712.724 386.354 713.594 385.663C714.463 384.973 715.107 384.065 715.524 382.94C715.942 381.815 716.151 380.597 716.151 379.284C716.151 377.972 715.942 376.749 715.524 375.615C715.107 374.482 714.463 373.565 713.594 372.866C712.724 372.168 711.616 371.818 710.27 371.818C708.923 371.818 707.815 372.168 706.946 372.866C706.077 373.565 705.433 374.482 705.016 375.615C704.598 376.749 704.389 377.972 704.389 379.284C704.389 380.597 704.598 381.815 705.016 382.94C705.433 384.065 706.077 384.973 706.946 385.663C707.815 386.354 708.923 386.699 710.27 386.699ZM735.023 376.369V379.182H723.569V376.369H735.023ZM738.187 372.176V369.364H754.142V372.176H747.699V389H744.681V372.176H738.187ZM765.5 389.409C763.728 389.409 762.172 388.987 760.834 388.143C759.505 387.3 758.465 386.119 757.715 384.602C756.973 383.085 756.603 381.312 756.603 379.284C756.603 377.239 756.973 375.453 757.715 373.928C758.465 372.402 759.505 371.217 760.834 370.374C762.172 369.53 763.728 369.108 765.5 369.108C767.273 369.108 768.824 369.53 770.154 370.374C771.492 371.217 772.532 372.402 773.273 373.928C774.023 375.453 774.398 377.239 774.398 379.284C774.398 381.312 774.023 383.085 773.273 384.602C772.532 386.119 771.492 387.3 770.154 388.143C768.824 388.987 767.273 389.409 765.5 389.409ZM765.5 386.699C766.847 386.699 767.955 386.354 768.824 385.663C769.694 384.973 770.337 384.065 770.755 382.94C771.172 381.815 771.381 380.597 771.381 379.284C771.381 377.972 771.172 376.749 770.755 375.615C770.337 374.482 769.694 373.565 768.824 372.866C767.955 372.168 766.847 371.818 765.5 371.818C764.154 371.818 763.046 372.168 762.176 372.866C761.307 373.565 760.664 374.482 760.246 375.615C759.828 376.749 759.62 377.972 759.62 379.284C759.62 380.597 759.828 381.815 760.246 382.94C760.664 384.065 761.307 384.973 762.176 385.663C763.046 386.354 764.154 386.699 765.5 386.699ZM809.123 362.818V389H805.952V365.631H792.759V389H789.589V362.818H809.123ZM837.609 375.909C837.609 378.67 837.11 381.057 836.113 383.068C835.116 385.08 833.748 386.631 832.01 387.722C830.271 388.812 828.285 389.358 826.052 389.358C823.819 389.358 821.833 388.812 820.095 387.722C818.356 386.631 816.988 385.08 815.991 383.068C814.994 381.057 814.495 378.67 814.495 375.909C814.495 373.148 814.994 370.761 815.991 368.75C816.988 366.739 818.356 365.188 820.095 364.097C821.833 363.006 823.819 362.46 826.052 362.46C828.285 362.46 830.271 363.006 832.01 364.097C833.748 365.188 835.116 366.739 836.113 368.75C837.11 370.761 837.609 373.148 837.609 375.909ZM834.541 375.909C834.541 373.642 834.162 371.729 833.403 370.169C832.653 368.609 831.635 367.429 830.348 366.628C829.069 365.827 827.637 365.426 826.052 365.426C824.467 365.426 823.031 365.827 821.744 366.628C820.466 367.429 819.447 368.609 818.689 370.169C817.939 371.729 817.564 373.642 817.564 375.909C817.564 378.176 817.939 380.089 818.689 381.649C819.447 383.209 820.466 384.389 821.744 385.19C823.031 385.991 824.467 386.392 826.052 386.392C827.637 386.392 829.069 385.991 830.348 385.19C831.635 384.389 832.653 383.209 833.403 381.649C834.162 380.089 834.541 378.176 834.541 375.909Z" fill="black"/>
<rect x="488" y="455" width="266" height="73" stroke="#120883" stroke-width="4"/>
<mask id="path-24-outside-1_54_2" maskUnits="userSpaceOnUse" x="537" y="480" width="167" height="26" fill="black">
<rect fill="white" x="537" y="480" width="167" height="26"/>
<path d="M550.378 482.545V500H549.304V483.534H539.307V500H538.241V482.545H550.378ZM557.893 504.909V486.909H558.908V489.832H559.035C559.24 489.27 559.527 488.753 559.896 488.281C560.271 487.81 560.734 487.432 561.285 487.148C561.842 486.858 562.496 486.713 563.246 486.713C564.303 486.713 565.223 487.003 566.007 487.582C566.791 488.162 567.399 488.963 567.831 489.986C568.263 491.003 568.479 492.17 568.479 493.489C568.479 494.807 568.26 495.977 567.822 497C567.391 498.017 566.783 498.818 565.999 499.403C565.22 499.983 564.308 500.273 563.263 500.273C562.518 500.273 561.865 500.131 561.303 499.847C560.746 499.562 560.277 499.185 559.896 498.713C559.521 498.236 559.234 497.713 559.035 497.145H558.933V504.909H557.893ZM558.916 493.48C558.916 494.594 559.087 495.591 559.428 496.472C559.768 497.347 560.257 498.04 560.893 498.551C561.53 499.057 562.288 499.31 563.169 499.31C564.061 499.31 564.825 499.054 565.462 498.543C566.104 498.026 566.592 497.327 566.928 496.446C567.268 495.565 567.439 494.577 567.439 493.48C567.439 492.384 567.271 491.398 566.936 490.523C566.601 489.648 566.115 488.957 565.479 488.452C564.842 487.94 564.072 487.685 563.169 487.685C562.277 487.685 561.513 487.937 560.876 488.443C560.246 488.943 559.76 489.631 559.419 490.506C559.084 491.375 558.916 492.366 558.916 493.48ZM576.233 498.645L583.741 486.909H585.062V500H584.023V488.264L576.523 500H575.193V486.909H576.233V498.645ZM597.359 500.273C596.28 500.273 595.32 499.983 594.479 499.403C593.638 498.818 592.976 498.014 592.493 496.991C592.01 495.969 591.768 494.804 591.768 493.497C591.768 492.185 592.01 491.02 592.493 490.003C592.976 488.98 593.638 488.176 594.479 487.591C595.32 487.006 596.28 486.713 597.359 486.713C598.439 486.713 599.399 487.006 600.24 487.591C601.081 488.176 601.743 488.98 602.226 490.003C602.709 491.026 602.95 492.19 602.95 493.497C602.95 494.804 602.709 495.969 602.226 496.991C601.743 498.014 601.081 498.818 600.24 499.403C599.399 499.983 598.439 500.273 597.359 500.273ZM597.359 499.31C598.274 499.31 599.072 499.051 599.754 498.534C600.442 498.017 600.973 497.318 601.348 496.438C601.729 495.557 601.919 494.577 601.919 493.497C601.919 492.418 601.729 491.44 601.348 490.565C600.967 489.685 600.436 488.986 599.754 488.469C599.072 487.946 598.274 487.685 597.359 487.685C596.445 487.685 595.646 487.946 594.964 488.469C594.283 488.986 593.751 489.685 593.371 490.565C592.99 491.44 592.8 492.418 592.8 493.497C592.8 494.577 592.987 495.557 593.362 496.438C593.743 497.318 594.274 498.017 594.956 498.534C595.643 499.051 596.445 499.31 597.359 499.31ZM618.805 482L619.359 482.69C619.035 483.009 618.638 483.216 618.166 483.312C617.7 483.409 617.186 483.46 616.623 483.466C616.061 483.472 615.481 483.491 614.885 483.526C613.76 483.582 612.845 483.884 612.141 484.429C611.436 484.974 610.905 485.747 610.547 486.747C610.189 487.747 609.976 488.969 609.908 490.412H610.061C610.493 489.446 611.118 488.69 611.936 488.145C612.754 487.594 613.672 487.318 614.689 487.318C615.672 487.318 616.558 487.571 617.348 488.077C618.143 488.582 618.771 489.312 619.231 490.267C619.697 491.216 619.93 492.361 619.93 493.702C619.93 495.026 619.7 496.179 619.24 497.162C618.785 498.145 618.146 498.909 617.322 499.455C616.498 500 615.538 500.273 614.442 500.273C613.317 500.273 612.342 500.014 611.518 499.497C610.694 498.98 610.055 498.222 609.601 497.222C609.152 496.216 608.927 494.983 608.927 493.523V492.168C608.927 488.986 609.396 486.608 610.334 485.034C611.277 483.46 612.76 482.631 614.783 482.545C615.368 482.517 615.91 482.509 616.41 482.52C616.916 482.531 617.371 482.506 617.774 482.443C618.177 482.381 618.521 482.233 618.805 482ZM614.442 499.31C615.345 499.31 616.129 499.077 616.794 498.611C617.464 498.145 617.981 497.494 618.345 496.659C618.709 495.818 618.891 494.832 618.891 493.702C618.891 492.577 618.703 491.611 618.328 490.804C617.959 489.991 617.444 489.369 616.785 488.938C616.132 488.5 615.379 488.281 614.527 488.281C613.817 488.281 613.18 488.432 612.618 488.733C612.055 489.034 611.578 489.446 611.186 489.969C610.794 490.491 610.493 491.088 610.283 491.759C610.072 492.429 609.964 493.134 609.959 493.872C609.959 495.582 610.356 496.918 611.152 497.878C611.953 498.832 613.05 499.31 614.442 499.31ZM626.647 504.909V486.909H627.661V489.832H627.789C627.993 489.27 628.28 488.753 628.65 488.281C629.025 487.81 629.488 487.432 630.039 487.148C630.596 486.858 631.249 486.713 631.999 486.713C633.056 486.713 633.976 487.003 634.761 487.582C635.545 488.162 636.153 488.963 636.584 489.986C637.016 491.003 637.232 492.17 637.232 493.489C637.232 494.807 637.013 495.977 636.576 497C636.144 498.017 635.536 498.818 634.752 499.403C633.974 499.983 633.062 500.273 632.016 500.273C631.272 500.273 630.618 500.131 630.056 499.847C629.499 499.562 629.03 499.185 628.65 498.713C628.275 498.236 627.988 497.713 627.789 497.145H627.687V504.909H626.647ZM627.67 493.48C627.67 494.594 627.84 495.591 628.181 496.472C628.522 497.347 629.011 498.04 629.647 498.551C630.283 499.057 631.042 499.31 631.922 499.31C632.814 499.31 633.579 499.054 634.215 498.543C634.857 498.026 635.346 497.327 635.681 496.446C636.022 495.565 636.192 494.577 636.192 493.48C636.192 492.384 636.025 491.398 635.689 490.523C635.354 489.648 634.868 488.957 634.232 488.452C633.596 487.94 632.826 487.685 631.922 487.685C631.03 487.685 630.266 487.937 629.63 488.443C628.999 488.943 628.513 489.631 628.172 490.506C627.837 491.375 627.67 492.366 627.67 493.48ZM649.052 500.273C647.87 500.273 646.841 499.98 645.966 499.395C645.091 498.81 644.415 498.009 643.938 496.991C643.461 495.974 643.222 494.815 643.222 493.514C643.222 492.207 643.461 491.043 643.938 490.02C644.421 488.997 645.083 488.19 645.924 487.599C646.765 487.009 647.725 486.713 648.805 486.713C649.537 486.713 650.231 486.861 650.884 487.156C651.543 487.446 652.123 487.866 652.623 488.418C653.128 488.969 653.523 489.634 653.807 490.412C654.097 491.19 654.242 492.065 654.242 493.037V493.685H643.878V492.739H653.202C653.202 491.79 653.009 490.935 652.623 490.173C652.236 489.412 651.711 488.807 651.046 488.358C650.381 487.909 649.634 487.685 648.805 487.685C647.935 487.685 647.16 487.929 646.478 488.418C645.802 488.901 645.265 489.554 644.867 490.378C644.475 491.202 644.27 492.122 644.253 493.139V493.565C644.253 494.656 644.444 495.636 644.824 496.506C645.211 497.369 645.762 498.054 646.478 498.56C647.194 499.06 648.052 499.31 649.052 499.31C649.768 499.31 650.378 499.19 650.884 498.952C651.395 498.707 651.813 498.412 652.137 498.065C652.461 497.719 652.705 497.384 652.87 497.06L653.816 497.443C653.617 497.881 653.307 498.318 652.887 498.756C652.472 499.187 651.944 499.548 651.302 499.838C650.665 500.128 649.915 500.273 649.052 500.273ZM665.851 500.273C664.737 500.273 663.757 499.98 662.91 499.395C662.064 498.804 661.402 497.997 660.925 496.974C660.453 495.952 660.217 494.793 660.217 493.497C660.217 492.202 660.456 491.043 660.933 490.02C661.41 488.997 662.072 488.19 662.919 487.599C663.765 487.009 664.74 486.713 665.842 486.713C666.672 486.713 667.427 486.884 668.109 487.224C668.797 487.565 669.365 488.04 669.814 488.648C670.268 489.256 670.558 489.96 670.683 490.761H669.626C669.456 489.875 669.03 489.142 668.348 488.562C667.672 487.977 666.839 487.685 665.851 487.685C664.964 487.685 664.175 487.935 663.481 488.435C662.788 488.929 662.243 489.614 661.845 490.489C661.447 491.358 661.248 492.355 661.248 493.48C661.248 494.588 661.442 495.582 661.828 496.463C662.214 497.338 662.754 498.031 663.447 498.543C664.14 499.054 664.942 499.31 665.851 499.31C666.493 499.31 667.078 499.182 667.606 498.926C668.14 498.67 668.586 498.307 668.944 497.835C669.302 497.364 669.538 496.812 669.652 496.182H670.709C670.584 496.989 670.3 497.699 669.856 498.312C669.413 498.926 668.848 499.406 668.16 499.753C667.473 500.099 666.703 500.273 665.851 500.273ZM676.258 487.898V486.909H686.076V487.898H681.712V500H680.672V487.898H676.258ZM693.698 498.645L701.206 486.909H702.527V500H701.488V488.264L693.988 500H692.658V486.909H693.698V498.645Z"/>
</mask>
<path d="M550.378 482.545V500H549.304V483.534H539.307V500H538.241V482.545H550.378ZM557.893 504.909V486.909H558.908V489.832H559.035C559.24 489.27 559.527 488.753 559.896 488.281C560.271 487.81 560.734 487.432 561.285 487.148C561.842 486.858 562.496 486.713 563.246 486.713C564.303 486.713 565.223 487.003 566.007 487.582C566.791 488.162 567.399 488.963 567.831 489.986C568.263 491.003 568.479 492.17 568.479 493.489C568.479 494.807 568.26 495.977 567.822 497C567.391 498.017 566.783 498.818 565.999 499.403C565.22 499.983 564.308 500.273 563.263 500.273C562.518 500.273 561.865 500.131 561.303 499.847C560.746 499.562 560.277 499.185 559.896 498.713C559.521 498.236 559.234 497.713 559.035 497.145H558.933V504.909H557.893ZM558.916 493.48C558.916 494.594 559.087 495.591 559.428 496.472C559.768 497.347 560.257 498.04 560.893 498.551C561.53 499.057 562.288 499.31 563.169 499.31C564.061 499.31 564.825 499.054 565.462 498.543C566.104 498.026 566.592 497.327 566.928 496.446C567.268 495.565 567.439 494.577 567.439 493.48C567.439 492.384 567.271 491.398 566.936 490.523C566.601 489.648 566.115 488.957 565.479 488.452C564.842 487.94 564.072 487.685 563.169 487.685C562.277 487.685 561.513 487.937 560.876 488.443C560.246 488.943 559.76 489.631 559.419 490.506C559.084 491.375 558.916 492.366 558.916 493.48ZM576.233 498.645L583.741 486.909H585.062V500H584.023V488.264L576.523 500H575.193V486.909H576.233V498.645ZM597.359 500.273C596.28 500.273 595.32 499.983 594.479 499.403C593.638 498.818 592.976 498.014 592.493 496.991C592.01 495.969 591.768 494.804 591.768 493.497C591.768 492.185 592.01 491.02 592.493 490.003C592.976 488.98 593.638 488.176 594.479 487.591C595.32 487.006 596.28 486.713 597.359 486.713C598.439 486.713 599.399 487.006 600.24 487.591C601.081 488.176 601.743 488.98 602.226 490.003C602.709 491.026 602.95 492.19 602.95 493.497C602.95 494.804 602.709 495.969 602.226 496.991C601.743 498.014 601.081 498.818 600.24 499.403C599.399 499.983 598.439 500.273 597.359 500.273ZM597.359 499.31C598.274 499.31 599.072 499.051 599.754 498.534C600.442 498.017 600.973 497.318 601.348 496.438C601.729 495.557 601.919 494.577 601.919 493.497C601.919 492.418 601.729 491.44 601.348 490.565C600.967 489.685 600.436 488.986 599.754 488.469C599.072 487.946 598.274 487.685 597.359 487.685C596.445 487.685 595.646 487.946 594.964 488.469C594.283 488.986 593.751 489.685 593.371 490.565C592.99 491.44 592.8 492.418 592.8 493.497C592.8 494.577 592.987 495.557 593.362 496.438C593.743 497.318 594.274 498.017 594.956 498.534C595.643 499.051 596.445 499.31 597.359 499.31ZM618.805 482L619.359 482.69C619.035 483.009 618.638 483.216 618.166 483.312C617.7 483.409 617.186 483.46 616.623 483.466C616.061 483.472 615.481 483.491 614.885 483.526C613.76 483.582 612.845 483.884 612.141 484.429C611.436 484.974 610.905 485.747 610.547 486.747C610.189 487.747 609.976 488.969 609.908 490.412H610.061C610.493 489.446 611.118 488.69 611.936 488.145C612.754 487.594 613.672 487.318 614.689 487.318C615.672 487.318 616.558 487.571 617.348 488.077C618.143 488.582 618.771 489.312 619.231 490.267C619.697 491.216 619.93 492.361 619.93 493.702C619.93 495.026 619.7 496.179 619.24 497.162C618.785 498.145 618.146 498.909 617.322 499.455C616.498 500 615.538 500.273 614.442 500.273C613.317 500.273 612.342 500.014 611.518 499.497C610.694 498.98 610.055 498.222 609.601 497.222C609.152 496.216 608.927 494.983 608.927 493.523V492.168C608.927 488.986 609.396 486.608 610.334 485.034C611.277 483.46 612.76 482.631 614.783 482.545C615.368 482.517 615.91 482.509 616.41 482.52C616.916 482.531 617.371 482.506 617.774 482.443C618.177 482.381 618.521 482.233 618.805 482ZM614.442 499.31C615.345 499.31 616.129 499.077 616.794 498.611C617.464 498.145 617.981 497.494 618.345 496.659C618.709 495.818 618.891 494.832 618.891 493.702C618.891 492.577 618.703 491.611 618.328 490.804C617.959 489.991 617.444 489.369 616.785 488.938C616.132 488.5 615.379 488.281 614.527 488.281C613.817 488.281 613.18 488.432 612.618 488.733C612.055 489.034 611.578 489.446 611.186 489.969C610.794 490.491 610.493 491.088 610.283 491.759C610.072 492.429 609.964 493.134 609.959 493.872C609.959 495.582 610.356 496.918 611.152 497.878C611.953 498.832 613.05 499.31 614.442 499.31ZM626.647 504.909V486.909H627.661V489.832H627.789C627.993 489.27 628.28 488.753 628.65 488.281C629.025 487.81 629.488 487.432 630.039 487.148C630.596 486.858 631.249 486.713 631.999 486.713C633.056 486.713 633.976 487.003 634.761 487.582C635.545 488.162 636.153 488.963 636.584 489.986C637.016 491.003 637.232 492.17 637.232 493.489C637.232 494.807 637.013 495.977 636.576 497C636.144 498.017 635.536 498.818 634.752 499.403C633.974 499.983 633.062 500.273 632.016 500.273C631.272 500.273 630.618 500.131 630.056 499.847C629.499 499.562 629.03 499.185 628.65 498.713C628.275 498.236 627.988 497.713 627.789 497.145H627.687V504.909H626.647ZM627.67 493.48C627.67 494.594 627.84 495.591 628.181 496.472C628.522 497.347 629.011 498.04 629.647 498.551C630.283 499.057 631.042 499.31 631.922 499.31C632.814 499.31 633.579 499.054 634.215 498.543C634.857 498.026 635.346 497.327 635.681 496.446C636.022 495.565 636.192 494.577 636.192 493.48C636.192 492.384 636.025 491.398 635.689 490.523C635.354 489.648 634.868 488.957 634.232 488.452C633.596 487.94 632.826 487.685 631.922 487.685C631.03 487.685 630.266 487.937 629.63 488.443C628.999 488.943 628.513 489.631 628.172 490.506C627.837 491.375 627.67 492.366 627.67 493.48ZM649.052 500.273C647.87 500.273 646.841 499.98 645.966 499.395C645.091 498.81 644.415 498.009 643.938 496.991C643.461 495.974 643.222 494.815 643.222 493.514C643.222 492.207 643.461 491.043 643.938 490.02C644.421 488.997 645.083 488.19 645.924 487.599C646.765 487.009 647.725 486.713 648.805 486.713C649.537 486.713 650.231 486.861 650.884 487.156C651.543 487.446 652.123 487.866 652.623 488.418C653.128 488.969 653.523 489.634 653.807 490.412C654.097 491.19 654.242 492.065 654.242 493.037V493.685H643.878V492.739H653.202C653.202 491.79 653.009 490.935 652.623 490.173C652.236 489.412 651.711 488.807 651.046 488.358C650.381 487.909 649.634 487.685 648.805 487.685C647.935 487.685 647.16 487.929 646.478 488.418C645.802 488.901 645.265 489.554 644.867 490.378C644.475 491.202 644.27 492.122 644.253 493.139V493.565C644.253 494.656 644.444 495.636 644.824 496.506C645.211 497.369 645.762 498.054 646.478 498.56C647.194 499.06 648.052 499.31 649.052 499.31C649.768 499.31 650.378 499.19 650.884 498.952C651.395 498.707 651.813 498.412 652.137 498.065C652.461 497.719 652.705 497.384 652.87 497.06L653.816 497.443C653.617 497.881 653.307 498.318 652.887 498.756C652.472 499.187 651.944 499.548 651.302 499.838C650.665 500.128 649.915 500.273 649.052 500.273ZM665.851 500.273C664.737 500.273 663.757 499.98 662.91 499.395C662.064 498.804 661.402 497.997 660.925 496.974C660.453 495.952 660.217 494.793 660.217 493.497C660.217 492.202 660.456 491.043 660.933 490.02C661.41 488.997 662.072 488.19 662.919 487.599C663.765 487.009 664.74 486.713 665.842 486.713C666.672 486.713 667.427 486.884 668.109 487.224C668.797 487.565 669.365 488.04 669.814 488.648C670.268 489.256 670.558 489.96 670.683 490.761H669.626C669.456 489.875 669.03 489.142 668.348 488.562C667.672 487.977 666.839 487.685 665.851 487.685C664.964 487.685 664.175 487.935 663.481 488.435C662.788 488.929 662.243 489.614 661.845 490.489C661.447 491.358 661.248 492.355 661.248 493.48C661.248 494.588 661.442 495.582 661.828 496.463C662.214 497.338 662.754 498.031 663.447 498.543C664.14 499.054 664.942 499.31 665.851 499.31C666.493 499.31 667.078 499.182 667.606 498.926C668.14 498.67 668.586 498.307 668.944 497.835C669.302 497.364 669.538 496.812 669.652 496.182H670.709C670.584 496.989 670.3 497.699 669.856 498.312C669.413 498.926 668.848 499.406 668.16 499.753C667.473 500.099 666.703 500.273 665.851 500.273ZM676.258 487.898V486.909H686.076V487.898H681.712V500H680.672V487.898H676.258ZM693.698 498.645L701.206 486.909H702.527V500H701.488V488.264L693.988 500H692.658V486.909H693.698V498.645Z" fill="#120883"/>
<path d="M550.378 482.545H551.378V481.545H550.378V482.545ZM550.378 500V501H551.378V500H550.378ZM549.304 500H548.304V501H549.304V500ZM549.304 483.534H550.304V482.534H549.304V483.534ZM539.307 483.534V482.534H538.307V483.534H539.307ZM539.307 500V501H540.307V500H539.307ZM538.241 500H537.241V501H538.241V500ZM538.241 482.545V481.545H537.241V482.545H538.241ZM549.378 482.545V500H551.378V482.545H549.378ZM550.378 499H549.304V501H550.378V499ZM550.304 500V483.534H548.304V500H550.304ZM549.304 482.534H539.307V484.534H549.304V482.534ZM538.307 483.534V500H540.307V483.534H538.307ZM539.307 499H538.241V501H539.307V499ZM539.241 500V482.545H537.241V500H539.241ZM538.241 483.545H550.378V481.545H538.241V483.545ZM557.893 504.909H556.893V505.909H557.893V504.909ZM557.893 486.909V485.909H556.893V486.909H557.893ZM558.908 486.909H559.908V485.909H558.908V486.909ZM558.908 489.832H557.908V490.832H558.908V489.832ZM559.035 489.832V490.832H559.736L559.975 490.174L559.035 489.832ZM559.896 488.281L559.114 487.659L559.109 487.665L559.896 488.281ZM561.285 487.148L561.744 488.037L561.747 488.035L561.285 487.148ZM566.007 487.582L565.413 488.387V488.387L566.007 487.582ZM567.831 489.986L566.91 490.375L566.91 490.377L567.831 489.986ZM567.822 497L566.903 496.607L566.902 496.609L567.822 497ZM565.999 499.403L566.596 500.206L566.597 500.205L565.999 499.403ZM561.303 499.847L560.848 500.737L560.852 500.739L561.303 499.847ZM559.896 498.713L559.11 499.331L559.118 499.341L559.896 498.713ZM559.035 497.145L559.979 496.815L559.745 496.145H559.035V497.145ZM558.933 497.145V496.145H557.933V497.145H558.933ZM558.933 504.909V505.909H559.933V504.909H558.933ZM559.428 496.472L558.495 496.833L558.496 496.835L559.428 496.472ZM560.893 498.551L560.267 499.331L560.271 499.334L560.893 498.551ZM565.462 498.543L566.088 499.322L566.089 499.321L565.462 498.543ZM566.928 496.446L565.995 496.085L565.993 496.09L566.928 496.446ZM566.936 490.523L567.87 490.165V490.165L566.936 490.523ZM565.479 488.452L564.852 489.231L564.857 489.235L565.479 488.452ZM560.876 488.443L561.498 489.227L561.499 489.226L560.876 488.443ZM559.419 490.506L558.487 490.143L558.486 490.146L559.419 490.506ZM558.893 504.909V486.909H556.893V504.909H558.893ZM557.893 487.909H558.908V485.909H557.893V487.909ZM557.908 486.909V489.832H559.908V486.909H557.908ZM558.908 490.832H559.035V488.832H558.908V490.832ZM559.975 490.174C560.144 489.711 560.379 489.286 560.684 488.898L559.109 487.665C558.675 488.219 558.336 488.829 558.096 489.491L559.975 490.174ZM560.679 488.904C560.963 488.546 561.315 488.258 561.744 488.037L560.827 486.259C560.154 486.606 559.579 487.073 559.114 487.659L560.679 488.904ZM561.747 488.035C562.136 487.832 562.625 487.713 563.246 487.713V485.713C562.366 485.713 561.548 485.884 560.824 486.261L561.747 488.035ZM563.246 487.713C564.108 487.713 564.815 487.945 565.413 488.387L566.601 486.778C565.631 486.061 564.498 485.713 563.246 485.713V487.713ZM565.413 488.387C566.033 488.845 566.538 489.494 566.91 490.375L568.752 489.597C568.26 488.432 567.549 487.478 566.601 486.778L565.413 488.387ZM566.91 490.377C567.281 491.249 567.479 492.279 567.479 493.489H569.479C569.479 492.062 569.245 490.757 568.751 489.595L566.91 490.377ZM567.479 493.489C567.479 494.696 567.278 495.729 566.903 496.607L568.742 497.393C569.241 496.225 569.479 494.917 569.479 493.489H567.479ZM566.902 496.609C566.53 497.485 566.025 498.136 565.4 498.602L566.597 500.205C567.54 499.501 568.251 498.549 568.743 497.391L566.902 496.609ZM565.401 498.601C564.809 499.042 564.111 499.273 563.263 499.273V501.273C564.506 501.273 565.631 500.924 566.596 500.206L565.401 498.601ZM563.263 499.273C562.647 499.273 562.153 499.156 561.753 498.954L560.852 500.739C561.577 501.106 562.39 501.273 563.263 501.273V499.273ZM561.757 498.956C561.321 498.734 560.964 498.444 560.674 498.085L559.118 499.341C559.59 499.926 560.17 500.391 560.848 500.737L561.757 498.956ZM560.683 498.095C560.375 497.704 560.142 497.278 559.979 496.815L558.092 497.475C558.327 498.148 558.668 498.768 559.11 499.331L560.683 498.095ZM559.035 496.145H558.933V498.145H559.035V496.145ZM557.933 497.145V504.909H559.933V497.145H557.933ZM558.933 503.909H557.893V505.909H558.933V503.909ZM557.916 493.48C557.916 494.696 558.102 495.818 558.495 496.833L560.36 496.111C560.071 495.364 559.916 494.492 559.916 493.48H557.916ZM558.496 496.835C558.891 497.848 559.475 498.694 560.267 499.331L561.52 497.772C561.039 497.386 560.646 496.845 560.359 496.109L558.496 496.835ZM560.271 499.334C561.1 499.992 562.083 500.31 563.169 500.31V498.31C562.494 498.31 561.96 498.121 561.516 497.768L560.271 499.334ZM563.169 500.31C564.266 500.31 565.257 499.99 566.088 499.322L564.835 497.763C564.393 498.118 563.856 498.31 563.169 498.31V500.31ZM566.089 499.321C566.888 498.678 567.473 497.824 567.862 496.802L565.993 496.09C565.712 496.829 565.319 497.373 564.834 497.764L566.089 499.321ZM567.86 496.807C568.252 495.794 568.439 494.681 568.439 493.48H566.439C566.439 494.473 566.285 495.336 565.995 496.085L567.86 496.807ZM568.439 493.48C568.439 492.282 568.256 491.172 567.87 490.165L566.002 490.88C566.287 491.624 566.439 492.485 566.439 493.48H568.439ZM567.87 490.165C567.481 489.149 566.897 488.302 566.101 487.669L564.857 489.235C565.333 489.613 565.721 490.147 566.002 490.88L567.87 490.165ZM566.105 487.672C565.272 487.003 564.274 486.685 563.169 486.685V488.685C563.87 488.685 564.413 488.878 564.852 489.231L566.105 487.672ZM563.169 486.685C562.074 486.685 561.085 487 560.254 487.66L561.499 489.226C561.94 488.875 562.479 488.685 563.169 488.685V486.685ZM560.255 487.66C559.464 488.287 558.882 489.13 558.487 490.143L560.351 490.869C560.638 490.131 561.028 489.599 561.498 489.227L560.255 487.66ZM558.486 490.146C558.099 491.15 557.916 492.267 557.916 493.48H559.916C559.916 492.466 560.069 491.6 560.352 490.865L558.486 490.146ZM576.233 498.645H575.233V502.063L577.075 499.184L576.233 498.645ZM583.741 486.909V485.909H583.194L582.899 486.37L583.741 486.909ZM585.062 486.909H586.062V485.909H585.062V486.909ZM585.062 500V501H586.062V500H585.062ZM584.023 500H583.023V501H584.023V500ZM584.023 488.264H585.023V484.842L583.18 487.726L584.023 488.264ZM576.523 500V501H577.07L577.365 500.538L576.523 500ZM575.193 500H574.193V501H575.193V500ZM575.193 486.909V485.909H574.193V486.909H575.193ZM576.233 486.909H577.233V485.909H576.233V486.909ZM577.075 499.184L584.584 487.448L582.899 486.37L575.391 498.106L577.075 499.184ZM583.741 487.909H585.062V485.909H583.741V487.909ZM584.062 486.909V500H586.062V486.909H584.062ZM585.062 499H584.023V501H585.062V499ZM585.023 500V488.264H583.023V500H585.023ZM583.18 487.726L575.68 499.462L577.365 500.538L584.865 488.803L583.18 487.726ZM576.523 499H575.193V501H576.523V499ZM576.193 500V486.909H574.193V500H576.193ZM575.193 487.909H576.233V485.909H575.193V487.909ZM575.233 486.909V498.645H577.233V486.909H575.233ZM594.479 499.403L593.907 500.224L593.911 500.227L594.479 499.403ZM592.493 496.991L591.589 497.418L592.493 496.991ZM592.493 490.003L593.396 490.432L593.397 490.43L592.493 490.003ZM594.479 487.591L593.907 486.77L594.479 487.591ZM600.24 487.591L600.811 486.77L600.24 487.591ZM602.226 490.003L603.13 489.576L602.226 490.003ZM602.226 496.991L601.322 496.564L602.226 496.991ZM600.24 499.403L600.807 500.227L600.811 500.224L600.24 499.403ZM599.754 498.534L599.153 497.735L599.15 497.737L599.754 498.534ZM601.348 496.438L600.43 496.041L600.428 496.046L601.348 496.438ZM601.348 490.565L600.43 490.962L600.431 490.964L601.348 490.565ZM599.754 488.469L599.146 489.262L599.15 489.266L599.754 488.469ZM594.964 488.469L595.569 489.266L595.573 489.262L594.964 488.469ZM593.371 490.565L594.288 490.964L594.289 490.962L593.371 490.565ZM593.362 496.438L592.442 496.829L592.444 496.834L593.362 496.438ZM594.956 498.534L594.352 499.331L594.355 499.333L594.956 498.534ZM597.359 499.273C596.47 499.273 595.71 499.038 595.046 498.58L593.911 500.227C594.929 500.928 596.089 501.273 597.359 501.273V499.273ZM595.05 498.583C594.367 498.107 593.813 497.446 593.397 496.564L591.589 497.418C592.138 498.582 592.908 499.529 593.907 500.224L595.05 498.583ZM593.397 496.564C592.986 495.695 592.768 494.679 592.768 493.497H590.768C590.768 494.929 591.033 496.243 591.589 497.418L593.397 496.564ZM592.768 493.497C592.768 492.309 592.987 491.294 593.396 490.432L591.589 489.574C591.033 490.745 590.768 492.061 590.768 493.497H592.768ZM593.397 490.43C593.813 489.548 594.367 488.887 595.05 488.412L593.907 486.77C592.908 487.465 592.138 488.412 591.589 489.576L593.397 490.43ZM595.05 488.412C595.714 487.95 596.472 487.713 597.359 487.713V485.713C596.087 485.713 594.925 486.062 593.907 486.77L595.05 488.412ZM597.359 487.713C598.246 487.713 599.005 487.95 599.669 488.412L600.811 486.77C599.793 486.062 598.631 485.713 597.359 485.713V487.713ZM599.669 488.412C600.352 488.887 600.905 489.548 601.322 490.43L603.13 489.576C602.58 488.412 601.81 487.465 600.811 486.77L599.669 488.412ZM601.322 490.43C601.732 491.3 601.95 492.315 601.95 493.497H603.95C603.95 492.066 603.685 490.751 603.13 489.576L601.322 490.43ZM601.95 493.497C601.95 494.679 601.732 495.695 601.322 496.564L603.13 497.418C603.685 496.243 603.95 494.929 603.95 493.497H601.95ZM601.322 496.564C600.905 497.446 600.352 498.107 599.669 498.583L600.811 500.224C601.81 499.529 602.58 498.582 603.13 497.418L601.322 496.564ZM599.673 498.58C599.008 499.038 598.248 499.273 597.359 499.273V501.273C598.629 501.273 599.79 500.928 600.807 500.227L599.673 498.58ZM597.359 500.31C598.476 500.31 599.49 499.989 600.358 499.331L599.15 497.737C598.654 498.113 598.072 498.31 597.359 498.31V500.31ZM600.355 499.333C601.198 498.699 601.832 497.853 602.268 496.829L600.428 496.046C600.114 496.784 599.685 497.335 599.153 497.735L600.355 499.333ZM602.266 496.834C602.707 495.814 602.919 494.696 602.919 493.497H600.919C600.919 494.457 600.75 495.3 600.43 496.041L602.266 496.834ZM602.919 493.497C602.919 492.298 602.707 491.183 602.265 490.166L600.431 490.964C600.75 491.698 600.919 492.537 600.919 493.497H602.919ZM602.266 490.169C601.825 489.149 601.194 488.305 600.358 487.672L599.15 489.266C599.678 489.666 600.109 490.22 600.43 490.962L602.266 490.169ZM600.363 487.675C599.495 487.01 598.479 486.685 597.359 486.685V488.685C598.069 488.685 598.65 488.882 599.146 489.262L600.363 487.675ZM597.359 486.685C596.24 486.685 595.224 487.01 594.356 487.675L595.573 489.262C596.068 488.882 596.649 488.685 597.359 488.685V486.685ZM594.36 487.672C593.525 488.305 592.893 489.149 592.453 490.169L594.289 490.962C594.609 490.22 595.04 489.666 595.569 489.266L594.36 487.672ZM592.454 490.166C592.011 491.183 591.8 492.298 591.8 493.497H593.8C593.8 492.537 593.968 491.698 594.288 490.964L592.454 490.166ZM591.8 493.497C591.8 494.694 592.008 495.81 592.442 496.829L594.282 496.046C593.966 495.304 593.8 494.459 593.8 493.497H591.8ZM592.444 496.834C592.885 497.854 593.517 498.698 594.352 499.331L595.56 497.737C595.032 497.336 594.601 496.783 594.28 496.041L592.444 496.834ZM594.355 499.333C595.227 499.989 596.242 500.31 597.359 500.31V498.31C596.647 498.31 596.06 498.113 595.557 497.735L594.355 499.333ZM618.805 482L619.585 481.374L618.953 480.586L618.171 481.227L618.805 482ZM619.359 482.69L620.06 483.404L620.705 482.77L620.139 482.064L619.359 482.69ZM618.166 483.312L617.965 482.333L617.963 482.333L618.166 483.312ZM616.623 483.466L616.613 482.466H616.613L616.623 483.466ZM614.885 483.526L614.935 484.524L614.942 484.524L614.885 483.526ZM612.141 484.429L612.753 485.22L612.141 484.429ZM610.547 486.747L609.605 486.41L610.547 486.747ZM609.908 490.412L608.909 490.365L608.859 491.412H609.908V490.412ZM610.061 490.412V491.412H610.709L610.974 490.82L610.061 490.412ZM611.936 488.145L612.491 488.977L612.495 488.974L611.936 488.145ZM617.348 488.077L616.809 488.919L616.811 488.921L617.348 488.077ZM619.231 490.267L618.331 490.701L618.334 490.708L619.231 490.267ZM619.24 497.162L618.334 496.738L618.332 496.742L619.24 497.162ZM611.518 499.497L610.987 500.344L611.518 499.497ZM609.601 497.222L608.688 497.629L608.69 497.635L609.601 497.222ZM610.334 485.034L609.476 484.52L609.475 484.522L610.334 485.034ZM614.783 482.545L614.825 483.545L614.831 483.544L614.783 482.545ZM616.41 482.52L616.388 483.52L616.388 483.52L616.41 482.52ZM616.794 498.611L616.223 497.79L616.22 497.792L616.794 498.611ZM618.345 496.659L619.262 497.058L619.263 497.056L618.345 496.659ZM618.328 490.804L617.418 491.218L617.421 491.225L618.328 490.804ZM616.785 488.938L616.229 489.768L616.237 489.774L616.785 488.938ZM612.618 488.733L612.146 487.851V487.851L612.618 488.733ZM611.186 489.969L611.986 490.569V490.569L611.186 489.969ZM610.283 491.759L609.328 491.459L610.283 491.759ZM609.959 493.872L608.959 493.864V493.872H609.959ZM611.152 497.878L610.382 498.516L610.386 498.521L611.152 497.878ZM618.025 482.626L618.579 483.316L620.139 482.064L619.585 481.374L618.025 482.626ZM618.658 481.977C618.481 482.152 618.26 482.272 617.965 482.333L618.367 484.292C619.015 484.159 619.59 483.865 620.06 483.404L618.658 481.977ZM617.963 482.333C617.571 482.415 617.122 482.461 616.613 482.466L616.634 484.466C617.25 484.46 617.829 484.404 618.369 484.292L617.963 482.333ZM616.613 482.466C616.034 482.472 615.439 482.492 614.828 482.527L614.942 484.524C615.524 484.491 616.088 484.471 616.634 484.466L616.613 482.466ZM614.834 482.527C613.559 482.591 612.433 482.938 611.528 483.638L612.753 485.22C613.258 484.829 613.96 484.574 614.935 484.524L614.834 482.527ZM611.528 483.638C610.646 484.321 610.015 485.266 609.605 486.41L611.488 487.084C611.794 486.229 612.226 485.628 612.753 485.22L611.528 483.638ZM609.605 486.41C609.204 487.53 608.98 488.856 608.909 490.365L610.906 490.459C610.972 489.082 611.173 487.964 611.488 487.084L609.605 486.41ZM609.908 491.412H610.061V489.412H609.908V491.412ZM610.974 490.82C611.335 490.013 611.841 489.41 612.491 488.977L611.381 487.313C610.394 487.971 609.651 488.879 609.148 490.004L610.974 490.82ZM612.495 488.974C613.142 488.538 613.864 488.318 614.689 488.318V486.318C613.479 486.318 612.366 486.65 611.377 487.316L612.495 488.974ZM614.689 488.318C615.49 488.318 616.188 488.521 616.809 488.919L617.887 487.235C616.928 486.621 615.853 486.318 614.689 486.318V488.318ZM616.811 488.921C617.431 489.314 617.941 489.893 618.331 490.701L620.132 489.833C619.601 488.732 618.856 487.85 617.884 487.233L616.811 488.921ZM618.334 490.708C618.717 491.488 618.93 492.474 618.93 493.702H620.93C620.93 492.248 620.678 490.944 620.129 489.826L618.334 490.708ZM618.93 493.702C618.93 494.911 618.72 495.914 618.334 496.738L620.146 497.586C620.68 496.444 620.93 495.141 620.93 493.702H618.93ZM618.332 496.742C617.948 497.574 617.425 498.187 616.77 498.621L617.874 500.288C618.868 499.631 619.623 498.716 620.148 497.582L618.332 496.742ZM616.77 498.621C616.128 499.046 615.364 499.273 614.442 499.273V501.273C615.712 501.273 616.869 500.954 617.874 500.288L616.77 498.621ZM614.442 499.273C613.475 499.273 612.691 499.052 612.05 498.65L610.987 500.344C611.994 500.976 613.159 501.273 614.442 501.273V499.273ZM612.05 498.65C611.413 498.25 610.895 497.653 610.511 496.808L608.69 497.635C609.215 498.79 609.976 499.71 610.987 500.344L612.05 498.65ZM610.514 496.814C610.138 495.971 609.927 494.886 609.927 493.523H607.927C607.927 495.08 608.166 496.461 608.688 497.629L610.514 496.814ZM609.927 493.523V492.168H607.927V493.523H609.927ZM609.927 492.168C609.927 489.05 610.393 486.889 611.193 485.546L609.475 484.522C608.4 486.327 607.927 488.922 607.927 492.168H609.927ZM611.191 485.548C611.942 484.296 613.097 483.617 614.825 483.545L614.74 481.546C612.423 481.644 610.612 482.624 609.476 484.52L611.191 485.548ZM614.831 483.544C615.396 483.517 615.915 483.509 616.388 483.52L616.433 481.52C615.906 481.508 615.339 481.517 614.734 481.547L614.831 483.544ZM616.388 483.52C616.939 483.532 617.454 483.505 617.927 483.431L617.621 481.455C617.287 481.507 616.893 481.53 616.433 481.52L616.388 483.52ZM617.927 483.431C618.487 483.345 619.002 483.132 619.439 482.773L618.171 481.227C618.04 481.334 617.868 481.417 617.621 481.455L617.927 483.431ZM614.442 500.31C615.526 500.31 616.516 500.027 617.368 499.43L616.22 497.792C615.742 498.127 615.164 498.31 614.442 498.31V500.31ZM617.365 499.432C618.205 498.848 618.833 498.043 619.262 497.058L617.428 496.26C617.13 496.945 616.724 497.441 616.223 497.79L617.365 499.432ZM619.263 497.056C619.692 496.064 619.891 494.938 619.891 493.702H617.891C617.891 494.727 617.726 495.572 617.427 496.262L619.263 497.056ZM619.891 493.702C619.891 492.468 619.685 491.351 619.235 490.382L617.421 491.225C617.721 491.87 617.891 492.685 617.891 493.702H619.891ZM619.238 490.39C618.801 489.429 618.171 488.65 617.333 488.101L616.237 489.774C616.718 490.089 617.116 490.554 617.418 491.218L619.238 490.39ZM617.342 488.107C616.51 487.55 615.56 487.281 614.527 487.281V489.281C615.198 489.281 615.754 489.45 616.229 489.768L617.342 488.107ZM614.527 487.281C613.671 487.281 612.869 487.464 612.146 487.851L613.09 489.615C613.491 489.4 613.962 489.281 614.527 489.281V487.281ZM612.146 487.851C611.452 488.223 610.863 488.732 610.386 489.369L611.986 490.569C612.293 490.16 612.659 489.845 613.09 489.615L612.146 487.851ZM610.386 489.369C609.921 489.989 609.57 490.689 609.328 491.459L611.237 492.058C611.416 491.487 611.667 490.994 611.986 490.569L610.386 489.369ZM609.328 491.459C609.087 492.229 608.965 493.032 608.959 493.864L610.959 493.88C610.964 493.235 611.058 492.629 611.237 492.058L609.328 491.459ZM608.959 493.872C608.959 495.729 609.391 497.319 610.382 498.516L611.922 497.24C611.322 496.516 610.959 495.436 610.959 493.872H608.959ZM610.386 498.521C611.401 499.73 612.793 500.31 614.442 500.31V498.31C613.306 498.31 612.505 497.935 611.918 497.235L610.386 498.521ZM626.647 504.909H625.647V505.909H626.647V504.909ZM626.647 486.909V485.909H625.647V486.909H626.647ZM627.661 486.909H628.661V485.909H627.661V486.909ZM627.661 489.832H626.661V490.832H627.661V489.832ZM627.789 489.832V490.832H628.489L628.729 490.174L627.789 489.832ZM628.65 488.281L627.867 487.659L627.862 487.665L628.65 488.281ZM630.039 487.148L630.497 488.037L630.501 488.035L630.039 487.148ZM634.761 487.582L634.166 488.387L634.166 488.387L634.761 487.582ZM636.584 489.986L635.663 490.375L635.664 490.377L636.584 489.986ZM636.576 497L635.656 496.607L635.655 496.609L636.576 497ZM634.752 499.403L635.349 500.206L635.35 500.205L634.752 499.403ZM630.056 499.847L629.601 500.737L629.605 500.739L630.056 499.847ZM628.65 498.713L627.863 499.331L627.872 499.341L628.65 498.713ZM627.789 497.145L628.733 496.815L628.498 496.145H627.789V497.145ZM627.687 497.145V496.145H626.687V497.145H627.687ZM627.687 504.909V505.909H628.687V504.909H627.687ZM628.181 496.472L627.248 496.833L627.249 496.835L628.181 496.472ZM629.647 498.551L629.02 499.331L629.025 499.334L629.647 498.551ZM634.215 498.543L634.841 499.322L634.842 499.321L634.215 498.543ZM635.681 496.446L634.748 496.085L634.746 496.09L635.681 496.446ZM635.689 490.523L636.623 490.165V490.165L635.689 490.523ZM634.232 488.452L633.606 489.231L633.61 489.235L634.232 488.452ZM629.63 488.443L630.251 489.227L630.252 489.226L629.63 488.443ZM628.172 490.506L627.241 490.143L627.239 490.146L628.172 490.506ZM627.647 504.909V486.909H625.647V504.909H627.647ZM626.647 487.909H627.661V485.909H626.647V487.909ZM626.661 486.909V489.832H628.661V486.909H626.661ZM627.661 490.832H627.789V488.832H627.661V490.832ZM628.729 490.174C628.897 489.711 629.133 489.286 629.437 488.898L627.862 487.665C627.428 488.219 627.09 488.829 626.849 489.491L628.729 490.174ZM629.432 488.904C629.717 488.546 630.068 488.258 630.497 488.037L629.581 486.259C628.908 486.606 628.333 487.073 627.867 487.659L629.432 488.904ZM630.501 488.035C630.89 487.832 631.379 487.713 631.999 487.713V485.713C631.12 485.713 630.302 485.884 629.577 486.261L630.501 488.035ZM631.999 487.713C632.861 487.713 633.569 487.945 634.166 488.387L635.355 486.778C634.384 486.061 633.251 485.713 631.999 485.713V487.713ZM634.166 488.387C634.787 488.845 635.291 489.494 635.663 490.375L637.506 489.597C637.014 488.432 636.302 487.478 635.355 486.778L634.166 488.387ZM635.664 490.377C636.034 491.249 636.232 492.279 636.232 493.489H638.232C638.232 492.062 637.998 490.757 637.505 489.595L635.664 490.377ZM636.232 493.489C636.232 494.696 636.032 495.729 635.656 496.607L637.495 497.393C637.995 496.225 638.232 494.917 638.232 493.489H636.232ZM635.655 496.609C635.284 497.485 634.778 498.136 634.154 498.602L635.35 500.205C636.294 499.501 637.004 498.549 637.496 497.391L635.655 496.609ZM634.155 498.601C633.563 499.042 632.864 499.273 632.016 499.273V501.273C633.259 501.273 634.385 500.924 635.349 500.206L634.155 498.601ZM632.016 499.273C631.4 499.273 630.906 499.156 630.507 498.954L629.605 500.739C630.331 501.106 631.144 501.273 632.016 501.273V499.273ZM630.51 498.956C630.075 498.734 629.717 498.444 629.428 498.085L627.872 499.341C628.343 499.926 628.924 500.391 629.601 500.737L630.51 498.956ZM629.436 498.095C629.128 497.704 628.895 497.278 628.733 496.815L626.845 497.475C627.081 498.148 627.421 498.768 627.863 499.331L629.436 498.095ZM627.789 496.145H627.687V498.145H627.789V496.145ZM626.687 497.145V504.909H628.687V497.145H626.687ZM627.687 503.909H626.647V505.909H627.687V503.909ZM626.67 493.48C626.67 494.696 626.856 495.818 627.248 496.833L629.114 496.111C628.824 495.364 628.67 494.492 628.67 493.48H626.67ZM627.249 496.835C627.644 497.848 628.228 498.694 629.02 499.331L630.273 497.772C629.793 497.386 629.4 496.845 629.113 496.109L627.249 496.835ZM629.025 499.334C629.853 499.992 630.836 500.31 631.922 500.31V498.31C631.248 498.31 630.713 498.121 630.269 497.768L629.025 499.334ZM631.922 500.31C633.02 500.31 634.011 499.99 634.841 499.322L633.589 497.763C633.147 498.118 632.609 498.31 631.922 498.31V500.31ZM634.842 499.321C635.641 498.678 636.226 497.824 636.616 496.802L634.746 496.09C634.465 496.829 634.073 497.373 633.588 497.764L634.842 499.321ZM636.614 496.807C637.006 495.794 637.192 494.681 637.192 493.48H635.192C635.192 494.473 635.038 495.336 634.748 496.085L636.614 496.807ZM637.192 493.48C637.192 492.282 637.009 491.172 636.623 490.165L634.756 490.88C635.04 491.624 635.192 492.485 635.192 493.48H637.192ZM636.623 490.165C636.234 489.149 635.651 488.302 634.854 487.669L633.61 489.235C634.086 489.613 634.475 490.147 634.756 490.88L636.623 490.165ZM634.858 487.672C634.025 487.003 633.028 486.685 631.922 486.685V488.685C632.624 488.685 633.166 488.878 633.606 489.231L634.858 487.672ZM631.922 486.685C630.828 486.685 629.838 487 629.008 487.66L630.252 489.226C630.694 488.875 631.233 488.685 631.922 488.685V486.685ZM629.009 487.66C628.217 488.287 627.635 489.13 627.241 490.143L629.104 490.869C629.392 490.131 629.781 489.599 630.251 489.227L629.009 487.66ZM627.239 490.146C626.852 491.15 626.67 492.267 626.67 493.48H628.67C628.67 492.466 628.822 491.6 629.105 490.865L627.239 490.146ZM643.938 496.991L644.843 496.567L643.938 496.991ZM643.938 490.02L643.034 489.593L643.032 489.597L643.938 490.02ZM645.924 487.599L645.349 486.781L645.924 487.599ZM650.884 487.156L650.472 488.067L650.482 488.072L650.884 487.156ZM652.623 488.418L651.882 489.09L651.886 489.094L652.623 488.418ZM653.807 490.412L652.868 490.755L652.87 490.761L653.807 490.412ZM654.242 493.685V494.685H655.242V493.685H654.242ZM643.878 493.685H642.878V494.685H643.878V493.685ZM643.878 492.739V491.739H642.878V492.739H643.878ZM653.202 492.739V493.739H654.202V492.739H653.202ZM652.623 490.173L651.731 490.626L652.623 490.173ZM651.046 488.358L650.486 489.187L650.486 489.187L651.046 488.358ZM646.478 488.418L647.059 489.231L647.06 489.23L646.478 488.418ZM644.867 490.378L643.966 489.943L643.964 489.948L644.867 490.378ZM644.253 493.139L643.254 493.122L643.253 493.131V493.139H644.253ZM644.824 496.506L643.908 496.907L643.912 496.914L644.824 496.506ZM646.478 498.56L645.901 499.376L645.905 499.38L646.478 498.56ZM650.884 498.952L651.311 499.856L651.315 499.854L650.884 498.952ZM652.137 498.065L652.868 498.748L652.137 498.065ZM652.87 497.06L653.246 496.133L652.395 495.788L651.979 496.606L652.87 497.06ZM653.816 497.443L654.726 497.857L655.158 496.908L654.192 496.516L653.816 497.443ZM652.887 498.756L652.166 498.063L652.166 498.063L652.887 498.756ZM651.302 499.838L650.89 498.927L650.887 498.928L651.302 499.838ZM649.052 499.273C648.043 499.273 647.213 499.026 646.522 498.564L645.411 500.226C646.47 500.935 647.697 501.273 649.052 501.273V499.273ZM646.522 498.564C645.809 498.086 645.249 497.43 644.843 496.567L643.033 497.416C643.582 498.587 644.374 499.533 645.411 500.226L646.522 498.564ZM644.843 496.567C644.438 495.702 644.222 494.692 644.222 493.514H642.222C642.222 494.939 642.484 496.247 643.033 497.416L644.843 496.567ZM644.222 493.514C644.222 492.331 644.438 491.314 644.844 490.443L643.032 489.597C642.484 490.771 642.222 492.084 642.222 493.514H644.222ZM644.842 490.447C645.259 489.565 645.814 488.899 646.499 488.418L645.349 486.781C644.352 487.482 643.583 488.43 643.034 489.593L644.842 490.447ZM646.499 488.418C647.163 487.951 647.92 487.713 648.805 487.713V485.713C647.53 485.713 646.367 486.066 645.349 486.781L646.499 488.418ZM648.805 487.713C649.399 487.713 649.951 487.832 650.472 488.067L651.296 486.245C650.51 485.89 649.676 485.713 648.805 485.713V487.713ZM650.482 488.072C651.008 488.303 651.473 488.639 651.882 489.09L653.363 487.746C652.772 487.094 652.079 486.589 651.287 486.241L650.482 488.072ZM651.886 489.094C652.294 489.538 652.624 490.086 652.868 490.755L654.747 490.069C654.423 489.181 653.963 488.399 653.36 487.742L651.886 489.094ZM652.87 490.761C653.112 491.41 653.242 492.165 653.242 493.037H655.242C655.242 491.966 655.082 490.97 654.745 490.063L652.87 490.761ZM653.242 493.037V493.685H655.242V493.037H653.242ZM654.242 492.685H643.878V494.685H654.242V492.685ZM644.878 493.685V492.739H642.878V493.685H644.878ZM643.878 493.739H653.202V491.739H643.878V493.739ZM654.202 492.739C654.202 491.65 653.98 490.637 653.514 489.721L651.731 490.626C652.039 491.232 652.202 491.929 652.202 492.739H654.202ZM653.514 489.721C653.056 488.818 652.42 488.079 651.606 487.529L650.486 489.187C651.001 489.534 651.416 490.006 651.731 490.626L653.514 489.721ZM651.606 487.529C650.77 486.965 649.826 486.685 648.805 486.685V488.685C649.442 488.685 649.993 488.853 650.486 489.187L651.606 487.529ZM648.805 486.685C647.734 486.685 646.753 486.99 645.895 487.605L647.06 489.23C647.566 488.868 648.136 488.685 648.805 488.685V486.685ZM645.897 487.604C645.07 488.194 644.43 488.984 643.966 489.943L645.768 490.813C646.1 490.124 646.533 489.607 647.059 489.231L645.897 487.604ZM643.964 489.948C643.504 490.915 643.273 491.979 643.254 493.122L645.253 493.156C645.268 492.265 645.446 491.488 645.77 490.808L643.964 489.948ZM643.253 493.139V493.565H645.253V493.139H643.253ZM643.253 493.565C643.253 494.774 643.465 495.893 643.908 496.907L645.74 496.105C645.423 495.379 645.253 494.539 645.253 493.565H643.253ZM643.912 496.914C644.365 497.928 645.027 498.759 645.901 499.376L647.055 497.743C646.497 497.349 646.056 496.811 645.737 496.097L643.912 496.914ZM645.905 499.38C646.813 500.013 647.878 500.31 649.052 500.31V498.31C648.226 498.31 647.575 498.106 647.05 497.74L645.905 499.38ZM649.052 500.31C649.875 500.31 650.64 500.173 651.311 499.856L650.457 498.047C650.117 498.208 649.66 498.31 649.052 498.31V500.31ZM651.315 499.854C651.918 499.566 652.444 499.202 652.868 498.748L651.406 497.383C651.182 497.622 650.873 497.849 650.453 498.049L651.315 499.854ZM652.868 498.748C653.237 498.353 653.543 497.942 653.761 497.513L651.979 496.606C651.867 496.825 651.684 497.085 651.406 497.383L652.868 498.748ZM652.494 497.986L653.44 498.37L654.192 496.516L653.246 496.133L652.494 497.986ZM652.906 497.029C652.764 497.341 652.528 497.686 652.166 498.063L653.608 499.449C654.087 498.95 654.47 498.421 654.726 497.857L652.906 497.029ZM652.166 498.063C651.853 498.388 651.436 498.68 650.89 498.927L651.713 500.75C652.451 500.416 653.091 499.987 653.608 499.448L652.166 498.063ZM650.887 498.928C650.408 499.146 649.805 499.273 649.052 499.273V501.273C650.026 501.273 650.923 501.109 651.716 500.748L650.887 498.928ZM662.91 499.395L662.338 500.215L662.342 500.217L662.91 499.395ZM660.925 496.974L660.016 497.393L660.018 497.397L660.925 496.974ZM660.933 490.02L660.027 489.597L660.933 490.02ZM662.919 487.599L662.346 486.779L662.919 487.599ZM668.109 487.224L667.662 488.119L667.665 488.12L668.109 487.224ZM669.814 488.648L669.009 489.242L669.013 489.247L669.814 488.648ZM670.683 490.761V491.761H671.851L671.671 490.607L670.683 490.761ZM669.626 490.761L668.644 490.95L668.8 491.761H669.626V490.761ZM668.348 488.562L667.693 489.319L667.7 489.324L668.348 488.562ZM663.481 488.435L664.062 489.249L664.066 489.246L663.481 488.435ZM661.845 490.489L662.754 490.905L662.755 490.902L661.845 490.489ZM661.828 496.463L660.912 496.865L660.913 496.867L661.828 496.463ZM663.447 498.543L664.041 497.738L663.447 498.543ZM667.606 498.926L667.175 498.024L667.171 498.026L667.606 498.926ZM668.944 497.835L668.148 497.231L668.944 497.835ZM669.652 496.182V495.182H668.816L668.668 496.004L669.652 496.182ZM670.709 496.182L671.697 496.335L671.875 495.182H670.709V496.182ZM668.16 499.753L667.71 498.86L668.16 499.753ZM665.851 499.273C664.923 499.273 664.145 499.032 663.479 498.572L662.342 500.217C663.369 500.928 664.551 501.273 665.851 501.273V499.273ZM663.483 498.575C662.794 498.094 662.241 497.43 661.831 496.552L660.018 497.397C660.563 498.564 661.334 499.514 662.338 500.215L663.483 498.575ZM661.833 496.556C661.43 495.683 661.217 494.67 661.217 493.497H659.217C659.217 494.916 659.476 496.221 660.016 497.393L661.833 496.556ZM661.217 493.497C661.217 492.326 661.432 491.315 661.839 490.443L660.027 489.597C659.479 490.77 659.217 492.077 659.217 493.497H661.217ZM661.839 490.443C662.249 489.564 662.802 488.9 663.491 488.419L662.346 486.779C661.342 487.48 660.571 488.43 660.027 489.597L661.839 490.443ZM663.491 488.419C664.158 487.954 664.93 487.713 665.842 487.713V485.713C664.55 485.713 663.373 486.063 662.346 486.779L663.491 488.419ZM665.842 487.713C666.53 487.713 667.131 487.853 667.662 488.119L668.556 486.33C667.724 485.914 666.813 485.713 665.842 485.713V487.713ZM667.665 488.12C668.212 488.392 668.656 488.764 669.009 489.242L670.618 488.054C670.073 487.316 669.381 486.739 668.553 486.329L667.665 488.12ZM669.013 489.247C669.363 489.715 669.593 490.264 669.695 490.916L671.671 490.607C671.523 489.656 671.174 488.796 670.615 488.049L669.013 489.247ZM670.683 489.761H669.626V491.761H670.683V489.761ZM670.608 490.573C670.395 489.465 669.852 488.529 668.995 487.801L667.7 489.324C668.207 489.755 668.516 490.285 668.644 490.95L670.608 490.573ZM669.002 487.806C668.125 487.047 667.052 486.685 665.851 486.685V488.685C666.626 488.685 667.219 488.908 667.693 489.319L669.002 487.806ZM665.851 486.685C664.763 486.685 663.766 486.996 662.896 487.624L664.066 489.246C664.583 488.873 665.166 488.685 665.851 488.685V486.685ZM662.901 487.62C662.047 488.23 661.396 489.061 660.935 490.075L662.755 490.902C663.09 490.167 663.53 489.628 664.062 489.249L662.901 487.62ZM660.936 490.073C660.469 491.094 660.248 492.237 660.248 493.48H662.248C662.248 492.474 662.426 491.622 662.754 490.905L660.936 490.073ZM660.248 493.48C660.248 494.705 660.462 495.84 660.912 496.865L662.744 496.061C662.421 495.325 662.248 494.471 662.248 493.48H660.248ZM660.913 496.867C661.362 497.883 662.005 498.722 662.854 499.347L664.041 497.738C663.503 497.341 663.067 496.793 662.743 496.059L660.913 496.867ZM662.854 499.347C663.729 499.993 664.741 500.31 665.851 500.31V498.31C665.143 498.31 664.552 498.115 664.041 497.738L662.854 499.347ZM665.851 500.31C666.629 500.31 667.365 500.154 668.042 499.826L667.171 498.026C666.791 498.21 666.356 498.31 665.851 498.31V500.31ZM668.038 499.828C668.716 499.504 669.287 499.038 669.741 498.44L668.148 497.231C667.886 497.575 667.565 497.837 667.175 498.024L668.038 499.828ZM669.741 498.44C670.202 497.832 670.497 497.132 670.636 496.359L668.668 496.004C668.58 496.493 668.403 496.895 668.148 497.231L669.741 498.44ZM669.652 497.182H670.709V495.182H669.652V497.182ZM669.72 496.029C669.618 496.692 669.389 497.251 669.046 497.727L670.667 498.898C671.21 498.146 671.55 497.285 671.697 496.335L669.72 496.029ZM669.046 497.727C668.698 498.208 668.257 498.584 667.71 498.86L668.61 500.646C669.438 500.228 670.128 499.644 670.667 498.898L669.046 497.727ZM667.71 498.86C667.177 499.129 666.564 499.273 665.851 499.273V501.273C666.842 501.273 667.769 501.07 668.61 500.646L667.71 498.86ZM676.258 487.898H675.258V488.898H676.258V487.898ZM676.258 486.909V485.909H675.258V486.909H676.258ZM686.076 486.909H687.076V485.909H686.076V486.909ZM686.076 487.898V488.898H687.076V487.898H686.076ZM681.712 487.898V486.898H680.712V487.898H681.712ZM681.712 500V501H682.712V500H681.712ZM680.672 500H679.672V501H680.672V500ZM680.672 487.898H681.672V486.898H680.672V487.898ZM677.258 487.898V486.909H675.258V487.898H677.258ZM676.258 487.909H686.076V485.909H676.258V487.909ZM685.076 486.909V487.898H687.076V486.909H685.076ZM686.076 486.898H681.712V488.898H686.076V486.898ZM680.712 487.898V500H682.712V487.898H680.712ZM681.712 499H680.672V501H681.712V499ZM681.672 500V487.898H679.672V500H681.672ZM680.672 486.898H676.258V488.898H680.672V486.898ZM693.698 498.645H692.698V502.063L694.54 499.184L693.698 498.645ZM701.206 486.909V485.909H700.659L700.364 486.37L701.206 486.909ZM702.527 486.909H703.527V485.909H702.527V486.909ZM702.527 500V501H703.527V500H702.527ZM701.488 500H700.488V501H701.488V500ZM701.488 488.264H702.488V484.842L700.645 487.726L701.488 488.264ZM693.988 500V501H694.535L694.83 500.538L693.988 500ZM692.658 500H691.658V501H692.658V500ZM692.658 486.909V485.909H691.658V486.909H692.658ZM693.698 486.909H694.698V485.909H693.698V486.909ZM694.54 499.184L702.049 487.448L700.364 486.37L692.856 498.106L694.54 499.184ZM701.206 487.909H702.527V485.909H701.206V487.909ZM701.527 486.909V500H703.527V486.909H701.527ZM702.527 499H701.488V501H702.527V499ZM702.488 500V488.264H700.488V500H702.488ZM700.645 487.726L693.145 499.462L694.83 500.538L702.33 488.803L700.645 487.726ZM693.988 499H692.658V501H693.988V499ZM693.658 500V486.909H691.658V500H693.658ZM692.658 487.909H693.698V485.909H692.658V487.909ZM692.698 486.909V498.645H694.698V486.909H692.698Z" fill="#120883" mask="url(#path-24-outside-1_54_2)"/>
</svg>
