<svg width="1920" height="1141" viewBox="0 0 1920 1141" fill="none" xmlns="http://www.w3.org/2000/svg">
<rect width="1918" height="1141" fill="#001603"/>
<path d="M1918 676H1632.5L1396 778L1022.5 807" stroke="#1EE535" stroke-width="5"/>
<path d="M1920 134L1530 471.5L1297 592.5L1163 720.5L911 761L777.5 838L520.5 861L240 995H0" stroke="#34DF48" stroke-width="5"/>
<path d="M1918 473.5L1759.5 590.5L1517.5 656.5L1322.5 784.5" stroke="#4FD15E" stroke-width="5"/>
<path d="M-12 918.5L288 870.5L693.5 893L1022.5 803.5L1188.5 596L1405.5 567L1517.5 379L1919 261.5" stroke="#4FD15E" stroke-width="5"/>
<path d="M1919.5 398L1663 450L1526 587L1328.5 664L1168.5 841L1008 868L856.5 921.5H670.5L470 950.5L-3 927" stroke="#27FB40" stroke-width="5"/>
</svg>
