<svg width="1920" height="866" viewBox="0 0 1920 866" fill="none" xmlns="http://www.w3.org/2000/svg">
<path d="M1918 544H1632.5L1396 646L1022.5 675" stroke="#1EE535" stroke-width="5"/>
<path d="M1920 2L1530 339.5L1297 460.5L1163 588.5L911 629L777.5 706L520.5 729L240 863H0" stroke="#34DF48" stroke-width="5"/>
<path d="M1918 341.5L1759.5 458.5L1517.5 524.5L1322.5 652.5" stroke="#4FD15E" stroke-width="5"/>
<path d="M-12 786.5L288 738.5L693.5 761L1022.5 671.5L1188.5 464L1405.5 435L1517.5 247L1919 129.5" stroke="#4FD15E" stroke-width="5"/>
<path d="M1919.5 266L1663 318L1526 455L1328.5 532L1168.5 709L1008 736L856.5 789.5H670.5L470 818.5L-3 795" stroke="#27FB40" stroke-width="5"/>
</svg>
